<svg width="188" height="188" viewBox="0 0 188 188" fill="none" xmlns="http://www.w3.org/2000/svg">
<rect width="188" height="188" rx="36" fill="#D82128"/>
<g clip-path="url(#clip0_187_31)">
<path d="M96.7663 86.3135L57.2981 125.857L63.6684 132.24L103.137 92.696L96.7663 86.3135Z" fill="white"/>
<path d="M138.446 108.193L98.6907 148.024L94.8987 144.225C85.6483 134.957 71.3983 132.344 59.4669 137.716L52.3178 140.934L50.1199 138.732L48.0186 136.627L51.4 128.036C56.0614 116.251 53.2839 102.845 44.3233 93.8677L39.9758 89.5119L79.9 49.5115L86.2763 55.8999L52.6559 89.5845C61.7131 100.014 64.8529 114.291 61.0851 127.528C74.0068 123.777 88.1843 126.705 98.594 135.368L132.094 101.805L138.47 108.193H138.446Z" fill="white"/>
<path d="M94.6934 33.985L87.5205 41.1716L146.851 100.615L154.024 93.4288L94.6934 33.985Z" fill="white"/>
</g>
<defs>
<clipPath id="clip0_187_31">
<rect width="114" height="114" fill="white" transform="translate(40 34)"/>
</clipPath>
</defs>
</svg>
