<svg width="408" height="258" viewBox="0 0 408 258" fill="none" xmlns="http://www.w3.org/2000/svg">
<g clip-path="url(#clip0_33_5017)">
<path d="M81.6153 98.8114C85.5067 96.0873 90.233 91.041 90.2032 83.1069C90.2032 72.806 81.8389 64.4551 71.5215 64.4551C61.2041 64.4551 52.8398 72.806 52.8398 83.1069C52.8398 89.5525 58.5204 98.7072 61.0699 98.5732C61.2936 94.8816 60.9954 89.225 68.2414 87.5131C68.2414 87.5131 64.3649 84.8039 66.7505 79.192C66.7505 75.0835 66.7505 72.9102 66.7505 72.9102H76.2479L76.1286 79.2218C76.1286 79.2218 79.8709 84.4318 74.8016 87.4982C78.0519 88.6147 82.3459 90.1777 81.6153 98.7965V98.8114Z" fill="#D82329"/>
<path d="M155.253 64.2617H137.54V81.946H155.253V64.2617Z" fill="#0EA7AF"/>
<path d="M154.358 116.377H155.253V98.6924H137.54V116.377H149.125C149.125 116.377 148.141 114.516 148.588 112.864C149.035 111.211 151.167 111.048 151.764 113.012C152.36 114.977 154.358 116.377 154.358 116.377Z" fill="#D82329"/>
<path d="M155.238 152.266V152.37H137.525V134.671H154C154 134.671 148.573 141.265 150.631 145.939C151.973 148.991 154.582 151.67 155.238 152.266Z" fill="#DCE2E2"/>
<path d="M310.581 130.012C316.291 123.552 323.671 114.725 321.405 99.7795C318.259 79.0287 308.792 63.6964 285.026 65.7358C273.217 66.748 261.424 76.0218 262.169 88.6152C264.063 94.5695 270.131 100.464 272.144 107.193C273.143 110.512 275.275 112.671 277.452 108.949C279.658 105.138 277.78 100.941 283.326 99.0501C284.265 98.7226 285.324 98.5886 286.248 98.9161C288.037 99.5711 288.813 101.64 289.096 103.531C289.513 106.151 289.394 108.904 288.47 111.42C287.605 113.787 286.114 115.454 284.101 116.898C283.177 117.568 279.614 118.402 280.091 120.247C282.566 129.834 290.408 133.258 298.653 131.665" fill="#1A1757"/>
<path d="M329.71 187.1C332.468 166.84 324.73 145.047 310.581 129.998C308.837 128.152 306.123 128.167 303.588 128.345C302.515 128.42 301.427 128.643 300.547 129.253C297.759 131.189 296.611 138.051 295.627 141.222C293.912 146.789 293.062 152.669 292.973 158.489C292.898 162.717 293.271 167.004 294.687 170.993C298.907 182.812 311.655 190.255 315.084 202.343C316.202 206.302 317.454 208.639 318.662 212.569C319.542 212.331 320.138 211.542 320.66 210.783C325.655 203.533 328.577 195.45 329.71 187.1Z" fill="#1A1757"/>
<path d="M385.695 140.462C385.069 141.161 384.219 141.519 383.354 141.519C382.49 141.519 381.55 141.132 380.909 140.343L377.897 136.517C377.897 136.517 381.192 135.386 382.683 132.811L385.71 136.383C386.724 137.559 386.709 139.286 385.695 140.462Z" fill="#D82329"/>
<path d="M352.864 101.313L354.713 107.178L358.455 104.245L352.864 101.313Z" fill="#D82329"/>
<path d="M261.437 20.2196L254.742 26.9035L261.437 33.5874L268.131 26.9035L261.437 20.2196Z" fill="#1A1757"/>
<path d="M310.581 130.012C316.291 123.552 323.671 114.725 321.405 99.7795C318.259 79.0287 308.792 63.6964 285.026 65.7358C273.217 66.748 261.424 76.0218 262.169 88.6152C264.063 94.5695 270.131 100.464 272.144 107.193C273.143 110.512 275.275 112.671 277.452 108.949C279.658 105.138 277.78 100.941 283.326 99.0501C284.265 98.7226 285.324 98.5886 286.248 98.9161C288.037 99.5711 288.813 101.64 289.096 103.531C289.513 106.151 289.394 108.904 288.47 111.42C287.605 113.787 286.114 115.454 284.101 116.898C283.177 117.568 279.614 118.402 280.091 120.247C282.566 129.834 290.408 133.258 298.653 131.665" stroke="#1A1757" stroke-linecap="round" stroke-linejoin="round"/>
<path d="M262.17 88.6152C260.724 97.2489 261.737 110.914 262.349 120.545C262.93 129.596 272.606 134.731 282.715 132.885" stroke="#1A1757" stroke-linecap="round" stroke-linejoin="round"/>
<path d="M316.291 136.92C342.249 136.89 353.58 168.433 367.133 197.178" stroke="#1A1757" stroke-linecap="round" stroke-linejoin="round"/>
<path d="M259.77 208.028C262.11 212.792 264.362 217.451 265.152 220.279C267.016 226.784 271.474 241.432 271.861 257.256" stroke="#1A1757" stroke-linecap="round" stroke-linejoin="round"/>
<path d="M339.147 170.428C346.692 193.575 347.035 205.886 347.482 254.785" stroke="#1A1757" stroke-linecap="round" stroke-linejoin="round"/>
<path d="M329.71 187.099C332.468 166.84 324.73 145.047 310.581 129.998C308.837 128.152 306.123 128.167 303.588 128.345C302.515 128.42 301.427 128.643 300.547 129.253C297.759 131.188 296.611 138.051 295.627 141.221C293.912 146.789 293.062 152.669 292.973 158.489C292.898 162.716 293.271 167.004 294.687 170.993C298.907 182.812 311.655 190.255 315.084 202.342C316.202 206.302 317.454 208.639 318.662 212.569C319.542 212.331 320.138 211.542 320.66 210.783C325.655 203.533 328.577 195.45 329.71 187.099Z" stroke="#1A1757" stroke-linecap="round" stroke-linejoin="round"/>
<path d="M261.588 100.688L256.966 116.332H261.588" stroke="#1A1757" stroke-linecap="round" stroke-linejoin="round"/>
<path d="M279.346 133.258V140.596" stroke="#1A1757" stroke-linecap="round" stroke-linejoin="round"/>
<path d="M284.206 105.213C285.011 107.386 284.668 109.932 283.356 111.822" stroke="#1A1757" stroke-linecap="round" stroke-linejoin="round"/>
<path d="M157.087 131.665C154.03 133.541 150.974 138.9 150.005 142.844C149.766 149.26 158.742 155.84 166.375 160.052C179.242 176.441 207.585 205.156 233.14 230.73C252.001 223.093 267.954 197.133 279.345 180.297" stroke="#1A1757" stroke-linecap="round" stroke-linejoin="round"/>
<path d="M159.741 135.789C156.357 130.534 148.41 119.072 148.574 112.879C148.574 112.358 149.17 111.971 149.677 111.867C150.497 111.689 151.228 112.388 151.764 113.028C154.821 116.69 159.652 124.207 162.902 127.706C164.959 129.924 170.044 136.205 169.924 134.181C169.79 131.591 164.572 124.371 164.646 121.543C164.661 120.724 165.272 119.876 166.063 119.682C166.883 119.474 167.777 119.935 168.359 120.546C172.876 125.339 177.111 130.608 178.825 133.258C182.791 139.406 178.915 147.489 181.181 149.469C191.066 160.052 222.063 178.957 233.051 188.797C245.769 173.866 254.849 149.469 269.118 144.02C278.048 140.612 287.456 138.021 296.506 137.977" stroke="#1A1757" stroke-linecap="round" stroke-linejoin="round"/>
<path d="M195.583 161.436C191.811 167.227 184.849 171.588 179.72 175.608" stroke="#1A1757" stroke-linecap="round" stroke-linejoin="round"/>
<path d="M211.731 172.928C207.69 178.435 199.922 185.476 194.033 189.57" stroke="#1A1757" stroke-linecap="round" stroke-linejoin="round"/>
<path d="M197.999 174.669C199.259 174.669 200.28 173.65 200.28 172.392C200.28 171.134 199.259 170.114 197.999 170.114C196.739 170.114 195.718 171.134 195.718 172.392C195.718 173.65 196.739 174.669 197.999 174.669Z" fill="#1A1757"/>
<path d="M365.582 164.681C366.842 164.681 367.863 163.661 367.863 162.403C367.863 161.146 366.842 160.126 365.582 160.126C364.322 160.126 363.301 161.146 363.301 162.403C363.301 163.661 364.322 164.681 365.582 164.681Z" fill="#1A1757"/>
<path d="M372.993 121.394C373.708 120.054 374.454 118.417 375.304 116.333C375.736 115.246 376.362 115.767 370.741 115.395C366.224 115.097 364.435 109.857 364.435 109.857L380.298 109.426C383.608 111.703 381.894 116.333 381.894 116.333L387.544 126.827C387.544 126.827 386.888 131.129 385.323 135.908" stroke="#1A1757" stroke-linecap="round" stroke-linejoin="round"/>
<path d="M348.139 221.128C354.669 224.165 363.749 227.216 374.096 227.216C383.877 204.634 378.972 156.509 380.492 145.478C381.462 144.347 382.296 142.978 383.042 141.504" stroke="#1A1757" stroke-linecap="round" stroke-linejoin="round"/>
<path d="M356.651 174.67L363.599 140.597C363.599 140.597 360.766 134.955 357.68 130.385C357.039 129.417 356.86 128.212 357.188 127.095C358.634 122.094 359.261 119.563 359.082 117.97C358.888 116.199 363.495 116.854 363.599 119.831C363.704 122.823 364.747 129.105 367.983 126.976C368.519 126.619 369.026 126.262 369.474 125.875" stroke="#1A1757" stroke-linecap="round" stroke-linejoin="round"/>
<path d="M380.925 140.343L354.729 107.178L358.188 103.932L385.725 136.383C386.739 137.559 386.724 139.286 385.711 140.462C384.428 141.921 382.132 141.861 380.925 140.343Z" stroke="#1A1757" stroke-linecap="round" stroke-linejoin="round"/>
<path d="M354.713 107.178L352.999 101.744C352.909 101.462 353.207 101.209 353.476 101.357L358.187 103.933" stroke="#1A1757" stroke-linecap="round" stroke-linejoin="round"/>
<path d="M377.897 136.518C377.897 136.518 381.192 135.372 382.683 132.811" stroke="#1A1757" stroke-linecap="round" stroke-linejoin="round"/>
<path d="M381.879 116.332L380.09 124.623" stroke="#1A1757" stroke-linecap="round" stroke-linejoin="round"/>
<path d="M361.616 152.594C369.518 156.196 380.074 156.196 380.074 156.196" stroke="#1A1757" stroke-linecap="round" stroke-linejoin="round"/>
<path d="M357.501 170.502C365.761 175.042 380.074 174.119 380.074 174.119" stroke="#1A1757" stroke-linecap="round" stroke-linejoin="round"/>
<path d="M90.2324 78.4628H121.259" stroke="#1A1757" stroke-linecap="round" stroke-linejoin="round"/>
<path d="M71.5215 101.759C81.8391 101.759 90.2032 93.4081 90.2032 83.1069C90.2032 72.8058 81.8391 64.4551 71.5215 64.4551C61.2039 64.4551 52.8398 72.8058 52.8398 83.1069C52.8398 93.4081 61.2039 101.759 71.5215 101.759Z" stroke="#1A1757" stroke-linecap="round" stroke-linejoin="round"/>
<path d="M76.129 79.2364C76.8745 80.2039 77.3218 81.4246 77.3218 82.7494C77.3218 85.935 74.7275 88.5251 71.5369 88.5251C68.3462 88.5251 65.752 85.935 65.752 82.7494C65.752 81.4246 66.1992 80.2039 66.9447 79.2364" stroke="#1A1757" stroke-linecap="round" stroke-linejoin="round"/>
<path d="M81.6307 98.7959C81.6307 93.9729 81.6307 89.2095 75.5625 87.5869" stroke="#1A1757" stroke-linecap="round" stroke-linejoin="round"/>
<path d="M68.2568 87.5128C62.2035 89.4033 61.0107 93.616 61.0107 98.5134" stroke="#1A1757" stroke-linecap="round" stroke-linejoin="round"/>
<path d="M76.2484 73.4609V79.2068C76.2484 79.2068 72.357 80.5614 66.751 79.2068V73.4758" stroke="#1A1757" stroke-linecap="round" stroke-linejoin="round"/>
<path d="M79.6333 72.9248H63.3818" stroke="#1A1757" stroke-linecap="round" stroke-linejoin="round"/>
<path d="M179.735 175.608H121.26V42.6035H231.531V175.608H215.563" stroke="#1A1757" stroke-linecap="round" stroke-linejoin="round"/>
<path d="M169.478 69.041H217.084" stroke="#1A1757" stroke-linecap="round" stroke-linejoin="round"/>
<path d="M169.478 77.6748H202.89" stroke="#1A1757" stroke-linecap="round" stroke-linejoin="round"/>
<path d="M169.478 103.338H217.084" stroke="#1A1757" stroke-linecap="round" stroke-linejoin="round"/>
<path d="M169.478 111.986H202.89" stroke="#1A1757" stroke-linecap="round" stroke-linejoin="round"/>
<path d="M180.614 138.721H217.083" stroke="#1A1757" stroke-linecap="round" stroke-linejoin="round"/>
<path d="M180.451 147.369H202.89" stroke="#1A1757" stroke-linecap="round" stroke-linejoin="round"/>
<path d="M155.254 64.2627H137.541V81.947H155.254V64.2627Z" stroke="#1A1757" stroke-linecap="round" stroke-linejoin="round"/>
<path d="M154.359 116.377H155.239V98.7079H137.541V116.377H149.126" stroke="#1A1757" stroke-linecap="round" stroke-linejoin="round"/>
<path d="M155.239 152.267V152.371H137.541V134.672H154.001" stroke="#1A1757" stroke-linecap="round" stroke-linejoin="round"/>
<path d="M335.898 53.5585C345.771 53.5585 353.775 45.5677 353.775 35.7105C353.775 25.8533 345.771 17.8625 335.898 17.8625C326.025 17.8625 318.021 25.8533 318.021 35.7105C318.021 45.5677 326.025 53.5585 335.898 53.5585Z" stroke="#1A1757" stroke-linecap="round" stroke-linejoin="round"/>
<path d="M341.608 52.6211L339.551 63.9641L329.442 63.4431L327.966 51.8173" stroke="#1A1757" stroke-linecap="round" stroke-linejoin="round"/>
<path d="M329.74 60.0939L339.834 60.5107" stroke="#1A1757" stroke-linecap="round" stroke-linejoin="round"/>
<path d="M331.052 52.9037L331.321 49.0482L329.189 38.4049C328.965 37.2587 330.202 36.3954 331.201 36.9908L336.494 40.1912L341.996 37.869C343.114 37.3927 344.232 38.524 343.755 39.6404L338.298 49.9861L338 53.4693" stroke="#1A1757" stroke-linecap="round" stroke-linejoin="round"/>
<path d="M303.529 50.254L312.266 48.0509" stroke="#1A1757" stroke-linecap="round" stroke-linejoin="round"/>
<path d="M302.992 32.5849L310.82 34.1182" stroke="#1A1757" stroke-linecap="round" stroke-linejoin="round"/>
<path d="M310.641 13.3976L317.931 18.295" stroke="#1A1757" stroke-linecap="round" stroke-linejoin="round"/>
<path d="M327.831 0.744293L329.993 9.48223" stroke="#1A1757" stroke-linecap="round" stroke-linejoin="round"/>
<path d="M347.825 4.4357L344.754 11.7893" stroke="#1A1757" stroke-linecap="round" stroke-linejoin="round"/>
<path d="M363.405 15.838L356.323 21.0183" stroke="#1A1757" stroke-linecap="round" stroke-linejoin="round"/>
<path d="M370.294 33.1808L361.542 33.806" stroke="#1A1757" stroke-linecap="round" stroke-linejoin="round"/>
<path d="M366.447 53.1719L358.978 48.5722" stroke="#1A1757" stroke-linecap="round" stroke-linejoin="round"/>
<path d="M71.5215 101.759L71.5513 156.062" stroke="#1A1757" stroke-linecap="round" stroke-linejoin="round"/>
<path d="M104.993 146.461H0.745117V209.398H104.993V146.461Z" stroke="#1A1757" stroke-linecap="round" stroke-linejoin="round"/>
<path d="M18.8301 168.73H84.119" stroke="#1A1757" stroke-linecap="round" stroke-linejoin="round"/>
<path d="M18.8301 180.088H84.119" stroke="#1A1757" stroke-linecap="round" stroke-linejoin="round"/>
<path d="M18.8301 191.446H45.5033" stroke="#1A1757" stroke-linecap="round" stroke-linejoin="round"/>
<path d="M45.504 111.986H16.2217V128.94H45.504V111.986Z" fill="#DCE2E2" stroke="#1A1757" stroke-linecap="round" stroke-linejoin="round"/>
<path d="M358.634 121.765H334.078V82.5713H374.364V109.5" stroke="#1A1757" stroke-linecap="round" stroke-linejoin="round"/>
<path d="M79.319 147.249L71.5213 157.967L63.7832 147.22L79.319 147.249Z" fill="#D82329" stroke="#1A1757" stroke-miterlimit="10"/>
<path d="M116.428 211.021C116.428 220.92 108.392 228.943 98.4921 228.943C88.5922 228.943 80.541 220.92 80.541 211.021C80.541 201.122 88.5773 193.113 98.4921 193.113C108.407 193.113 116.428 201.137 116.428 211.021Z" fill="#0EA7AF" stroke="#1A1757" stroke-miterlimit="10"/>
<path d="M108.347 206.644L95.1819 219.788L88.6068 213.209C87.8017 212.405 87.8017 211.11 88.6068 210.306C89.4119 209.502 90.709 209.502 91.5141 210.306L95.1819 213.968L105.41 203.742C106.215 202.938 107.512 202.938 108.317 203.742C109.122 204.545 109.122 205.84 108.317 206.644H108.347Z" fill="white"/>
<path d="M342.666 94.4502H365.776" stroke="#1A1757" stroke-linecap="round" stroke-linejoin="round"/>
<path d="M343.396 101.312H352.864" stroke="#1A1757" stroke-linecap="round" stroke-linejoin="round"/>
<path d="M45.5039 121.632H71.5509" stroke="#1A1757" stroke-linecap="round" stroke-linejoin="round"/>
<path d="M133.247 251.822V209.383H184.044V227.558H206.513L184.044 238.633V251.822H133.247Z" stroke="#1A1757" stroke-linecap="round" stroke-linejoin="round"/>
<path d="M150.214 232.367C152.042 232.367 153.524 230.888 153.524 229.062C153.524 227.237 152.042 225.758 150.214 225.758C148.386 225.758 146.904 227.237 146.904 229.062C146.904 230.888 148.386 232.367 150.214 232.367Z" fill="#D82329"/>
<path d="M166.674 232.367C168.502 232.367 169.984 230.888 169.984 229.062C169.984 227.237 168.502 225.758 166.674 225.758C164.846 225.758 163.364 227.237 163.364 229.062C163.364 230.888 164.846 232.367 166.674 232.367Z" fill="#D82329"/>
<path d="M401.699 73.4968L395.384 79.8018L401.699 86.1067L408.014 79.8017L401.699 73.4968Z" fill="#D82329"/>
<path d="M26.6408 41.3432L17.7217 50.248L26.6408 59.1529L35.5598 50.248L26.6408 41.3432Z" fill="#D82329"/>
<path d="M58.5297 234.118L53.1846 239.454L58.5297 244.791L63.8748 239.454L58.5297 234.118Z" fill="#1A1757"/>
</g>
<defs>
<clipPath id="clip0_33_5017">
<rect width="408" height="258" fill="white"/>
</clipPath>
</defs>
</svg>
