<svg width="367" height="276" viewBox="0 0 367 276" fill="none" xmlns="http://www.w3.org/2000/svg">
<g clip-path="url(#clip0_33_4918)">
<path d="M366.275 167.219C366.275 168.373 365.935 169.542 365.196 170.548L360.006 177.8C360.006 177.8 356.31 172.561 351.031 171.244L355.807 164.096C357.36 161.714 360.435 160.856 363.008 162.054C365.107 163.046 366.305 165.118 366.305 167.234L366.275 167.219Z" fill="#D82329"/>
<path d="M313.667 237.762L311.257 239.375C310.799 239.671 310.208 239.271 310.326 238.724L311.006 235.705L313.667 237.762Z" fill="#1A1757"/>
<path d="M254.672 231.591C241.557 232.864 169.861 239.878 164.937 240.366C162.172 242.068 158.845 242.453 155.548 241.299C137.243 243.075 92.3382 247.47 69.0801 249.763C69.3758 248.224 69.5089 246.611 69.5237 244.969L155.104 236.608L159.954 236.134L164.478 235.675L253.001 227.019C253.401 228.632 253.963 230.156 254.687 231.591H254.672Z" fill="#9C9C9C"/>
<path d="M260.276 169.646C259.478 169.024 258.605 168.388 257.703 167.693C257.008 167.175 256.092 166.346 255.057 165.399L248.078 93.9683L151.526 103.424L147.002 103.868L142.152 104.342L45.9401 113.768L53.54 191.562C51.9136 193.264 50.4942 194.773 49.2078 196.238L40.7207 109.536C40.7207 109.536 116.454 102.107 141.693 99.636C145.035 100.997 148.317 100.391 151.068 98.7333L151.082 98.7185C176.396 96.2472 252.351 88.8037 252.351 88.8037L257.482 141.367L260.246 169.631L260.276 169.646Z" fill="#9C9C9C"/>
<path d="M198.812 231.99L200.941 249.511C200.985 249.911 200.482 250.177 200.172 249.911L193.429 242.571C193.06 242.245 192.454 242.319 192.173 242.748L186.658 250.769C186.421 251.109 185.874 251.006 185.83 250.591L183.996 233.944L198.797 231.99H198.812Z" fill="#D82329"/>
<path d="M282.604 50.171L273.686 59.0967L282.604 68.0224L291.522 59.0967L282.604 50.171Z" fill="#0EA7AF"/>
<path d="M235.59 23.0548L230.561 28.0879L235.589 33.121L240.618 28.0879L235.59 23.0548Z" fill="#1A1757"/>
<path d="M7.97271 127.577L0.00585938 135.551L7.97271 143.524L15.9396 135.551L7.97271 127.577Z" fill="#D82329"/>
<path d="M62.7367 260.225C79.1786 248.313 60.4449 215.579 61.7756 213.271C64.1561 209.157 68.4145 201.343 71.9039 193.574C73.9887 188.942 74.7428 178.214 70.7358 176.482C66.3296 174.573 59.1881 185.642 56.2161 188.765C50.5827 194.714 47.0637 198.177 43.8699 203.519C41.5485 207.381 40.7945 211.909 40.9867 216.141C41.1789 220.374 42.2583 224.384 43.3376 228.365" stroke="#1A1757" stroke-linecap="round" stroke-linejoin="round"/>
<path d="M45.1415 159.643C45.1415 159.643 26.2451 179.857 27.0879 190.068C27.9455 200.278 35.0871 229.312 35.9299 239.227C36.7875 249.157 31.5385 275.246 31.5385 275.246" stroke="#1A1757" stroke-linecap="round" stroke-linejoin="round"/>
<path d="M67.2314 255.105V273.411" stroke="#1A1757" stroke-linecap="round" stroke-linejoin="round"/>
<path d="M262.716 239.271C242.355 229.741 257.821 194.832 256.151 192.761C253.149 189.076 247.693 182.047 243.006 174.944C240.211 170.697 237.742 160.234 241.424 157.882C245.475 155.292 254.288 165.073 257.718 167.678C264.224 172.65 268.26 175.506 272.267 180.256C275.18 183.689 276.644 188.04 277.132 192.243C277.62 196.445 277.206 200.589 276.762 204.688" stroke="#1A1757" stroke-linecap="round" stroke-linejoin="round"/>
<path d="M258.975 150.571C258.975 150.571 285.397 168.729 286.062 178.125C286.728 187.522 284.14 208.476 284.761 217.622C285.382 226.767 294.431 252.22 294.431 252.22" stroke="#1A1757" stroke-linecap="round" stroke-linejoin="round"/>
<path d="M257.629 236.001L261.222 258.198" stroke="#1A1757" stroke-linecap="round" stroke-linejoin="round"/>
<path d="M53.5698 191.547L45.9551 113.753L142.182 104.326L147.031 103.853L151.541 103.424L248.093 93.9677L255.072 165.398" stroke="#1A1757" stroke-linecap="round" stroke-linejoin="round"/>
<path d="M252.986 227.018L164.478 235.675L159.954 236.134L155.104 236.608L69.5234 244.969" stroke="#1A1757" stroke-linecap="round" stroke-linejoin="round"/>
<path d="M49.2371 196.238L40.75 109.536C40.75 109.536 116.483 102.107 141.723 99.6358C145.064 100.997 148.347 100.391 151.097 98.7331L151.112 98.7183C176.425 96.2471 252.38 88.8036 252.38 88.8036L257.511 141.367L260.276 169.631" stroke="#1A1757" stroke-linecap="round" stroke-linejoin="round"/>
<path d="M69.0947 249.763C92.3529 247.484 137.258 243.074 155.562 241.298C158.86 242.453 162.172 242.068 164.952 240.366C169.86 239.878 176.691 239.212 184.513 238.442" stroke="#1A1757" stroke-linecap="round" stroke-linejoin="round"/>
<path d="M199.417 237.021C219.348 235.053 241.572 232.878 254.687 231.605" stroke="#1A1757" stroke-linecap="round" stroke-linejoin="round"/>
<path d="M147.031 103.853L159.954 236.119" stroke="#1A1757" stroke-linecap="round" stroke-linejoin="round"/>
<path d="M155.562 241.298L155.104 236.607" stroke="#1A1757" stroke-linecap="round" stroke-linejoin="round"/>
<path d="M142.181 104.326L141.723 99.6503" stroke="#1A1757" stroke-linecap="round" stroke-linejoin="round"/>
<path d="M164.952 240.366L164.479 235.675" stroke="#1A1757" stroke-linecap="round" stroke-linejoin="round"/>
<path d="M151.54 103.424L151.097 98.7334V98.7186" stroke="#1A1757" stroke-linecap="round" stroke-linejoin="round"/>
<path d="M183.995 233.929L185.829 250.577C185.873 250.976 186.42 251.095 186.657 250.754L192.172 242.734C192.467 242.305 193.059 242.231 193.429 242.556L200.171 249.896C200.481 250.162 200.984 249.896 200.94 249.497L198.811 231.976" stroke="#1A1757" stroke-miterlimit="10"/>
<path d="M106.059 50.0624L151.57 50.2104V71.5197L165.35 50.2104L207.386 50.0032V0.740234H89.4395V24.1361" stroke="#1A1757" stroke-linecap="round" stroke-linejoin="round"/>
<path d="M15.126 24.1357V63.2472L74.506 63.4248L86.7044 91.0085V63.4248L105.246 63.2472V24.1357H15.126Z" stroke="#1A1757" stroke-linecap="round" stroke-linejoin="round"/>
<path d="M81.8698 46.7328C83.4785 46.7328 84.7827 45.4276 84.7827 43.8176C84.7827 42.2075 83.4785 40.9023 81.8698 40.9023C80.2611 40.9023 78.957 42.2075 78.957 43.8176C78.957 45.4276 80.2611 46.7328 81.8698 46.7328Z" stroke="#1A1757" stroke-linecap="round" stroke-linejoin="round"/>
<path d="M67.0388 46.7328C68.6475 46.7328 69.9516 45.4276 69.9516 43.8176C69.9516 42.2075 68.6475 40.9023 67.0388 40.9023C65.4301 40.9023 64.126 42.2075 64.126 43.8176C64.126 45.4276 65.4301 46.7328 67.0388 46.7328Z" stroke="#1A1757" stroke-linecap="round" stroke-linejoin="round"/>
<path d="M52.239 46.7328C53.8477 46.7328 55.1518 45.4276 55.1518 43.8176C55.1518 42.2075 53.8477 40.9023 52.239 40.9023C50.6303 40.9023 49.3262 42.2075 49.3262 43.8176C49.3262 45.4276 50.6303 46.7328 52.239 46.7328Z" stroke="#1A1757" stroke-linecap="round" stroke-linejoin="round"/>
<path d="M37.4079 46.7328C39.0166 46.7328 40.3207 45.4276 40.3207 43.8176C40.3207 42.2075 39.0166 40.9023 37.4079 40.9023C35.7992 40.9023 34.4951 42.2075 34.4951 43.8176C34.4951 45.4276 35.7992 46.7328 37.4079 46.7328Z" stroke="#1A1757" stroke-linecap="round" stroke-linejoin="round"/>
<path d="M312.174 147.774C327.836 147.774 340.533 135.067 340.533 119.392C340.533 103.716 327.836 91.0088 312.174 91.0088C296.511 91.0088 283.814 103.716 283.814 119.392C283.814 135.067 296.511 147.774 312.174 147.774Z" stroke="#1A1757" stroke-linecap="round" stroke-linejoin="round"/>
<path d="M312.174 143.128C325.272 143.128 335.89 132.501 335.89 119.391C335.89 106.282 325.272 95.6553 312.174 95.6553C299.075 95.6553 288.457 106.282 288.457 119.391C288.457 132.501 299.075 143.128 312.174 143.128Z" stroke="#1A1757" stroke-linecap="round" stroke-linejoin="round"/>
<path d="M312.174 138.318C322.618 138.318 331.085 129.845 331.085 119.392C331.085 108.939 322.618 100.465 312.174 100.465C301.73 100.465 293.263 108.939 293.263 119.392C293.263 129.845 301.73 138.318 312.174 138.318Z" fill="#1A1757"/>
<path d="M335.417 135.64L342.751 142.994L336.615 149.15L329.399 141.929" stroke="#1A1757" stroke-linecap="round" stroke-linejoin="round"/>
<path d="M122.516 20.5546H176.661" stroke="#1A1757" stroke-linecap="round" stroke-linejoin="round"/>
<path d="M122.516 30.4394H176.661" stroke="#1A1757" stroke-linecap="round" stroke-linejoin="round"/>
<path d="M330.996 201.299L304.47 205.087L299.266 168.669L335.668 163.445L339.306 188.839" fill="#DCE2E2"/>
<path d="M330.996 201.299L304.47 205.087L299.266 168.669L335.668 163.445L339.306 188.839" stroke="#1A1757" stroke-linecap="round" stroke-linejoin="round"/>
<path d="M310.518 178.169L327.521 175.728" stroke="#1A1757" stroke-linecap="round" stroke-linejoin="round"/>
<path d="M311.242 183.275L328.261 180.833" stroke="#1A1757" stroke-linecap="round" stroke-linejoin="round"/>
<path d="M216.701 114.39L234.563 112.54" stroke="#9C9C9C" stroke-linecap="round" stroke-linejoin="round"/>
<path d="M67.2309 137.031C69.4602 137.031 71.2674 135.222 71.2674 132.991C71.2674 130.76 69.4602 128.951 67.2309 128.951C65.0016 128.951 63.1943 130.76 63.1943 132.991C63.1943 135.222 65.0016 137.031 67.2309 137.031Z" fill="#1A1757" stroke="#1A1757" stroke-miterlimit="10"/>
<path d="M229.683 189.698C231.912 189.698 233.72 187.889 233.72 185.658C233.72 183.427 231.912 181.618 229.683 181.618C227.454 181.618 225.646 183.427 225.646 185.658C225.646 187.889 227.454 189.698 229.683 189.698Z" fill="#1A1757" stroke="#1A1757" stroke-miterlimit="10"/>
<path d="M138.661 186.25L113.229 188.884" stroke="#9C9C9C" stroke-linecap="round" stroke-linejoin="round"/>
<path d="M111.751 174.559L137.183 171.925" stroke="#9C9C9C" stroke-linecap="round" stroke-linejoin="round"/>
<path d="M112.401 182.017L137.833 179.383" stroke="#9C9C9C" stroke-linecap="round" stroke-linejoin="round"/>
<path d="M139.312 193.708L113.88 196.342" stroke="#9C9C9C" stroke-linecap="round" stroke-linejoin="round"/>
<path d="M133.797 130.313L106.783 133.124" stroke="#9C9C9C" stroke-linecap="round" stroke-linejoin="round"/>
<path d="M217.722 121.434L235.583 119.584" stroke="#9C9C9C" stroke-linecap="round" stroke-linejoin="round"/>
<path d="M134.58 137.904L107.566 140.701" stroke="#9C9C9C" stroke-linecap="round" stroke-linejoin="round"/>
<path d="M233.365 202.498L181.171 207.914" stroke="#9C9C9C" stroke-linecap="round" stroke-linejoin="round"/>
<path d="M234.148 210.089L181.954 215.49" stroke="#9C9C9C" stroke-linecap="round" stroke-linejoin="round"/>
<path d="M228.382 166.021L198.012 169.173" stroke="#9C9C9C" stroke-linecap="round" stroke-linejoin="round"/>
<path d="M229.166 173.612L198.796 176.764" stroke="#9C9C9C" stroke-linecap="round" stroke-linejoin="round"/>
<path d="M76.8564 132.991C77.6549 133.109 78.6307 133.346 79.7101 133.731" stroke="#1A1757" stroke-linecap="round" stroke-linejoin="round"/>
<path d="M84.9883 136.291C93.2092 141.441 102.199 152.806 95.1314 172.635C88.9509 189.979 93.0762 215.106 111.337 221.41C137.789 230.54 167.538 208.521 164.935 178.318C160.751 129.632 172.816 113.517 194.744 116.92C216.656 120.324 221.284 144.208 199.401 154.138C180.135 162.883 176.72 193.959 199.401 194.655C205.907 194.862 211.762 193.471 215.769 192.154" stroke="#1A1757" stroke-linecap="round" stroke-linejoin="round"/>
<path d="M218.564 191.162C220.28 190.482 221.27 189.979 221.27 189.979" stroke="#1A1757" stroke-linecap="round" stroke-linejoin="round"/>
<path d="M226.505 133.78L195.855 136.955L196.481 143.005L227.131 139.829L226.505 133.78Z" fill="#0EA7AF" stroke="#1A1757" stroke-miterlimit="10"/>
<path d="M106.151 195.096L83.458 197.447L84.0107 202.79L106.704 200.439L106.151 195.096Z" fill="#D82329" stroke="#1A1757" stroke-miterlimit="10"/>
<path d="M110.422 147.582L87.7285 149.933L88.3558 155.997L111.049 153.646L110.422 147.582Z" fill="#D82329" stroke="#1A1757" stroke-miterlimit="10"/>
<path d="M133.146 225.45C135.375 225.45 137.182 223.641 137.182 221.41C137.182 219.179 135.375 217.37 133.146 217.37C130.917 217.37 129.109 219.179 129.109 221.41C129.109 223.641 130.917 225.45 133.146 225.45Z" fill="#1A1757" stroke="#1A1757" stroke-miterlimit="10"/>
<path d="M365.196 170.548L319.966 233.574L312.484 229.12L355.792 164.082C357.345 161.699 360.42 160.826 362.993 162.04C366.231 163.564 367.281 167.633 365.211 170.534L365.196 170.548Z" stroke="#1A1757" stroke-linecap="round" stroke-linejoin="round"/>
<path d="M319.966 233.574L311.257 239.36C310.799 239.671 310.208 239.256 310.326 238.709L312.485 229.105" stroke="#1A1757" stroke-linecap="round" stroke-linejoin="round"/>
<path d="M313.667 237.761L311.006 235.69" stroke="#1A1757" stroke-linecap="round" stroke-linejoin="round"/>
<path d="M359.992 177.8C359.992 177.8 356.295 172.561 351.017 171.244" stroke="#1A1757" stroke-linecap="round" stroke-linejoin="round"/>
</g>
<defs>
<clipPath id="clip0_33_4918">
<rect width="367" height="276" fill="white"/>
</clipPath>
</defs>
</svg>
