<svg width="354" height="319" viewBox="0 0 354 319" fill="none" xmlns="http://www.w3.org/2000/svg">
<g clip-path="url(#clip0_1062_871)">
<path d="M171.236 127.806C164.588 128.1 157.939 127.365 151.291 125.453C149.222 124.865 147.006 124.129 144.937 123.247C142.721 122.364 140.505 121.335 138.437 120.158C124.992 112.952 115.093 101.627 109.626 88.3906C104.159 75.154 103.125 60.1527 107.558 45.7396C115.388 34.2679 123.957 40.445 126.469 46.622C128.094 50.593 127.356 55.0051 126.174 58.9761C124.992 63.0941 123.514 67.0651 123.514 71.3302C123.662 75.5953 125.73 80.1545 129.867 81.4782C131.64 82.0664 133.709 81.9194 135.629 82.0664C146.267 82.5077 156.166 90.3025 158.973 100.451C159.86 103.539 160.155 106.775 161.042 109.863C162.076 112.952 163.997 115.893 166.952 116.923C168.134 117.364 169.463 117.511 170.498 117.952C173.6 119.276 173.748 124.57 171.236 127.806Z" fill="#DCE2E2"/>
<path d="M198.864 72.5067C199.16 75.0069 199.751 77.3601 200.49 79.5662C200.046 79.7132 199.603 79.7132 199.16 80.0074C195.762 81.184 193.545 84.4196 191.329 87.2139C187.931 91.6261 184.09 95.5971 179.805 99.2739C178.18 100.598 175.373 101.627 174.634 99.7151C174.338 98.8327 174.782 97.9502 175.077 97.0678C176.85 91.7732 174.043 86.0374 174.338 80.4486C174.486 76.4777 176.259 72.6538 176.259 68.6828C176.259 62.7999 172.713 57.5053 169.906 52.2107C167.099 46.9161 165.326 40.2978 168.576 35.2974C172.566 29.2674 179.953 29.2674 186.306 29.2674C187.045 29.2674 187.783 29.2674 188.522 28.9733C189.704 28.5321 190.295 27.3555 190.591 26.1789C191.034 23.9728 190.295 21.4726 188.67 19.7077C187.192 18.237 185.124 17.5016 183.203 16.6192C179.657 15.0014 175.964 13.0895 173.009 10.4422C169.906 7.64778 169.167 5.14755 171.975 0.882446C176.555 1.17659 181.135 1.76488 185.715 3.08853C188.079 3.67682 190.295 4.41218 192.511 5.29462C194.58 6.17705 196.648 7.05949 198.569 8.08899C210.536 14.266 219.697 23.9728 225.606 35.2974C208.616 38.9742 196.944 55.0051 198.864 72.5067Z" fill="#DCE2E2"/>
<path d="M309.97 216.049C309.674 215.755 309.231 215.608 308.64 215.461C305.685 214.873 303.764 219.726 301.844 218.991C300.218 218.402 297.411 196.195 298.445 190.017C290.615 186.929 261.213 187.076 250.132 190.312C250.871 195.606 252.201 222.373 247.621 217.52C245.7 215.461 243.041 214.284 240.233 217.226C238.904 206.49 238.461 196.636 240.381 185.899C243.484 168.104 271.703 165.309 286.035 167.662C295.047 169.133 302.435 173.545 306.572 182.517C311.299 192.518 311.299 205.607 309.97 216.049Z" fill="#1A1757"/>
<path d="M260.328 266.936C263.283 272.378 270.227 282.673 275.398 282.232C270.818 286.497 266.829 291.497 259.294 299.145C254.861 286.056 249.395 267.966 249.395 267.966L260.328 261.642V266.936Z" fill="#D62129"/>
<path d="M293.423 266.936C290.764 272.525 280.57 282.232 275.398 282.232C280.274 286.056 283.82 290.468 291.503 299.145C294.901 290.762 304.357 268.113 304.357 268.113L293.423 261.789V266.936Z" fill="#D62129"/>
<path d="M194.58 167.516C205.957 169.133 211.275 185.311 209.798 195.165C208.173 206.196 207.286 217.373 205.809 228.551C204.479 238.257 202.115 249.141 191.034 250.464C182.022 251.494 173.009 252.082 164.144 250.17C153.211 247.67 151.586 238.846 151.143 227.374C150.7 215.902 148.483 204.284 148.04 192.812C147.301 176.046 157.939 168.104 173.896 165.456C180.84 164.28 188.079 164.868 194.58 167.516C194.285 172.369 194.137 178.546 193.841 183.399C183.942 191.635 169.168 189.135 157.2 193.694C155.575 194.283 153.802 195.165 152.768 196.636C151.438 198.548 151.734 201.195 151.882 203.548C152.768 210.902 153.654 218.255 154.541 225.462C155.427 233.404 166.508 231.345 172.418 230.904C178.771 230.462 185.272 231.051 191.773 230.904C205.218 230.61 202.115 226.933 203.888 215.314C204.922 208.843 205.366 205.607 204.775 196.636C204.479 192.812 197.387 191.194 193.841 183.399" fill="#1A1757"/>
<path d="M160.748 249.141C163.998 254.582 172.42 266.789 178.034 266.348C173.158 270.613 152.77 285.762 152.77 285.762L150.258 249.141L156.02 245.758" fill="#0EA7AF"/>
<path d="M196.356 248.846C193.549 254.435 183.65 266.348 178.184 266.201C183.355 270.025 205.221 285.467 205.221 285.467L206.255 248.846L200.05 245.758" fill="#0EA7AF"/>
<path d="M103.274 233.845C103.717 244.434 104.161 260.906 103.274 271.643C99.7282 270.025 96.9211 269.584 96.9211 269.584V267.819L86.8743 260.759L86.7266 253.7C93.5229 249.141 97.0688 240.316 98.103 233.698C100.024 234.58 101.797 234.433 103.274 233.845Z" fill="#1A1757"/>
<path d="M55.1101 253.553C55.1101 253.553 55.9966 256.936 55.2579 260.759C50.9732 263.701 44.4724 268.26 44.4724 268.26V270.466C44.4724 270.466 39.449 270.466 33.5392 273.555C30.141 264.583 30.141 250.317 30.2888 239.434C30.4365 232.08 30.732 225.021 30.732 217.667C30.5843 210.166 30.732 202.813 31.7662 195.459C32.6527 188.694 34.2779 176.193 42.1085 173.545C43.8814 171.486 45.5066 170.457 48.0183 169.575C73.1352 161.044 108.89 167.663 103.866 218.55C102.093 219.285 100.173 221.05 98.843 223.844C99.1385 216.785 99.5818 210.461 98.3998 203.548C97.6611 198.695 94.1151 194.577 89.9783 193.253C78.6018 189.723 62.202 194.136 48.3138 187.959C48.3138 194.283 47.1318 200.166 45.6544 206.048C44.9156 208.843 42.9949 219.138 44.0292 223.109C39.5968 215.314 28.6636 218.403 34.7212 229.139C36.6419 232.521 41.3697 234.875 44.0292 234.433C45.6544 241.64 49.7913 248.994 55.1101 253.553Z" fill="#1A1757"/>
<path d="M55.1104 254.435C55.4059 258.259 55.7014 263.26 55.5536 266.936C58.5085 272.378 65.4526 282.673 70.6237 282.232C66.0436 286.497 46.9843 303.41 46.9843 303.41L44.4727 268.26L55.2581 260.759" fill="#D62129"/>
<path d="M86.7293 253.553C86.7293 258.406 86.7293 261.789 86.7293 266.789C84.0699 272.378 75.7961 282.379 70.625 282.232C75.5006 286.056 95.7419 301.498 95.7419 301.498L96.9238 267.819L86.8771 260.759" fill="#D62129"/>
<path d="M79.1906 257.083C70.3258 259.436 60.4268 258.259 54.0737 252.67C48.7549 248.111 45.7999 241.64 43.8792 234.433C41.3676 234.875 36.4919 232.374 34.5712 229.139C28.5136 218.402 39.4469 215.461 43.8792 223.109C42.845 218.991 44.7657 208.843 45.5044 206.048C47.1297 200.166 48.1639 194.136 48.1639 187.958C62.052 194.136 78.4519 189.723 89.8283 193.253C93.9652 194.577 97.5111 198.695 98.2498 203.548C99.2841 210.461 98.9886 216.785 98.6931 223.844C102.091 216.491 109.183 216.049 108.74 224.432C108.444 229.874 103.864 236.787 98.2498 233.698C97.2156 240.316 94.5562 245.317 90.7148 250.17C87.7599 253.553 83.623 255.759 79.1906 257.083Z" stroke="#1A1757" stroke-miterlimit="10" stroke-linecap="round" stroke-linejoin="round"/>
<path d="M48.3124 187.811C45.5052 184.282 44.0277 180.311 42.5503 175.752C41.9593 173.545 42.4025 171.192 47.8691 169.427C72.986 160.897 108.741 167.515 103.717 218.403" stroke="#1A1757" stroke-miterlimit="10" stroke-linecap="round" stroke-linejoin="round"/>
<path d="M41.9581 173.398C34.1276 176.046 32.6501 188.547 31.6159 195.312C30.5817 202.666 30.5817 210.167 30.5817 217.52C30.7294 224.874 30.2862 231.933 30.1384 239.287C29.8429 250.17 29.5474 262.966 33.3888 273.408" stroke="#1A1757" stroke-miterlimit="10" stroke-linecap="round" stroke-linejoin="round"/>
<path d="M66.188 224.58C61.0168 224.58 55.5502 224.874 49.0494 224.432C49.0494 221.197 48.7539 218.697 48.7539 215.461C54.516 215.461 59.3916 215.314 66.0402 215.755C66.188 218.402 66.188 221.344 66.188 224.58Z" stroke="#1A1757" stroke-miterlimit="10" stroke-linecap="round" stroke-linejoin="round"/>
<path d="M92.6383 224.58C87.3195 224.58 81.7051 224.874 74.9088 224.432C74.9088 221.197 74.6133 218.697 74.6133 215.461C80.6709 215.461 85.5465 215.314 92.4906 215.755C92.6383 218.402 92.6383 221.344 92.6383 224.58Z" stroke="#1A1757" stroke-miterlimit="10" stroke-linecap="round" stroke-linejoin="round"/>
<path d="M66.1914 220.168C69.2941 220.168 72.5445 220.02 74.7607 220.168" stroke="#1A1757" stroke-miterlimit="10" stroke-linecap="round" stroke-linejoin="round"/>
<path d="M55.1104 254.435C55.4059 258.259 55.7014 263.26 55.5536 266.936C58.5085 272.378 65.4526 282.673 70.6237 282.232C66.0436 286.497 46.9843 303.41 46.9843 303.41L44.4727 268.26L55.2581 260.759" stroke="#1A1757" stroke-miterlimit="10" stroke-linecap="round" stroke-linejoin="round"/>
<path d="M86.7254 253.553C86.7254 258.406 86.7254 261.789 86.7254 266.789C84.066 272.378 75.7922 282.379 70.6211 282.232C75.4967 286.056 95.738 301.498 95.738 301.498L96.9199 267.819L86.8732 260.759" stroke="#1A1757" stroke-miterlimit="10" stroke-linecap="round" stroke-linejoin="round"/>
<path d="M96.9211 318.265H0.738281C0.738281 286.938 32.6515 271.643 43.5847 270.319" stroke="#1A1757" stroke-miterlimit="10" stroke-linecap="round" stroke-linejoin="round"/>
<path d="M96.7734 269.437C106.82 271.496 140.063 288.556 140.063 318.265H106.968" stroke="#1A1757" stroke-miterlimit="10" stroke-linecap="round" stroke-linejoin="round"/>
<path d="M70.4727 283.409C70.4727 293.851 70.6204 309.146 70.4727 318.265" stroke="#1A1757" stroke-miterlimit="10" stroke-linecap="round" stroke-linejoin="round"/>
<path d="M103.273 233.698C103.717 244.287 104.603 264.877 103.273 271.496" stroke="#1A1757" stroke-miterlimit="10" stroke-linecap="round" stroke-linejoin="round"/>
<path d="M43.2891 228.698C43.2891 230.757 43.2891 233.257 44.3233 236.198" stroke="#1A1757" stroke-miterlimit="10" stroke-linecap="round" stroke-linejoin="round"/>
<path d="M98.6958 227.521C98.6958 229.874 98.4003 232.816 97.957 234.58" stroke="#1A1757" stroke-miterlimit="10" stroke-linecap="round" stroke-linejoin="round"/>
<path d="M283.082 253.259C274.66 255.465 265.057 254.288 258.999 248.847C253.976 244.287 251.169 238.11 249.396 230.904C247.032 231.345 242.304 228.845 240.531 225.609C239.349 223.256 238.167 219.432 240.235 217.373C243.19 214.432 245.702 215.608 247.623 217.667C252.203 222.374 250.873 195.753 250.134 190.459C261.068 187.076 290.617 187.076 298.447 190.165C297.266 196.195 300.22 218.55 301.846 218.991C303.619 219.579 305.687 214.873 308.642 215.461C311.449 216.049 311.745 219.285 311.597 221.491C311.154 226.786 306.869 233.551 301.402 230.61C300.368 237.081 297.857 241.934 294.015 246.64C291.208 249.876 287.367 252.229 283.082 253.259Z" stroke="#1A1757" stroke-miterlimit="10" stroke-linecap="round" stroke-linejoin="round"/>
<path d="M260.475 250.17C260.771 253.994 260.475 263.113 260.328 266.936C263.283 272.378 270.227 282.673 275.398 282.232C270.818 286.497 266.829 291.497 259.294 299.145C254.861 286.056 249.395 267.966 249.395 267.966L260.328 261.642" stroke="#1A1757" stroke-miterlimit="10" stroke-linecap="round" stroke-linejoin="round"/>
<path d="M292.832 247.817C293.128 255.906 293.423 262.083 293.423 266.936C290.764 272.525 280.57 282.232 275.398 282.232C280.274 286.056 283.82 290.468 291.503 299.145C294.901 290.762 304.357 268.113 304.357 268.113L293.423 261.789" stroke="#1A1757" stroke-miterlimit="10" stroke-linecap="round" stroke-linejoin="round"/>
<path d="M234.916 318.265H200.344C200.344 286.938 239.053 271.79 250.282 270.172" stroke="#1A1757" stroke-miterlimit="10" stroke-linecap="round" stroke-linejoin="round"/>
<path d="M303.469 270.172C313.516 272.231 353.26 288.556 353.26 318.265H251.02" stroke="#1A1757" stroke-miterlimit="10" stroke-linecap="round" stroke-linejoin="round"/>
<path d="M275.25 283.408C275.25 293.851 275.398 309.146 275.25 318.265" stroke="#1A1757" stroke-miterlimit="10" stroke-linecap="round" stroke-linejoin="round"/>
<path d="M240.236 217.373C238.759 206.637 238.463 196.783 240.384 186.047C243.487 168.251 271.706 165.456 286.038 167.663C295.05 169.133 302.437 173.545 306.574 182.517C311.154 192.371 311.302 205.46 309.825 215.902" stroke="#1A1757" stroke-miterlimit="10" stroke-linecap="round" stroke-linejoin="round"/>
<path d="M248.359 224.138C248.359 226.197 248.95 229.727 249.689 232.521" stroke="#1A1757" stroke-miterlimit="10" stroke-linecap="round" stroke-linejoin="round"/>
<path d="M301.847 224.58C301.847 226.639 301.551 230.168 300.812 232.963" stroke="#1A1757" stroke-miterlimit="10" stroke-linecap="round" stroke-linejoin="round"/>
<path d="M160.748 249.141C163.998 254.582 172.42 266.789 178.034 266.348C173.158 270.613 152.77 285.762 152.77 285.762L150.258 249.141L156.02 245.758" stroke="#1A1757" stroke-miterlimit="10" stroke-linecap="round" stroke-linejoin="round"/>
<path d="M196.352 248.847C193.545 254.435 183.646 266.348 178.18 266.201C183.351 270.025 205.217 285.468 205.217 285.468L206.251 248.847L200.046 245.758" stroke="#1A1757" stroke-miterlimit="10" stroke-linecap="round" stroke-linejoin="round"/>
<path d="M194.58 167.516C205.957 169.133 211.275 185.311 209.798 195.165C208.173 206.196 207.286 217.373 205.809 228.551C204.479 238.257 202.115 249.141 191.034 250.464C182.022 251.494 173.009 252.082 164.144 250.17C153.211 247.67 151.586 238.846 151.143 227.374C150.7 215.902 148.483 204.284 148.04 192.812C147.301 176.046 157.939 168.104 173.896 165.456C180.84 164.28 188.079 164.868 194.58 167.516ZM194.58 167.516C194.285 172.369 194.137 178.546 193.841 183.399M193.841 183.399C183.942 191.635 169.168 189.135 157.2 193.694C155.575 194.283 153.802 195.165 152.768 196.636C151.438 198.548 151.734 201.195 151.882 203.548C152.768 210.902 153.654 218.255 154.541 225.462C155.427 233.404 166.508 231.345 172.418 230.904C178.771 230.462 185.272 231.051 191.773 230.904C205.218 230.61 202.115 226.933 203.888 215.314C204.922 208.843 205.366 205.607 204.775 196.636C204.479 192.812 197.387 191.194 193.841 183.399Z" stroke="#1A1757" stroke-miterlimit="10" stroke-linecap="round" stroke-linejoin="round"/>
<path d="M148.633 206.637C146.713 204.136 143.315 205.607 142.576 208.254C141.394 212.814 144.497 220.903 150.702 220.903" stroke="#1A1757" stroke-miterlimit="10" stroke-linecap="round" stroke-linejoin="round"/>
<path d="M208.469 206.637C210.39 204.137 214.379 205.46 215.118 208.255C216.3 212.814 212.31 222.079 206.844 220.903" stroke="#1A1757" stroke-miterlimit="10" stroke-linecap="round" stroke-linejoin="round"/>
<path d="M178.035 266.348C178.035 276.643 178.035 313.705 178.035 313.705" stroke="#1A1757" stroke-miterlimit="10" stroke-linecap="round" stroke-linejoin="round"/>
<path d="M139.766 313.705H178.032H200.489" stroke="#1A1757" stroke-miterlimit="10" stroke-linecap="round" stroke-linejoin="round"/>
<path d="M206.105 250.758C209.947 251.641 234.916 259.73 244.667 271.496" stroke="#1A1757" stroke-miterlimit="10" stroke-linecap="round" stroke-linejoin="round"/>
<path d="M110.957 275.467C118.197 261.054 145.973 252.376 150.11 251.494" stroke="#1A1757" stroke-miterlimit="10" stroke-linecap="round" stroke-linejoin="round"/>
<path d="M210.244 112.51C205.517 116.481 200.345 119.864 194.731 122.364C181.434 128.247 166.068 129.718 151.294 125.453C149.225 124.865 147.009 124.129 144.941 123.247C142.724 122.364 140.508 121.335 138.44 120.158C124.995 112.952 115.096 101.627 109.629 88.3906C104.31 75.4482 103.276 60.888 107.413 46.622C107.709 45.4454 108.152 44.2688 108.595 43.0923C108.891 42.2098 109.186 41.3274 109.482 40.592C115.391 25.8848 126.177 14.5602 139.474 7.79489C153.362 0.588343 169.762 -1.47067 185.719 2.9415C187.935 3.52979 190.299 4.26515 192.515 5.14759C194.583 6.03002 196.652 6.91246 198.573 7.94196C210.54 14.119 219.7 23.8258 225.61 35.1504" stroke="#1A1757" stroke-miterlimit="10" stroke-linecap="round" stroke-linejoin="round"/>
<path d="M107.41 46.769C116.423 33.0913 123.81 39.8566 126.617 46.769C128.242 50.7399 127.504 55.1521 126.322 59.1231C125.14 63.094 123.662 67.2121 123.662 71.4772C123.662 75.7423 125.878 80.3015 129.868 81.4781C131.788 82.0664 133.709 81.9193 135.63 82.0664C146.267 82.5076 156.166 90.3024 158.974 100.45C159.86 103.539 160.156 106.775 161.042 109.863C162.076 112.952 163.997 115.893 166.952 116.923C168.134 117.364 169.464 117.511 170.498 117.952C174.191 119.57 174.635 125.453 171.384 127.806" stroke="#1A1757" stroke-miterlimit="10" stroke-linecap="round" stroke-linejoin="round"/>
<path d="M171.83 0.882446C169.023 5.14755 169.762 7.64778 172.864 10.4422C175.819 13.0895 179.365 15.0014 183.059 16.6192C184.979 17.5016 187.048 18.237 188.525 19.7077C190.151 21.3255 190.889 23.8257 190.446 26.1789C190.151 27.3555 189.56 28.5321 188.378 28.9733C187.639 29.2674 186.9 29.2674 186.161 29.2674C179.808 29.2674 172.421 29.4145 168.432 35.2974C165.181 40.2978 166.954 46.9161 169.762 52.2107C172.569 57.5053 176.115 62.7999 176.115 68.6828C176.115 72.6538 174.342 76.4777 174.194 80.3015C173.898 85.8903 176.706 91.6261 174.933 96.9207C174.637 97.8032 174.194 98.6856 174.489 99.568C175.228 101.48 178.183 100.45 179.661 99.1268C183.945 95.5971 187.787 91.479 191.185 87.0669C193.401 84.2725 195.617 81.0369 199.015 79.8603C199.459 79.7133 199.902 79.5662 200.493 79.4191" stroke="#1A1757" stroke-miterlimit="10" stroke-linecap="round" stroke-linejoin="round"/>
<path d="M32.7678 89.3692L23.9922 98.1047L32.7678 106.84L41.5434 98.1047L32.7678 89.3692Z" fill="#1A1757"/>
<path d="M309.406 119.019L298.332 130.042L309.406 141.065L320.48 130.042L309.406 119.019Z" fill="#0EA7AF"/>
<path d="M214.088 97.2148L206.109 128.688L219.998 118.982L226.794 132.806L234.477 102.951" stroke="#1A1757" stroke-miterlimit="10"/>
<path d="M262.545 86.3315L279.388 117.658L263.579 111.481L260.181 126.629L246.293 100.303" stroke="#1A1757" stroke-miterlimit="10"/>
<path d="M229.304 34.562C210.392 36.621 196.8 53.5343 198.868 72.3596C200.937 91.1849 217.927 104.716 236.839 102.657C255.75 100.598 269.343 83.6842 267.275 64.8589C265.206 46.0337 248.215 32.503 229.304 34.562ZM236.248 96.6266C220.735 98.3914 206.699 87.2139 205.073 71.7713C203.301 56.3287 214.529 42.3568 230.043 40.739C245.556 38.9742 259.592 50.1517 261.217 65.5943C262.99 81.0369 251.761 94.8617 236.248 96.6266Z" stroke="#1A1757" stroke-miterlimit="10" stroke-linecap="round" stroke-linejoin="round"/>
<path d="M261.303 70.0421C262.085 54.5481 250.102 41.3561 234.537 40.5769C218.972 39.7977 205.72 51.7264 204.937 67.2203C204.154 82.7143 216.137 95.9063 231.702 96.6855C247.267 97.4647 260.52 85.536 261.303 70.0421Z" stroke="#1A1757" stroke-miterlimit="10" stroke-linecap="round" stroke-linejoin="round"/>
<path d="M231.372 52.5049L236.691 61.9175C236.987 62.3587 237.43 62.5058 237.873 62.5058L248.511 60.4468C249.545 60.2997 250.284 61.4763 249.545 62.3587L242.306 70.3006C242.01 70.5948 241.862 71.1831 242.158 71.6243L247.477 81.0369C248.068 82.0664 247.034 83.0959 245.999 82.6547L236.248 78.2425C235.805 78.0955 235.214 78.0955 234.918 78.5367L227.679 86.4786C226.94 87.361 225.61 86.6257 225.758 85.5962L226.94 74.8599C226.94 74.4187 226.792 73.8304 226.349 73.6833L216.598 69.2711C215.564 68.8299 215.711 67.3592 216.893 67.065L227.531 65.006C227.974 64.859 228.418 64.5648 228.418 63.9765L229.6 53.2402C229.304 51.7695 230.782 51.4754 231.372 52.5049Z" fill="#0EA7AF" stroke="#1A1757" stroke-miterlimit="10" stroke-linecap="round" stroke-linejoin="round"/>
<path d="M92.6746 126.056L86.8242 131.88L92.6746 137.704L98.525 131.88L92.6746 126.056Z" fill="#1A1757"/>
<path d="M293.425 35.2862L287.574 41.1099L293.425 46.9336L299.275 41.1099L293.425 35.2862Z" fill="#1A1757"/>
<path d="M67.2879 58.1129L61.4375 63.9366L67.2879 69.7604L73.1383 63.9366L67.2879 58.1129Z" fill="#0EA7AF"/>
</g>
<defs>
<clipPath id="clip0_1062_871">
<rect width="354" height="319" fill="white"/>
</clipPath>
</defs>
</svg>
