<svg width="321" height="291" viewBox="0 0 321 291" fill="none" xmlns="http://www.w3.org/2000/svg">
<g clip-path="url(#clip0_33_5111)">
<path d="M155.333 116.616C149.331 116.848 143.221 116.167 137.204 114.448C135.271 113.906 133.384 113.255 131.481 112.497C129.424 111.676 127.428 110.747 125.541 109.693C113.414 103.189 104.396 92.7817 99.4459 80.6864C94.5115 68.6685 93.5989 54.978 97.6361 41.8141C104.705 31.3449 112.517 37.0441 114.775 42.6504C116.214 46.2124 115.549 50.27 114.512 53.9714C113.476 57.6727 112.084 61.3586 112.145 65.1994C112.223 69.0557 114.187 73.1907 117.838 74.3832C119.508 74.9407 121.334 74.8013 123.097 74.8788C132.688 75.235 141.659 82.3435 144.211 91.6202C144.985 94.4388 145.217 97.3813 146.114 100.169C147.011 102.941 148.79 105.667 151.528 106.658C152.595 107.045 153.74 107.154 154.776 107.618C157.375 108.795 157.607 113.643 155.333 116.616Z" fill="#D82329"/>
<path d="M180.346 66.1446C180.593 68.4057 181.088 70.5739 181.784 72.6336C181.351 72.7111 180.934 72.8195 180.516 72.9743C177.422 74.0894 175.411 76.97 173.401 79.5718C170.322 83.5674 166.826 87.2533 162.99 90.5211C161.567 91.7445 158.922 92.6428 158.257 90.8928C157.963 90.1184 158.35 89.2666 158.613 88.4768C160.268 83.6758 157.731 78.4722 157.948 73.3925C158.087 69.784 159.634 66.3304 159.665 62.722C159.726 57.3015 156.432 52.5161 153.941 47.6996C151.451 42.8832 149.749 36.7813 152.766 32.2746C156.385 26.8387 163.083 26.7613 168.791 26.7458C169.472 26.7458 170.168 26.7303 170.771 26.467C171.776 26.0179 172.38 24.9338 172.627 23.8652C173.076 21.8054 172.426 19.5134 170.941 18.0111C169.595 16.6637 167.739 15.9823 166.007 15.1925C162.743 13.6748 159.51 11.9247 156.834 9.50877C154.019 6.9844 153.354 4.73879 155.89 0.851562C160.02 1.06838 164.166 1.71883 168.281 2.86487H168.296C170.384 3.4224 172.457 4.11931 174.483 4.94012C176.37 5.69898 178.196 6.53528 179.944 7.47998H179.975C190.772 13.1637 199.171 21.9448 204.43 32.2591C189.147 35.6972 178.567 50.193 180.346 66.1446Z" fill="#D82329"/>
<path d="M280.999 197.009C280.674 196.746 280.272 196.56 279.792 196.467C277.162 195.91 275.322 200.308 273.698 199.72C272.274 199.193 269.645 178.89 270.65 173.376C263.519 170.589 236.852 170.666 226.89 173.686C227.555 178.533 228.731 202.848 224.632 198.496C222.884 196.653 220.548 195.538 217.872 198.248C216.604 188.476 216.248 179.525 217.965 169.69C220.796 153.46 246.38 150.905 259.389 153.011C267.618 154.327 274.208 158.354 278.029 166.608C282.174 175.575 282.283 187.469 280.999 197.009Z" fill="#1A1757"/>
<path d="M236.032 243.393C238.769 248.318 244.972 257.734 249.675 257.3C245.591 261.172 241.91 265.787 235.042 272.663C230.989 260.676 226.132 244.229 226.132 244.229L236.047 238.515V243.393H236.032Z" fill="#DCE2E2"/>
<path d="M266.057 243.392C263.705 248.519 254.378 257.362 249.66 257.3C254.038 260.831 257.348 264.78 264.262 272.663C267.279 265.074 275.941 244.383 275.941 244.383L266.057 238.653V243.392Z" fill="#DCE2E2"/>
<path d="M176.432 152.857C186.765 154.374 191.499 169.118 190.23 178.038C188.807 188.058 187.956 198.326 186.61 208.455C185.435 217.267 183.254 227.256 173.168 228.448C165.032 229.409 156.818 229.951 148.837 228.154C138.875 225.924 137.498 217.824 137.081 207.433C136.663 196.917 134.714 186.417 134.296 175.901C133.693 160.554 143.299 153.352 157.685 150.952C163.965 149.899 170.585 150.348 176.432 152.857C176.2 157.317 175.999 162.923 175.783 167.383C166.857 174.817 153.477 172.649 142.603 176.753C141.087 177.326 139.54 178.069 138.628 179.401C137.421 181.167 137.622 183.521 137.885 185.642C138.674 192.317 139.463 199.008 140.267 205.683C141.118 212.853 151.049 211.103 156.401 210.685C162.217 210.236 168.048 210.778 173.88 210.638C186.023 210.344 183.285 207.061 184.909 196.499C185.822 190.567 186.224 187.687 185.651 179.448C185.419 176.01 178.969 174.492 175.783 167.383" fill="#1A1757"/>
<path d="M145.851 227.194C148.79 232.119 156.447 243.254 161.49 242.82C157.097 246.692 138.566 260.537 138.566 260.537L136.292 227.194L141.551 224.174" fill="#DCE2E2"/>
<path d="M177.995 226.946C175.474 232.072 166.533 242.898 161.475 242.836C166.177 246.367 185.93 260.383 185.93 260.383L186.874 226.962L181.305 224.205" fill="#DCE2E2"/>
<path d="M93.6759 213.194C94.0935 222.889 94.4493 237.911 93.6604 247.652C90.4584 246.166 87.8597 245.716 87.8597 245.716L87.9216 244.09L78.8417 237.617L78.7334 231.19C84.8589 227.055 88.1382 219.001 89.0353 213.023C90.7369 213.937 92.2992 213.86 93.6759 213.194Z" fill="#1A1757"/>
<path d="M49.9934 231.19C49.9934 231.19 50.7823 234.287 50.1791 237.725C46.312 240.42 40.403 244.509 40.403 244.509V246.537C40.403 246.537 35.8708 246.599 30.4723 249.325C27.4251 241.163 27.3322 228.201 27.5333 218.274C27.6725 211.63 27.9819 205.141 27.9046 198.481C27.8118 191.698 27.8736 184.899 28.8017 178.178C29.6525 171.999 31.0292 160.6 38.1292 158.169C39.676 156.264 41.1455 155.288 43.4658 154.498C66.2352 146.708 98.626 152.702 94.0165 199.194V199.225C92.4078 199.829 90.7062 201.486 89.5306 204.057C89.7781 197.676 90.1339 191.868 89.1749 185.581C88.4943 181.136 85.3078 177.357 81.5335 176.149C71.2315 172.866 56.4283 176.908 43.837 171.302C43.837 177.001 42.8316 182.421 41.3621 187.842C40.666 190.413 38.9645 199.72 39.8616 203.437C35.8553 196.375 25.9556 199.163 31.4314 208.889C33.1484 211.924 37.5104 214.154 39.8152 213.752C41.5322 220.38 45.2292 227.039 49.9934 231.19Z" fill="#1A1757"/>
<path d="M50.102 231.964C50.4268 235.386 50.5815 239.955 50.4578 243.393C53.1957 248.318 59.3985 257.734 64.1009 257.301C60.0172 261.172 42.7236 276.566 42.7236 276.566L40.4033 244.508L50.1793 237.725" fill="#DCE2E2"/>
<path d="M78.7337 231.189V243.207C76.3825 248.334 68.8184 257.362 64.1006 257.3C68.4781 260.831 86.901 274.847 86.901 274.847L87.9064 244.09L78.8265 237.632" fill="#DCE2E2"/>
<path d="M71.8047 234.365C63.8075 236.486 54.8049 235.449 48.9888 230.369C44.2245 226.218 41.533 220.364 39.816 213.736C37.5267 214.139 33.1492 211.908 31.4476 208.873C25.9718 199.147 35.8716 196.36 39.8779 203.422C38.9653 199.705 40.6823 190.397 41.3783 187.826C42.8478 182.406 43.8533 176.985 43.8533 171.286C56.4446 176.892 71.2478 172.85 81.5497 176.134C85.324 177.342 88.5105 181.12 89.1911 185.565C90.1502 191.853 89.7944 197.66 89.5469 204.041C92.5942 197.382 99.1218 196.917 98.6114 204.521C98.2865 209.461 94.2338 215.78 89.0519 213.008C88.1702 219.001 85.7726 223.555 82.184 227.984C79.5853 231.19 75.9038 233.28 71.8201 234.365H71.8047Z" stroke="#1A1757" stroke-linecap="round" stroke-linejoin="round"/>
<path d="M43.837 171.302C41.362 168.111 39.8925 164.441 38.655 160.275C38.0518 158.246 38.5777 156.155 43.4502 154.483C66.2197 146.693 98.6105 152.686 94.0009 199.178" stroke="#1A1757" stroke-linecap="round" stroke-linejoin="round"/>
<path d="M38.1301 158.153C31.0455 160.585 29.6534 171.983 28.8026 178.162C27.8745 184.884 27.8127 191.683 27.9055 198.466C27.9983 205.249 27.6889 211.614 27.5497 218.258C27.3486 228.185 27.0238 239.816 30.4887 249.31" stroke="#1A1757" stroke-linecap="round" stroke-linejoin="round"/>
<path d="M60.0943 204.861C55.4229 204.861 50.5039 205.171 44.6105 204.769C44.6105 201.811 44.332 199.488 44.332 196.53C49.6068 196.53 53.9534 196.359 60.0015 196.746C60.0943 199.116 60.1253 201.811 60.0943 204.877V204.861Z" stroke="#1A1757" stroke-linecap="round" stroke-linejoin="round"/>
<path d="M84.0088 204.861C79.1826 204.861 74.0935 205.171 67.999 204.769C67.999 201.811 67.7051 199.488 67.7051 196.53C73.15 196.53 77.6667 196.359 83.9005 196.746C83.9933 199.116 84.0397 201.811 83.9933 204.877L84.0088 204.861Z" stroke="#1A1757" stroke-linecap="round" stroke-linejoin="round"/>
<path d="M60.1104 200.742C62.8947 200.711 65.8027 200.587 67.8755 200.742" stroke="#1A1757" stroke-linecap="round" stroke-linejoin="round"/>
<path d="M50.102 231.964C50.4268 235.387 50.5815 239.955 50.4578 243.393C53.1957 248.318 59.3985 257.734 64.1009 257.301C60.0172 261.172 42.7236 276.566 42.7236 276.566L40.4033 244.508L50.1793 237.725" stroke="#1A1757" stroke-linecap="round" stroke-linejoin="round"/>
<path d="M78.7337 231.189V243.207C76.3825 248.334 68.8184 257.362 64.1006 257.3C68.4781 260.831 86.901 274.847 86.901 274.847L87.9064 244.09L78.8265 237.632" stroke="#1A1757" stroke-linecap="round" stroke-linejoin="round"/>
<path d="M87.9223 290.226H0.773438C0.773438 261.606 29.6839 247.714 39.5682 246.537" stroke="#1A1757" stroke-linecap="round" stroke-linejoin="round"/>
<path d="M87.8604 245.717C97.0022 247.575 127.073 263.093 127.073 290.226H97.064" stroke="#1A1757" stroke-linecap="round" stroke-linejoin="round"/>
<path d="M63.9307 258.462C63.9307 267.971 64.1008 281.863 63.9307 290.226" stroke="#1A1757" stroke-linecap="round" stroke-linejoin="round"/>
<path d="M93.6766 213.179C94.0943 222.874 94.9295 241.597 93.6611 247.653" stroke="#1A1757" stroke-linecap="round" stroke-linejoin="round"/>
<path d="M39.3828 208.625C39.4447 210.483 39.3828 212.729 40.2954 215.47" stroke="#1A1757" stroke-linecap="round" stroke-linejoin="round"/>
<path d="M89.5006 207.433C89.5006 209.632 89.1912 212.311 88.8818 213.906" stroke="#1A1757" stroke-linecap="round" stroke-linejoin="round"/>
<path d="M256.59 230.988C248.917 233.017 240.301 231.949 234.764 226.946C230.231 222.858 227.679 217.112 226.07 210.608C223.874 210.995 219.698 208.78 218.089 205.807C216.96 203.731 215.908 200.231 217.872 198.234C220.548 195.539 222.884 196.638 224.632 198.497C228.747 202.849 227.555 178.534 226.89 173.687C236.852 170.667 263.519 170.589 270.666 173.377C269.66 178.89 272.29 199.194 273.713 199.72C275.337 200.309 277.163 195.91 279.808 196.468C282.298 196.995 282.561 199.937 282.422 201.935C282.082 206.767 278.168 212.931 273.218 210.189C272.336 216.044 270.016 220.504 266.567 224.809C264.061 227.922 260.519 229.966 256.605 231.004L256.59 230.988Z" stroke="#1A1757" stroke-linecap="round" stroke-linejoin="round"/>
<path d="M236.203 228.093C236.528 231.515 236.156 239.956 236.033 243.394C238.77 248.319 244.973 257.735 249.676 257.301C245.592 261.173 241.911 265.788 235.043 272.664C230.99 260.677 226.133 244.23 226.133 244.23L236.048 238.515" stroke="#1A1757" stroke-linecap="round" stroke-linejoin="round"/>
<path d="M265.5 225.971C265.716 233.312 266.057 238.933 266.057 243.394C263.705 248.52 254.378 257.363 249.66 257.301C254.038 260.832 257.348 264.781 264.262 272.664C267.279 265.075 275.941 244.385 275.941 244.385L266.057 238.655" stroke="#1A1757" stroke-linecap="round" stroke-linejoin="round"/>
<path d="M212.938 290.226H181.568C181.568 261.606 216.666 247.9 226.891 246.46" stroke="#1A1757" stroke-linecap="round" stroke-linejoin="round"/>
<path d="M275.121 246.32C284.263 248.179 320.227 263.093 320.227 290.226H227.556" stroke="#1A1757" stroke-linecap="round" stroke-linejoin="round"/>
<path d="M249.49 258.462C249.49 267.971 249.66 281.863 249.49 290.226" stroke="#1A1757" stroke-linecap="round" stroke-linejoin="round"/>
<path d="M217.873 198.234C216.605 188.477 216.249 179.51 217.966 169.691C220.797 153.445 246.381 150.905 259.39 152.996C267.619 154.313 274.209 158.355 278.03 166.594C282.175 175.561 282.299 187.47 281 196.995" stroke="#1A1757" stroke-linecap="round" stroke-linejoin="round"/>
<path d="M225.174 204.382C225.236 206.24 225.684 209.462 226.427 211.986" stroke="#1A1757" stroke-linecap="round" stroke-linejoin="round"/>
<path d="M273.682 204.8C273.698 206.658 273.404 209.895 272.785 212.45" stroke="#1A1757" stroke-linecap="round" stroke-linejoin="round"/>
<path d="M145.851 227.194C148.79 232.119 156.447 243.254 161.49 242.82C157.097 246.692 138.566 260.537 138.566 260.537L136.292 227.194L141.551 224.174" stroke="#1A1757" stroke-linecap="round" stroke-linejoin="round"/>
<path d="M177.995 226.946C175.474 232.072 166.533 242.898 161.475 242.836C166.177 246.367 185.93 260.383 185.93 260.383L186.874 226.962L181.305 224.205" stroke="#1A1757" stroke-linecap="round" stroke-linejoin="round"/>
<path d="M176.432 152.857C186.765 154.374 191.499 169.118 190.23 178.038C188.807 188.058 187.956 198.326 186.61 208.455C185.435 217.267 183.254 227.256 173.168 228.448C165.032 229.409 156.818 229.951 148.837 228.154C138.875 225.924 137.498 217.824 137.081 207.433C136.663 196.917 134.714 186.417 134.296 175.901C133.693 160.554 143.299 153.352 157.685 150.952C163.965 149.899 170.585 150.348 176.432 152.857ZM176.432 152.857C176.2 157.317 175.999 162.923 175.783 167.383M175.783 167.383C166.857 174.817 153.477 172.649 142.603 176.753C141.087 177.326 139.54 178.069 138.628 179.401C137.421 181.167 137.622 183.521 137.885 185.642C138.674 192.317 139.463 199.008 140.267 205.683C141.118 212.853 151.049 211.103 156.401 210.685C162.217 210.236 168.048 210.778 173.88 210.638C186.023 210.344 183.285 207.061 184.909 196.499C185.822 190.567 186.224 187.687 185.651 179.448C185.419 176.01 178.969 174.492 175.783 167.383Z" stroke="#1A1757" stroke-linecap="round" stroke-linejoin="round"/>
<path d="M134.791 188.461C133.028 186.231 129.95 187.455 129.269 189.917C128.14 194.021 131.063 201.424 136.694 201.424" stroke="#1A1757" stroke-linecap="round" stroke-linejoin="round"/>
<path d="M189.023 188.477C190.787 186.247 194.36 187.47 195.025 189.933C196.154 194.037 192.504 202.508 187.477 201.44" stroke="#1A1757" stroke-linecap="round" stroke-linejoin="round"/>
<path d="M161.475 242.836V286.044" stroke="#1A1757" stroke-linecap="round" stroke-linejoin="round"/>
<path d="M126.825 286.045H161.474H181.831" stroke="#1A1757" stroke-linecap="round" stroke-linejoin="round"/>
<path d="M186.843 228.728C190.339 229.517 212.938 236.936 221.77 247.653" stroke="#1A1757" stroke-linecap="round" stroke-linejoin="round"/>
<path d="M100.699 251.23C107.32 238.081 132.44 230.214 136.246 229.347" stroke="#1A1757" stroke-linecap="round" stroke-linejoin="round"/>
<path d="M190.617 102.694C186.363 106.349 181.614 109.354 176.556 111.615C164.475 117.004 150.584 118.29 137.204 114.449C135.271 113.922 133.368 113.256 131.465 112.498C129.408 111.677 127.428 110.748 125.526 109.71C113.398 103.205 104.396 92.7827 99.4459 80.7029C94.6198 68.9483 93.6453 55.5985 97.3731 42.6979C97.3731 42.6824 97.3886 42.6824 97.3886 42.6669C97.6825 41.5983 98.0228 40.5452 98.3941 39.4766C98.657 38.7177 98.9509 37.9279 99.2603 37.1845C104.628 23.7573 114.45 13.4275 126.376 7.27921C138.952 0.743714 153.879 -1.13021 168.28 2.88091H168.296C170.368 3.42296 172.441 4.13536 174.483 4.94068C176.37 5.69954 178.195 6.53584 179.928 7.48054H179.974C190.787 13.1797 199.155 21.9609 204.43 32.2597" stroke="#1A1757" stroke-linecap="round" stroke-linejoin="round"/>
<path d="M209.875 48.2258V48.2109" stroke="#1A1757" stroke-linecap="round" stroke-linejoin="round"/>
<path d="M97.373 42.6979C105.54 30.1999 112.223 36.3792 114.775 42.6514C116.214 46.2134 115.548 50.271 114.512 53.9724C113.476 57.6738 112.083 61.3752 112.145 65.2159C112.207 69.0567 114.187 73.2072 117.838 74.3997C119.524 74.9417 121.334 74.8178 123.097 74.8798C132.687 75.236 141.659 82.36 144.211 91.6212C144.985 94.4398 145.217 97.3978 146.114 100.17C147.011 102.942 148.79 105.668 151.528 106.675C152.595 107.062 153.74 107.17 154.776 107.635C158.086 109.121 158.566 114.495 155.581 116.555" stroke="#1A1757" stroke-linecap="round" stroke-linejoin="round"/>
<path d="M155.875 0.867188C153.353 4.73893 154.018 6.98454 156.818 9.5244C159.494 11.9404 162.743 13.6749 166.006 15.1926C167.739 15.9979 169.595 16.6639 170.925 18.0267C172.426 19.529 173.075 21.8056 172.611 23.8653C172.379 24.9494 171.776 26.018 170.771 26.4671C170.152 26.7304 169.456 26.7459 168.791 26.7459C163.067 26.7769 156.37 26.8543 152.75 32.2747C149.749 36.7815 151.451 42.8988 153.941 47.7152C156.432 52.5317 159.711 57.3172 159.664 62.7376C159.633 66.3461 158.087 69.7997 157.932 73.3926C157.731 78.4723 160.268 83.6915 158.613 88.4924C158.334 89.2668 157.947 90.1185 158.241 90.8929C158.906 92.6429 161.567 91.7447 162.99 90.5367C166.826 87.2535 170.322 83.583 173.4 79.5874C175.396 76.9856 177.422 74.0895 180.5 72.99C180.918 72.8351 181.351 72.7267 181.784 72.6338" stroke="#1A1757" stroke-linecap="round" stroke-linejoin="round"/>
<path d="M29.8305 81.5437L21.835 89.5488L29.8305 97.554L37.826 89.5488L29.8305 81.5437Z" fill="#0EA7AF"/>
<path d="M280.515 108.53L270.474 118.583L280.515 128.636L290.555 118.583L280.515 108.53Z" fill="#0EA7AF"/>
<path d="M194.159 88.7246L186.904 117.437L199.418 108.594L205.652 121.17L212.535 93.8818" stroke="#1A1757" stroke-miterlimit="10"/>
<path d="M238.074 78.752V78.7674L253.264 107.403L239.017 101.781L235.954 115.472L223.255 91.5287" stroke="#1A1757" stroke-miterlimit="10"/>
<path d="M207.911 31.6556C190.803 33.5605 178.459 49.001 180.361 66.1296C182.264 83.2582 197.686 95.6168 214.794 93.7119C231.902 91.807 244.246 76.3665 242.343 59.2379C240.441 42.1093 225.019 29.7507 207.911 31.6556ZM214.175 88.183C200.115 89.7472 187.446 79.6033 185.884 65.5256C184.321 51.448 194.453 38.7642 208.514 37.2C222.575 35.6358 235.243 45.7798 236.806 59.8574C238.368 73.935 228.236 86.6189 214.175 88.183Z" stroke="#1A1757" stroke-linecap="round" stroke-linejoin="round"/>
<path d="M236.934 63.9905C237.645 49.8443 226.767 37.7996 212.638 37.0879C198.509 36.3762 186.478 47.2671 185.768 61.4133C185.057 75.5596 195.934 87.6043 210.064 88.3159C224.193 89.0276 236.223 78.1367 236.934 63.9905Z" stroke="#1A1757" stroke-linecap="round" stroke-linejoin="round"/>
<path d="M209.736 47.9479L214.531 56.4812C214.747 56.8839 215.212 57.0852 215.645 56.9923L225.235 55.0719C226.225 54.8706 226.89 56.0631 226.21 56.8065L219.589 64.0079C219.28 64.3486 219.218 64.8287 219.45 65.2314L224.245 73.7647C224.74 74.6474 223.812 75.6541 222.899 75.236L214.005 71.1474C213.587 70.9615 213.108 71.0545 212.798 71.3952L206.178 78.5966C205.497 79.34 204.26 78.767 204.368 77.7603L205.497 68.0345C205.544 67.5854 205.312 67.1518 204.894 66.9659L196 62.8774C195.072 62.4592 195.242 61.0964 196.232 60.895L205.822 58.9746C206.271 58.8817 206.596 58.5255 206.658 58.0764L207.787 48.3506C207.91 47.3439 209.241 47.0807 209.736 47.9634V47.9479Z" fill="#D82329" stroke="#1A1757" stroke-linecap="round" stroke-linejoin="round"/>
<path d="M84.015 115.022L78.7539 120.289L84.015 125.556L89.2761 120.289L84.015 115.022Z" fill="#1A1757"/>
<path d="M265.939 32.3283L260.678 37.5957L265.939 42.8631L271.2 37.5957L265.939 32.3283Z" fill="#1A1757"/>
<path d="M61.0042 53.0695L55.7432 58.3369L61.0042 63.6043L66.2653 58.3369L61.0042 53.0695Z" fill="#D82329"/>
</g>
<defs>
<clipPath id="clip0_33_5111">
<rect width="321" height="291" fill="white"/>
</clipPath>
</defs>
</svg>
