<svg width="1107" height="358" viewBox="0 0 1107 358" fill="none" xmlns="http://www.w3.org/2000/svg">
<rect x="433" width="241" height="358" rx="12" fill="#F8F8F8"/>
<path d="M548.872 275.828H532.074" stroke="#021C4F" stroke-miterlimit="10"/>
<path d="M534.615 296.193H557.669V275.828H551.374" stroke="#021C4F" stroke-miterlimit="10"/>
<path d="M550.119 279C549.426 279 548.863 278.439 548.863 277.738V270.807C548.863 270.509 548.664 270.255 548.422 270.255H532.507C532.265 270.255 532.066 270.509 532.066 270.807V277.738C532.066 278.431 531.503 279 530.81 279C530.117 279 529.555 278.439 529.555 277.738V270.807C529.555 269.116 530.879 267.732 532.499 267.732H548.413C550.041 267.732 551.357 269.107 551.357 270.807V277.738C551.357 278.431 550.794 279 550.102 279H550.119Z" fill="white" stroke="#021C4F" stroke-miterlimit="10"/>
<path d="M557.669 275.828L542.516 288.35L540.473 290.032L538.551 288.438L525.078 277.318L525 277.257" stroke="#021C4F" stroke-miterlimit="10"/>
<path d="M542.515 286.019H538.55V292.451H542.515V286.019Z" fill="#021C4F"/>
<path d="M542.515 286.019H538.55V292.451H542.515V286.019Z" fill="#0EA7AF" stroke="#021C4F" stroke-miterlimit="10"/>
<path d="M557.046 296.193H563.271" stroke="#021C4F" stroke-linecap="round" stroke-linejoin="round"/>
<path d="M581.991 296.193H585.922" stroke="#021C4F" stroke-linecap="round" stroke-linejoin="round"/>
<path d="M588.208 296.193H594.001" stroke="#021C4F" stroke-linecap="round" stroke-linejoin="round"/>
<path d="M562.613 296.201H582.562V274.742H562.613V296.201Z" fill="#D82128" stroke="#021C4F" stroke-linecap="round" stroke-linejoin="round"/>
<path d="M572.587 274.733C571.782 265.55 566.033 257.392 561.487 255.709C558.82 254.719 553.98 254.518 550.387 256.734C559.218 259.451 563.721 264.647 564.544 274.733" stroke="#021C4F" stroke-linecap="round" stroke-linejoin="round"/>
<path d="M575.367 272.025C574.562 262.842 570.977 256.612 566.258 252.134C561.972 248.068 556.708 244.37 556.708 244.37C556.708 244.37 559.764 252.003 562.605 256.252" stroke="#021C4F" stroke-linecap="round" stroke-linejoin="round"/>
<path d="M574.734 274.733C576.449 265.672 582.025 256.366 593.186 256.612C589.965 260.283 583.428 266.899 580.96 274.733" stroke="#021C4F" stroke-linecap="round" stroke-linejoin="round"/>
<path d="M580.068 262.605C581.921 256.857 584.605 248.533 586.753 245.588C582.675 247.061 577.531 249.628 573.583 263.429" stroke="#021C4F" stroke-linecap="round" stroke-linejoin="round"/>
<path d="M575.99 256.612C575.99 256.612 573.817 242.898 565.565 238C568.154 246.447 569.038 250.618 569.635 255.937" stroke="#021C4F" stroke-linecap="round" stroke-linejoin="round"/>
<path d="M525 276.463H525.061H529.658" stroke="#021C4F" stroke-miterlimit="10"/>
<path d="M544.81 240.872L542.594 243.115L544.81 245.358L547.026 243.115L544.81 240.872Z" fill="#021C4F"/>
<rect x="698" width="241" height="130" rx="12" fill="#F8F8F8"/>
<rect x="409" y="358" width="241" height="130" rx="12" transform="rotate(180 409 358)" fill="#F8F8F8"/>
<rect x="698" y="146" width="241" height="212" rx="12" fill="#F8F8F8"/>
<rect x="409" y="212" width="241" height="212" rx="12" transform="rotate(180 409 212)" fill="#F8F8F8"/>
<rect x="136" y="242" width="136" height="136" rx="12" transform="rotate(180 136 242)" fill="#F8F8F8"/>
<rect x="1107" y="242" width="136" height="136" rx="12" transform="rotate(180 1107 242)" fill="#F8F8F8"/>
<g clip-path="url(#clip0_259_104)">
<path d="M78.8359 184.25V165.188H109.694V184.25" fill="#D82128"/>
<path d="M85.832 171.528H102.196" stroke="white" stroke-linecap="round" stroke-linejoin="round"/>
<path d="M85.832 175.725H102.196" stroke="white" stroke-linecap="round" stroke-linejoin="round"/>
<path d="M85.832 179.987H102.196" stroke="white" stroke-linecap="round" stroke-linejoin="round"/>
<path d="M113.637 184.25H74.8877V210.635H113.637V184.25Z" stroke="#1A1757" stroke-linecap="round" stroke-linejoin="round"/>
<path d="M78.8369 184.25V165.188H109.695V184.25" stroke="#1A1757" stroke-linecap="round" stroke-linejoin="round"/>
<path d="M74.8877 210.636L92.8804 194.743C93.6731 194.044 94.8586 194.044 95.6513 194.743L113.644 210.636" stroke="#1A1757" stroke-linecap="round" stroke-linejoin="round"/>
<path d="M90.5098 165.188L92.4952 162.623C93.397 161.458 95.1498 161.458 96.0443 162.623L98.0298 165.188" stroke="#1A1757" stroke-linecap="round" stroke-linejoin="round"/>
<path d="M113.637 184.251L109.695 179.157" stroke="#1A1757" stroke-linecap="round" stroke-linejoin="round"/>
<path d="M113.637 184.25L96.9316 195.872" stroke="#1A1757" stroke-linecap="round" stroke-linejoin="round"/>
<path d="M74.8877 184.25L91.6004 195.872" stroke="#1A1757" stroke-linecap="round" stroke-linejoin="round"/>
<path d="M78.8368 179.143L74.8877 184.251" stroke="#1A1757" stroke-linecap="round" stroke-linejoin="round"/>
<path d="M63.105 152.248C63.105 154.696 61.8323 156.853 59.9195 158.092C59.9123 156.219 59.9195 154.521 57.665 153.917H57.3523C57.9341 153.53 58.3195 152.867 58.3195 152.117C58.3195 151.621 58.1595 151.169 57.8832 150.805C57.9123 150.798 57.9268 150.791 57.9268 150.791V148.656H54.4068V150.791C54.4068 150.791 54.4432 150.798 54.465 150.805C54.1886 151.169 54.0213 151.621 54.0213 152.117C54.0213 152.853 54.3923 153.501 54.9595 153.887C52.7123 154.587 52.2686 156.161 52.2686 157.983C50.4432 156.737 49.2432 154.631 49.2432 152.248C49.2432 148.408 52.3413 145.304 56.1741 145.304C60.0068 145.304 63.105 148.408 63.105 152.248Z" fill="#D82128"/>
<path d="M40.7705 173.415V135.364H95.7814V162.347" stroke="#1A1757" stroke-linecap="round" stroke-linejoin="round"/>
<path d="M40.7705 196.783V204.449H44.6905H74.8869" stroke="#1A1757" stroke-linecap="round" stroke-linejoin="round"/>
<path d="M49.9346 168.832H74.3491" stroke="#1A1757" stroke-linecap="round" stroke-linejoin="round"/>
<path d="M49.9346 172.84H74.3491" stroke="#1A1757" stroke-linecap="round" stroke-linejoin="round"/>
<path d="M49.9346 177.955H62.1455" stroke="#1A1757" stroke-linecap="round" stroke-linejoin="round"/>
<path d="M49.9346 191.945H62.1455" stroke="#1A1757" stroke-linecap="round" stroke-linejoin="round"/>
<path d="M49.9346 182.115H70.6691" stroke="#1A1757" stroke-linecap="round" stroke-linejoin="round"/>
<path d="M49.9346 185.788H70.6691" stroke="#1A1757" stroke-linecap="round" stroke-linejoin="round"/>
<path d="M49.9346 164.197H59.9128" stroke="#1A1757" stroke-linecap="round" stroke-linejoin="round"/>
<path d="M68.043 148.575H85.8321" stroke="#1A1757" stroke-linecap="round" stroke-linejoin="round"/>
<path d="M68.043 152.247H85.8321" stroke="#1A1757" stroke-linecap="round" stroke-linejoin="round"/>
<path d="M57.8833 150.805C58.1597 151.169 58.3269 151.621 58.3269 152.116C58.3269 153.304 57.3669 154.273 56.1742 154.273C54.9815 154.273 54.0215 153.311 54.0215 152.116C54.0215 151.621 54.1888 151.169 54.4651 150.805" stroke="#1A1757" stroke-linecap="round" stroke-linejoin="round"/>
<path d="M54.9595 153.887C52.7122 154.586 52.2686 155.956 52.2686 157.508C53.374 158.616 58.4867 159.068 59.9195 157.61C59.9195 156.576 59.9195 154.521 57.6649 153.909" stroke="#1A1757" stroke-linecap="round" stroke-linejoin="round"/>
<path d="M57.9263 148.655V150.79C57.9263 150.79 56.4862 151.293 54.4062 150.79V148.655" stroke="#1A1757" stroke-linecap="round" stroke-linejoin="round"/>
<path d="M59.1848 148.451H53.1484" stroke="#1A1757" stroke-linecap="round" stroke-linejoin="round"/>
<path d="M46.3415 185.096C46.3415 193.388 39.636 200.121 31.3596 200.121C23.0833 200.121 16.3633 193.395 16.3633 185.096C16.3633 176.796 23.076 170.085 31.3596 170.085C39.6433 170.085 46.3415 176.803 46.3415 185.096Z" stroke="#1A1757" stroke-linecap="round" stroke-linejoin="round"/>
<path d="M39.5922 181.423L28.6031 192.434L23.1122 186.925C22.4431 186.254 22.4431 185.161 23.1122 184.491C23.7813 183.821 24.8722 183.821 25.5413 184.491L28.6104 187.566L37.1558 178.997C37.8249 178.327 38.9158 178.327 39.5849 178.997C40.254 179.667 40.254 180.76 39.5849 181.431L39.5922 181.423Z" fill="#0EA7AF" stroke="#1A1757" stroke-miterlimit="10"/>
</g>
<g clip-path="url(#clip1_259_104)">
<path d="M1046.15 168.74H1087.57V215.53H1028.29V181.14" stroke="#1A1757" stroke-linecap="round" stroke-linejoin="round"/>
<path d="M1046.15 140.72V181.13H1009.99L998.45 204.4V181.13H989.5V140.72H1046.15Z" stroke="#1A1757" stroke-linecap="round" stroke-linejoin="round"/>
<path d="M1075.01 127.002L1064.28 137.729L1075.01 148.455L1085.73 137.729L1075.01 127.002Z" fill="#0EA7AF"/>
<path d="M1050.23 196.02C1051.93 196.02 1053.31 194.641 1053.31 192.94C1053.31 191.239 1051.93 189.86 1050.23 189.86C1048.53 189.86 1047.15 191.239 1047.15 192.94C1047.15 194.641 1048.53 196.02 1050.23 196.02Z" stroke="#D82128" stroke-linecap="round" stroke-linejoin="round"/>
<path d="M1065.9 196.02C1067.6 196.02 1068.98 194.641 1068.98 192.94C1068.98 191.239 1067.6 189.86 1065.9 189.86C1064.2 189.86 1062.82 191.239 1062.82 192.94C1062.82 194.641 1064.2 196.02 1065.9 196.02Z" stroke="#D82128" stroke-linecap="round" stroke-linejoin="round"/>
<path d="M1018.32 162.16C1019.84 162.16 1021.08 160.924 1021.08 159.4C1021.08 157.875 1019.84 156.64 1018.32 156.64C1016.8 156.64 1015.56 157.875 1015.56 159.4C1015.56 160.924 1016.8 162.16 1018.32 162.16Z" stroke="#1A1757" stroke-linecap="round" stroke-linejoin="round"/>
</g>
<g clip-path="url(#clip2_259_104)">
<path d="M851.342 232.816C849.915 230.977 849.821 228.663 851.13 227.647C852.44 226.632 854.658 227.3 856.084 229.139C857.511 230.979 857.605 233.293 856.296 234.308C854.986 235.324 852.768 234.656 851.342 232.816Z" fill="#D82128"/>
<path d="M783.582 325.571L799.324 331.774L805.29 323.09C805.914 325.148 806.425 326.811 806.777 327.981C806.777 327.981 813.429 328.193 826.821 327.981C825.871 319.236 824.12 307.807 822.246 296.589H822.237V296.607H822.228V296.422C822.219 296.475 822.228 296.527 822.246 296.58C825.132 290.307 828.212 285.063 829.479 278.667C834.987 280.039 847.543 281.007 856.017 280.937C860.593 280.893 865.467 280.136 869.154 277.593L862.124 250.662H860.408C858.428 253.82 856.211 256.53 853.94 258.571C852.181 257.744 850.553 256.973 849.057 256.257L819.826 255.272L819.14 243.667C813.816 242.585 808.387 242.048 802.949 242.057C798.347 242.066 791.774 243.315 789.68 247.811C787.154 253.248 791.563 273.625 796.614 292.709L783.582 325.562V325.571Z" fill="#DCE2E2"/>
<path d="M868.345 250.67H874.398C875.56 254.805 876.141 259.116 875.771 263.797C875.551 266.542 874.874 269.595 873.871 271.856L868.345 250.67Z" fill="#DCE2E2"/>
<path d="M832.55 337.053C832.55 337.053 818.313 338.971 811.045 337.466C819.747 335.548 826.646 334.352 832.55 337.053Z" fill="#1A1757"/>
<path d="M846.338 186.302C848.115 186.46 848.291 184.472 849.004 182.114C850.042 178.656 851.538 169.769 847.922 164.121C845.854 160.892 840.724 159.695 837.011 159.467C833.825 159.273 826.258 160.646 825.457 166.171C829.971 166.857 834.389 166.972 838.911 166.347C839.184 169.356 840.425 172.321 842.334 174.661C841.595 177.125 840.75 179.694 840.671 182.263C835.902 182.914 828.423 183.345 824.885 180.591C824.41 187.991 826.223 192.936 832.013 193.27C839.695 193.71 843.681 190.736 843.337 188.44C842.95 185.853 842.801 183.768 842.783 181.656C842.774 180.363 843.461 177.477 845.819 176.403C847.57 175.612 849.303 178.225 846.69 183.345C846.285 184.146 846.303 185.087 846.329 185.976" fill="#1A1757"/>
<path d="M796.614 292.727C796.614 292.727 803.803 318.198 805.29 323.098L801.876 328.07C801.876 328.07 796.825 305.475 795.822 294.724L796.614 292.727Z" fill="#1A1757"/>
<path d="M819.368 205.288C816.112 210.602 815.171 213.224 813.13 218.406C815.857 220.641 818.075 222.322 818.691 224.178C818.479 216.55 818.471 213.374 819.368 205.279V205.288Z" fill="#1A1757"/>
<path d="M842.485 253.02L819.906 255.457L849.137 256.442L842.485 253.02Z" fill="#1A1757"/>
<path d="M790.059 215.881L792.267 235.502L801.656 234.182C801.172 234.252 800.081 232.712 799.87 232.343C799.448 231.621 799.21 230.83 798.981 230.029C798.409 228.093 798.013 226.052 798.277 224.028C798.312 223.729 798.383 223.413 798.62 223.237C798.814 223.096 799.069 223.078 799.307 223.096C800.521 223.149 801.7 223.65 802.914 223.809C803.24 223.853 806.777 224.072 806.777 224.037L805.616 213.699L797.767 214.799L790.059 215.881Z" fill="#D82128"/>
<path d="M784.753 210.672L782.553 209.265L785.985 239.795L788.281 242.003L784.753 210.672Z" fill="#D82128"/>
<path d="M824.463 292.286C824.463 292.286 820.662 278.358 818.101 273.088C820.028 283.743 822.325 296.764 822.325 296.764L824.463 292.286Z" fill="#1A1757"/>
<path d="M828.211 337.466V342.56H881.315H883.611" stroke="#1A1757" stroke-linecap="round" stroke-linejoin="round"/>
<path d="M828.212 283.329V285.08V331.051" stroke="#1A1757" stroke-linecap="round" stroke-linejoin="round"/>
<path d="M888.407 316.27V277.61H875.367" stroke="#1A1757" stroke-linecap="round" stroke-linejoin="round"/>
<path d="M888.407 327.523V327.515" stroke="#1A1757" stroke-linecap="round" stroke-linejoin="round"/>
<path d="M784.717 249.218H768.729C768.509 248.901 768.324 248.558 768.165 248.206" stroke="#1A1757" stroke-linecap="round" stroke-linejoin="round"/>
<path d="M768.729 240.913C767.735 242.127 767.33 243.843 767.471 245.55" stroke="#1A1757" stroke-linecap="round" stroke-linejoin="round"/>
<path d="M768.729 249.218H748.377C748.227 248.936 748.095 248.593 747.99 248.206" stroke="#1A1757" stroke-linecap="round" stroke-linejoin="round"/>
<path d="M784.717 240.86H748.376C747.813 242.198 747.584 243.94 747.628 245.55" stroke="#1A1757" stroke-linecap="round" stroke-linejoin="round"/>
<path d="M782.244 240.913C781.461 242.989 781.25 247.142 782.244 249.21" stroke="#1A1757" stroke-linecap="round" stroke-linejoin="round"/>
<path d="M766.344 234.05C764.98 235.809 765.059 238.854 766.344 240.86H778.689" stroke="#1A1757" stroke-linecap="round" stroke-linejoin="round"/>
<path d="M778.681 234.006H750.629C749.802 236.1 749.907 239.426 750.629 240.86H766.344" stroke="#1A1757" stroke-linecap="round" stroke-linejoin="round"/>
<path d="M776.771 234.05C776.164 235.757 776.006 239.162 776.771 240.86" stroke="#1A1757" stroke-linecap="round" stroke-linejoin="round"/>
<path d="M906.56 247.925H845.678L842.484 243.79H906.56V247.925Z" stroke="#1A1757" stroke-miterlimit="10"/>
<path d="M883.973 243.79V247.925" stroke="#1A1757" stroke-miterlimit="10"/>
<path d="M842.485 243.79H888.821L869.34 216.418H823.003L842.485 243.79Z" stroke="#1A1757" stroke-miterlimit="10"/>
<path d="M825.678 166.267C825.678 170.746 824.807 175.893 824.886 181.198" stroke="#1A1757" stroke-linecap="round" stroke-linejoin="round"/>
<path d="M846.338 186.302C848.115 186.46 848.291 184.472 849.004 182.114C850.042 178.656 851.538 169.769 847.922 164.121C845.854 160.892 840.724 159.695 837.011 159.467C833.826 159.273 826.258 160.646 825.457 166.171C829.971 166.857 834.389 166.972 838.911 166.347C839.184 169.356 840.425 172.321 842.334 174.661C841.595 177.125 840.751 179.694 840.671 182.263C835.902 182.914 828.423 183.345 824.886 180.591C824.41 187.991 826.223 192.936 832.013 193.27C839.695 193.71 843.681 190.736 843.337 188.44C842.95 185.853 842.801 183.768 842.783 181.656C842.774 180.363 843.461 177.477 845.819 176.403C847.57 175.612 849.303 178.225 846.69 183.345C846.285 184.146 846.303 185.087 846.329 185.976C846.408 188.756 846.488 191.545 846.558 194.326C845.625 199.112 841.146 203.247 834.653 203.247C837.97 205.623 840.337 209.512 842.035 212.054C842.079 212.116 842.097 211.949 842.044 212.002C845.018 209.019 851.996 203.969 851.046 194.466C850.13 194.009 848.714 193.199 846.496 192.249" stroke="#1A1757" stroke-linecap="round" stroke-linejoin="round"/>
<path d="M831.977 193.428C832.013 196.305 832.435 202.296 834.652 203.247C831.872 203.986 828.95 206.81 826.575 209.265C826.302 207.356 825.105 198.372 827.129 193.428" stroke="#1A1757" stroke-linecap="round" stroke-linejoin="round"/>
<path d="M829.479 192.865C826.848 192.865 815.629 196.93 805.703 207.734" stroke="#1A1757" stroke-linecap="round" stroke-linejoin="round"/>
<path d="M825.977 231.824C825.977 231.824 824.12 238.018 820.803 241.353" stroke="#1A1757" stroke-linecap="round" stroke-linejoin="round"/>
<path d="M826.012 240.086C827.148 240.139 827.068 241.899 825.933 241.846C824.798 241.793 824.877 240.033 826.012 240.086Z" fill="#1A1757"/>
<path d="M834.987 235C834.231 240.165 831.908 243.711 829.479 246.324" stroke="#1A1757" stroke-linecap="round" stroke-linejoin="round"/>
<path d="M810.728 217.57C810.728 217.57 810.754 217.57 810.772 217.57C811.027 217.623 811.291 217.755 811.52 217.887C814.538 219.638 817.6 221.204 818.911 224.688C819.448 226.114 819.624 227.644 819.774 229.167C821.806 230.117 823.883 230.997 825.977 231.824C827.851 232.554 829.743 233.249 831.653 233.891C833.289 234.454 834.935 234.982 836.589 235.493" stroke="#1A1757" stroke-linecap="round" stroke-linejoin="round"/>
<path d="M771.756 188.72C769.424 187.717 761.444 180.969 760.704 183.565C759.692 187.128 760.449 191.536 762.728 194.58C764.233 196.595 768.439 199.129 771.994 200.405C771.994 200.405 778.998 210.356 783.31 216.004" stroke="#1A1757" stroke-linecap="round" stroke-linejoin="round"/>
<path d="M788.94 203.423C784.875 199.815 780.476 196.683 780.476 196.683C780.476 195.258 780.493 193.815 780.194 192.416C779.252 187.999 774.642 185.703 773.612 181.189C773.542 180.872 773.48 180.538 773.313 180.256C773.146 179.975 772.873 179.729 772.539 179.711C772.345 179.711 772.152 179.773 771.984 179.869C771.148 180.344 770.735 181.365 770.744 182.333C770.744 184.374 772.248 186.231 771.861 188.307C771.509 190.269 769.732 191.782 769.917 193.885" stroke="#1A1757" stroke-linecap="round" stroke-linejoin="round"/>
<path d="M785.096 200.897C785.096 200.897 782.025 205.798 777.564 208.147" stroke="#1A1757" stroke-linecap="round" stroke-linejoin="round"/>
<path d="M851.133 196.041C860.821 200.801 865.793 208.227 867.597 216.418" stroke="#1A1757" stroke-linecap="round" stroke-linejoin="round"/>
<path d="M861.974 248.013C861.974 248.013 862.01 247.952 862.027 247.925" stroke="#1A1757" stroke-linecap="round" stroke-linejoin="round"/>
<path d="M814.565 223.633C813.553 223.87 812.541 224.037 811.511 224.152C809.575 224.354 807.622 224.363 805.669 224.249C804.173 224.161 801.727 223.536 800.231 223.448C798.506 223.351 798.453 223.21 798.339 224.733C798.084 228.375 799.975 234.464 803.838 235.467C806.302 236.1 809.822 236.637 812.928 236.751C813.025 236.751 813.113 236.751 813.201 236.751C815.225 237.974 817.099 239.118 818.911 240.2C819.554 240.587 820.187 240.966 820.821 241.335C823.681 243.042 826.452 244.652 829.479 246.315C830.482 246.869 832.841 248.127 833.914 248.708" stroke="#1A1757" stroke-linecap="round" stroke-linejoin="round"/>
<path d="M836.589 249.966C839.246 251.321 843.294 253.494 846.646 255.113C848.881 256.195 851.301 257.348 853.941 258.588C856.211 256.547 858.428 253.837 860.408 250.678" stroke="#1A1757" stroke-linecap="round" stroke-linejoin="round"/>
<path d="M818.744 207.998C818.744 207.998 818.049 220.219 818.911 224.697" stroke="#1A1757" stroke-linecap="round" stroke-linejoin="round"/>
<path d="M818.911 240.209L819.826 255.289" stroke="#1A1757" stroke-linecap="round" stroke-linejoin="round"/>
<path d="M819.139 243.676C813.816 242.593 808.378 242.057 802.949 242.066C798.347 242.074 791.765 243.324 789.679 247.82C785.086 257.691 803.318 316.596 806.776 327.99C806.776 327.99 813.429 328.201 826.821 327.99C824.058 302.757 814.696 255.113 814.696 255.113L849.048 256.275" stroke="#1A1757" stroke-linecap="round" stroke-linejoin="round"/>
<path d="M873.536 247.925C873.536 247.925 873.554 247.978 873.562 248.013" stroke="#1A1757" stroke-linecap="round" stroke-linejoin="round"/>
<path d="M822.228 296.624H822.237C825.132 290.342 828.212 285.089 829.479 278.693C834.987 280.065 847.543 281.033 856.017 280.963C860.593 280.919 865.467 280.162 869.154 277.619" stroke="#1A1757" stroke-linecap="round" stroke-linejoin="round"/>
<path d="M873.871 271.865C875.006 269.358 875.551 266.551 875.771 263.806C876.141 259.125 875.56 254.814 874.398 250.679" stroke="#1A1757" stroke-linecap="round" stroke-linejoin="round"/>
<path d="M805.29 323.098L799.324 331.782L783.582 325.58L796.614 292.727" stroke="#1A1757" stroke-linecap="round" stroke-linejoin="round"/>
<path d="M812.03 333.815C814.987 330.225 820.609 329.758 823.962 330.33C827.314 330.902 832.55 333.797 832.55 337.052C824.666 337.835 817.547 338.469 809.663 337.615C808.405 333.665 811.432 331.545 811.625 328.069" stroke="#1A1757" stroke-linecap="round" stroke-linejoin="round"/>
<path d="M785.544 326.354C784.207 328.914 783.265 329.943 781.444 332.064C779.614 334.184 777.203 335.618 774.668 336.445C771.29 337.545 764.848 337.853 762.921 342.349H797.67C797.67 342.349 798.25 336.709 797.907 331.298" stroke="#1A1757" stroke-linecap="round" stroke-linejoin="round"/>
<path d="M782.218 331.166C786.513 333.419 793.314 331.782 796.825 330.797" stroke="#1A1757" stroke-linecap="round" stroke-linejoin="round"/>
<path d="M832.638 336.965C829.523 335.434 826.267 335.381 822.897 335.381C818.629 335.381 814.371 336.401 810.34 337.686" stroke="#1A1757" stroke-linecap="round" stroke-linejoin="round"/>
<path d="M829.611 332.758C827.368 329.758 826.628 329.89 825.775 328.421" stroke="#1A1757" stroke-linecap="round" stroke-linejoin="round"/>
<path d="M812.927 236.751L813.13 238.52L788.281 242.012L784.752 210.673L797.071 208.948L809.601 207.189L811.511 224.152" stroke="#1A1757" stroke-linecap="round" stroke-linejoin="round"/>
<path d="M798.471 208.746L797.16 197.018L782.553 209.265L785.985 239.795" stroke="#1A1757" stroke-linecap="round" stroke-linejoin="round"/>
<path d="M784.752 210.672L782.552 209.265" stroke="#1A1757" stroke-linecap="round" stroke-linejoin="round"/>
<path d="M788.281 242.003L785.985 239.795" stroke="#1A1757" stroke-linecap="round" stroke-linejoin="round"/>
<path d="M726 248.013H906.56V250.67H726V248.013Z" fill="#1A1757"/>
<path d="M862.124 250.679L886.11 342.56" stroke="#1A1757" stroke-linecap="round" stroke-linejoin="round"/>
<path d="M868.345 250.679L892.332 342.56" stroke="#1A1757" stroke-linecap="round" stroke-linejoin="round"/>
<path d="M747.022 340.378L770.437 250.679" stroke="#1A1757" stroke-linecap="round" stroke-linejoin="round"/>
<path d="M746.449 342.56L746.484 342.428" stroke="#1A1757" stroke-linecap="round" stroke-linejoin="round"/>
<path d="M741.662 337.079L764.215 250.679" stroke="#1A1757" stroke-linecap="round" stroke-linejoin="round"/>
<path d="M740.228 342.56L740.264 342.428" stroke="#1A1757" stroke-linecap="round" stroke-linejoin="round"/>
</g>
<g clip-path="url(#clip3_259_104)">
<path d="M252.074 70.9575L291.144 83.0904L330.655 71.1254L292.001 61.4315L252.074 70.9575Z" stroke="#1A1757" stroke-linecap="round" stroke-linejoin="round"/>
<path d="M252.074 70.9579L252.118 74.2982L291.179 86.4399L330.7 74.7665L330.655 71.4262" stroke="#1A1757" stroke-linecap="round" stroke-linejoin="round"/>
<path d="M260.821 102.416L260.936 77.5936" stroke="#1A1757" stroke-linecap="round" stroke-linejoin="round"/>
<path d="M321.671 77.5936L321.547 102.416" stroke="#1A1757" stroke-linecap="round" stroke-linejoin="round"/>
<path d="M288.962 70.9579C266.723 72.2657 252.118 74.2982 250.378 90.0099" stroke="#1A1757" stroke-linecap="round" stroke-linejoin="round"/>
<path d="M250.384 90.0071L246.91 93.4813L250.384 96.9555L253.857 93.4813L250.384 90.0071Z" fill="#D82128" stroke="#1A1757" stroke-linecap="round" stroke-linejoin="round"/>
<path d="M347.116 167.897C354.617 156.577 355.059 139.434 347.116 129.492H209.718V133.955H274.198C281.31 141.59 280.913 154.756 274.198 163.443H209.718V167.906H347.116V167.897Z" stroke="#1A1757" stroke-linecap="round" stroke-linejoin="round"/>
<path d="M214.348 133.946V163.435" stroke="#1A1757" stroke-linecap="round" stroke-linejoin="round"/>
<path d="M237.222 129.492C232.61 123.191 232.565 109.432 238.308 102.425H337.282" stroke="#1A1757" stroke-linecap="round" stroke-linejoin="round"/>
<path d="M337.679 104.387V105.562H291.047C285.896 110.944 286.187 120.222 291.047 126.346H337.679V129.492" stroke="#1A1757" stroke-linecap="round" stroke-linejoin="round"/>
<path d="M334.33 105.562V126.346" stroke="#1A1757" stroke-linecap="round" stroke-linejoin="round"/>
<path d="M306.332 117.854H325.089" stroke="#1A1757" stroke-linecap="round" stroke-linejoin="round"/>
<path d="M345.596 74.5453L344.518 68.8809C346.648 67.8824 349.227 67.9177 351.33 68.9781C351.684 69.1549 352.028 69.3758 352.223 69.7116C352.709 70.5687 351.984 71.6026 351.215 72.2212C349.254 73.8118 346.709 74.6778 344.183 74.6071C342.036 74.5453 338.007 73.6881 337.468 71.2934C336.929 68.8986 339.738 66.7336 341.638 65.8941C346.02 63.9588 351.233 63.9854 355.598 65.9648C356.534 66.389 357.453 66.9192 358.054 67.7498C359.044 69.1284 358.92 71.0459 358.301 72.6189C356.932 76.0917 353.468 78.4158 349.828 79.2376C346.188 80.0594 342.389 79.5911 338.731 78.84C335.727 78.2214 332.396 77.1256 331.106 74.342C330.108 72.1859 330.691 69.5348 332.096 67.6261C333.501 65.7085 335.603 64.4184 337.75 63.4198C343.166 60.9013 349.289 59.9381 355.218 60.6539L355.589 65.956" stroke="#1A1757" stroke-linecap="round" stroke-linejoin="round"/>
<path d="M358.752 70.7188C360.669 83.859 373.833 152.998 376.908 161.932C372.111 169.372 360.483 171.166 351.639 168.171C351.277 166.085 350.862 163.832 350.42 161.419" stroke="#1A1757" stroke-linecap="round" stroke-linejoin="round"/>
<path d="M342.822 129.484C338.943 111.474 335.418 91.5034 330.93 73.874" stroke="#1A1757" stroke-linecap="round" stroke-linejoin="round"/>
<path d="M340.295 117.332C347.399 117.916 359.609 114.982 366.112 111.288" stroke="#1A1757" stroke-linecap="round" stroke-linejoin="round"/>
<path d="M342.557 128.264C349.66 128.847 361.588 126.337 368.223 122.122" stroke="#1A1757" stroke-linecap="round" stroke-linejoin="round"/>
<path d="M369.001 126.037L385.558 127.257L379.055 121.407L385.258 116.343L367.004 115.91" stroke="#1A1757" stroke-linecap="round" stroke-linejoin="round"/>
<path d="M364.98 105.394L375.804 95.709L374.487 104.36L382.492 104.325L369.071 115.91" stroke="#1A1757" stroke-linecap="round" stroke-linejoin="round"/>
<path d="M183 167.896H352.072" stroke="#1A1757" stroke-miterlimit="10"/>
</g>
<g clip-path="url(#clip4_259_104)">
<path d="M337.233 259.236H241.557V268.815H337.233V259.236Z" fill="#1A1757"/>
<path d="M345.566 241.337H232.435C229.066 241.337 226.338 243.908 226.338 247.086V253.124H351.663V247.086C351.663 243.908 348.935 241.337 345.566 241.337ZM314.459 249.691C313.129 249.691 312.055 248.62 312.055 247.294C312.055 245.968 313.129 244.898 314.459 244.898C315.789 244.898 316.856 245.975 316.856 247.294C316.856 248.614 315.782 249.691 314.459 249.691ZM324.769 249.691C323.439 249.691 322.366 248.62 322.366 247.294C322.366 245.968 323.439 244.898 324.769 244.898C326.099 244.898 327.166 245.975 327.166 247.294C327.166 248.614 326.093 249.691 324.769 249.691ZM335.039 249.691C333.716 249.691 332.635 248.62 332.635 247.294C332.635 245.968 333.716 244.898 335.039 244.898C336.363 244.898 337.443 245.975 337.443 247.294C337.443 248.614 336.369 249.691 335.039 249.691Z" fill="#0EA7AF"/>
<path d="M245.312 264.062H274.318" stroke="#1A1757" stroke-linecap="round" stroke-linejoin="round"/>
<path d="M351.663 321.261H266.067" stroke="#1A1757" stroke-linecap="round" stroke-linejoin="round"/>
<path d="M351.663 338.083H266.067V341.664H351.663V338.083Z" fill="#D82128"/>
<path d="M278.12 292.301C277.087 292.55 276.81 291.406 276.189 290.086C275.27 288.155 273.616 283.099 275.23 279.478C276.155 277.404 279.058 276.253 281.212 275.795C283.062 275.398 288.106 275.291 289.011 279.289C286.425 280.083 283.413 279.955 280.713 279.989C280.821 281.773 280.713 287.744 279.794 289.279C279.612 288.404 278.451 286.519 277.553 286.478C276.655 286.438 275.52 287.077 277.553 289.891C278.025 290.544 278.349 291.534 278.127 292.308L278.12 292.301Z" fill="#1A1757"/>
<path d="M351.663 291.036V321.261V321.267V338.083V341.664H266.067" stroke="#1A1757" stroke-linecap="round" stroke-linejoin="round"/>
<path d="M351.663 247.086V253.124H226.338V247.086C226.338 243.908 229.066 241.337 232.435 241.337H345.566C348.935 241.337 351.663 243.908 351.663 247.086Z" stroke="#1A1757" stroke-linecap="round" stroke-linejoin="round"/>
<path d="M351.663 276.684V253.124" stroke="#1A1757" stroke-linecap="round" stroke-linejoin="round"/>
<path d="M226.338 316.427V253.124" stroke="#1A1757" stroke-linecap="round" stroke-linejoin="round"/>
<path d="M314.458 249.69C315.786 249.69 316.862 248.617 316.862 247.294C316.862 245.97 315.786 244.897 314.458 244.897C313.131 244.897 312.055 245.97 312.055 247.294C312.055 248.617 313.131 249.69 314.458 249.69Z" stroke="#1A1757" stroke-linecap="round" stroke-linejoin="round"/>
<path d="M324.769 249.69C326.097 249.69 327.173 248.617 327.173 247.294C327.173 245.97 326.097 244.897 324.769 244.897C323.441 244.897 322.365 245.97 322.365 247.294C322.365 248.617 323.441 249.69 324.769 249.69Z" stroke="#1A1757" stroke-linecap="round" stroke-linejoin="round"/>
<path d="M335.039 249.69C336.367 249.69 337.443 248.617 337.443 247.294C337.443 245.97 336.367 244.897 335.039 244.897C333.712 244.897 332.636 245.97 332.636 247.294C332.636 248.617 333.712 249.69 335.039 249.69Z" stroke="#1A1757" stroke-linecap="round" stroke-linejoin="round"/>
<path d="M245.312 264.062H274.318" stroke="white" stroke-linecap="round" stroke-linejoin="round"/>
<path d="M241.557 268.815H337.233" stroke="#1A1757" stroke-linecap="round" stroke-linejoin="round"/>
<path d="M351.663 321.261H266.067" stroke="#1A1757" stroke-linecap="round" stroke-linejoin="round"/>
<path d="M351.663 338.083H266.067" stroke="#1A1757" stroke-linecap="round" stroke-linejoin="round"/>
<path d="M337.233 279.067V311.938H300.954H265.445H241.557V268.815V259.236H337.233V268.815V273.312" stroke="#1A1757" stroke-linecap="round" stroke-linejoin="round"/>
<path d="M309.841 331.223C310.504 331.223 311.042 330.686 311.042 330.024C311.042 329.363 310.504 328.826 309.841 328.826C309.177 328.826 308.639 329.363 308.639 330.024C308.639 330.686 309.177 331.223 309.841 331.223Z" stroke="#1A1757" stroke-linecap="round" stroke-linejoin="round"/>
<path d="M316.39 331.223C317.054 331.223 317.592 330.686 317.592 330.024C317.592 329.363 317.054 328.826 316.39 328.826C315.727 328.826 315.188 329.363 315.188 330.024C315.188 330.686 315.727 331.223 316.39 331.223Z" stroke="#1A1757" stroke-linecap="round" stroke-linejoin="round"/>
<path d="M322.758 331.223C323.421 331.223 323.959 330.686 323.959 330.024C323.959 329.363 323.421 328.826 322.758 328.826C322.094 328.826 321.556 329.363 321.556 330.024C321.556 330.686 322.094 331.223 322.758 331.223Z" stroke="#1A1757" stroke-linecap="round" stroke-linejoin="round"/>
<path d="M284.406 330.025C284.406 333.04 281.955 335.484 278.93 335.484C275.905 335.484 273.454 333.04 273.454 330.025C273.454 327.009 275.905 324.565 278.93 324.565C281.955 324.565 284.406 327.009 284.406 330.025Z" stroke="#1A1757" stroke-linecap="round" stroke-linejoin="round"/>
<path d="M282.103 332.293C282.103 332.293 281.421 333 281.077 333.101C280.274 333.451 279.376 333.444 278.721 332.791L276.276 330.26C275.608 329.594 275.459 328.618 275.831 327.81C275.966 327.521 276.587 326.881 276.587 326.881C276.803 326.666 277.161 326.666 277.377 326.881L278.302 327.797C278.437 327.931 278.424 328.153 278.289 328.295L277.836 328.739C277.688 328.887 277.613 329.076 277.607 329.264C277.6 329.473 277.674 329.688 277.836 329.85L279.146 331.25C279.308 331.411 279.524 331.485 279.733 331.479C279.923 331.472 280.112 331.398 280.26 331.25L280.719 330.792C280.854 330.657 281.084 330.644 281.219 330.779L282.063 331.553C282.265 331.755 282.279 332.078 282.103 332.293Z" fill="#1A1757"/>
<path d="M301.198 330.025C301.198 333.04 298.747 335.484 295.722 335.484C292.697 335.484 290.246 333.04 290.246 330.025C290.246 327.009 292.697 324.565 295.722 324.565C298.747 324.565 301.198 327.009 301.198 330.025Z" fill="#1A1757"/>
<path d="M296.835 333.666C296.235 333.666 295.694 333.444 295.276 333.027L292.831 330.489C292.109 329.769 291.893 328.672 292.291 327.736V327.669L292.352 327.608C292.534 327.278 293.034 326.753 293.135 326.645C293.311 326.47 293.534 326.383 293.777 326.383C294.02 326.383 294.243 326.477 294.411 326.645L295.377 327.601C295.6 327.877 295.58 328.281 295.323 328.537L294.871 328.981C294.79 329.062 294.742 329.17 294.742 329.277C294.742 329.405 294.783 329.52 294.871 329.614L296.187 331.028C296.262 331.102 296.376 331.149 296.498 331.149C296.599 331.149 296.721 331.122 296.822 331.014L297.281 330.556C297.409 330.428 297.592 330.348 297.781 330.348C297.936 330.348 298.091 330.402 298.206 330.496L298.267 330.529L298.294 330.577L299.097 331.304C299.435 331.64 299.462 332.152 299.172 332.509C298.983 332.704 298.409 333.276 298.01 333.411L297.963 333.437H297.95C297.578 333.592 297.207 333.666 296.842 333.666H296.835Z" fill="white"/>
<path d="M293.77 326.713C293.912 326.713 294.054 326.767 294.162 326.875L295.087 327.79C295.222 327.925 295.209 328.147 295.074 328.288L294.621 328.733C294.473 328.881 294.398 329.069 294.392 329.258C294.385 329.466 294.459 329.682 294.621 329.843L295.931 331.243C296.086 331.398 296.289 331.472 296.485 331.472C296.498 331.472 296.505 331.472 296.518 331.472C296.708 331.466 296.897 331.392 297.045 331.243L297.504 330.786C297.579 330.712 297.673 330.678 297.768 330.678C297.855 330.678 297.936 330.712 298.004 330.772L298.848 331.546C299.05 331.748 299.064 332.071 298.888 332.287C298.888 332.287 298.206 332.994 297.862 333.095C297.525 333.243 297.173 333.323 296.829 333.323C296.35 333.323 295.891 333.162 295.506 332.785L293.061 330.254C292.393 329.587 292.244 328.611 292.616 327.804C292.751 327.514 293.372 326.875 293.372 326.875C293.48 326.767 293.622 326.713 293.764 326.713M293.764 326.04C293.433 326.04 293.122 326.168 292.893 326.397C292.697 326.599 292.278 327.05 292.069 327.393L291.941 327.521V327.669C291.529 328.719 291.779 329.931 292.589 330.732L295.019 333.249C295.519 333.741 296.14 333.997 296.829 333.997C297.214 333.997 297.606 333.923 297.997 333.768H298.024L298.125 333.714C298.564 333.552 299.091 333.047 299.375 332.758L299.395 332.738L299.415 332.718C299.813 332.226 299.78 331.519 299.327 331.075L298.456 330.281C298.254 330.099 298.017 330.005 297.761 330.005C297.484 330.005 297.214 330.113 297.025 330.308L296.566 330.765C296.566 330.765 296.532 330.799 296.491 330.799C296.464 330.799 296.431 330.799 296.404 330.765L295.114 329.379C295.067 329.332 295.06 329.298 295.067 329.278C295.067 329.258 295.067 329.231 295.101 329.204L295.553 328.759C295.958 328.356 295.965 327.709 295.573 327.312L294.641 326.39C294.412 326.161 294.101 326.033 293.77 326.033L293.764 326.04Z" fill="#1A1757"/>
<path d="M291.988 334.01L299.726 326.289" stroke="white" stroke-linecap="round" stroke-linejoin="round"/>
<path d="M279.787 289.272C279.679 288.518 279.017 286.889 277.545 286.472C276.452 286.162 275.662 287.845 277.647 290.605C277.957 291.036 278.025 291.588 278.092 292.113C278.295 293.749 278.497 295.378 278.693 297.014C279.665 299.726 281.772 301.248 284.973 301.645C283.237 303.328 282.576 305.495 281.218 307.528C279.524 305.623 276.519 301.955 274.514 297.734C275.175 296.758 277.262 295.984 278.47 295.23" stroke="#1A1757" stroke-linecap="round" stroke-linejoin="round"/>
<path d="M289.004 279.289C290.233 289.353 290.496 294.408 287.127 295.115C282.664 296.051 280.631 294.327 280.192 292.382" stroke="#1A1757" stroke-linecap="round" stroke-linejoin="round"/>
<path d="M278.12 292.301C277.087 292.55 276.81 291.406 276.189 290.086C275.27 288.155 273.616 283.099 275.23 279.478C276.155 277.404 279.058 276.253 281.212 275.795C283.062 275.398 288.106 275.291 289.011 279.289C286.425 280.083 283.413 279.955 280.713 279.989C280.821 281.773 280.713 287.744 279.794 289.279" stroke="#1A1757" stroke-linecap="round" stroke-linejoin="round"/>
<path d="M286.532 295.229C286.512 296.926 286.289 301.086 284.979 301.645C286.627 302.082 288.356 303.752 289.767 305.199C289.929 304.068 290.206 298.541 289.004 295.62" stroke="#1A1757" stroke-linecap="round" stroke-linejoin="round"/>
<path d="M287.127 295.115C288.687 295.115 300.955 299.659 300.955 312.133" stroke="#1A1757" stroke-linecap="round" stroke-linejoin="round"/>
<path d="M274.521 297.733C270.841 299.416 265.237 305.724 265.446 311.964" stroke="#1A1757" stroke-linecap="round" stroke-linejoin="round"/>
</g>
<g clip-path="url(#clip5_259_104)">
<path d="M754.123 101.452H879.45" stroke="#1A1757" stroke-linecap="round" stroke-linejoin="round"/>
<path d="M724.549 101.452H744.448" stroke="#1A1757" stroke-linecap="round" stroke-linejoin="round"/>
<path d="M842.254 45.6406H795.701" stroke="#1A1757" stroke-miterlimit="10"/>
<path d="M849.195 45.6406H866.646V101.256H771.311V45.6406H788.75" stroke="#1A1757" stroke-miterlimit="10"/>
<path d="M845.725 54.3005C843.803 54.3005 842.254 52.7568 842.254 50.8628V31.9339C842.254 31.1128 841.694 30.4231 841.035 30.4231H796.92C796.261 30.4231 795.701 31.1128 795.701 31.9339V50.8628C795.701 52.7568 794.142 54.3005 792.231 54.3005C790.32 54.3005 788.761 52.7568 788.761 50.8628V31.9339C788.761 27.303 792.429 23.5479 796.92 23.5479H841.035C845.538 23.5479 849.195 27.3139 849.195 31.9339V50.8628C849.195 52.7568 847.635 54.3005 845.725 54.3005Z" fill="white" stroke="#1A1757" stroke-miterlimit="10"/>
<path d="M771.311 45.6406L818.973 84.429L866.646 45.6406" stroke="#1A1757" stroke-miterlimit="10"/>
<path d="M824.651 73.4484H813.646V91.0197H824.651V73.4484Z" fill="#1A1757"/>
<path d="M824.651 73.4484H813.646V91.0197H824.651V73.4484Z" fill="#D82128" stroke="#1A1757" stroke-miterlimit="10"/>
</g>
<path d="M589.538 74.8585C589.641 75.3326 589.724 75.8273 589.785 76.3221C591.165 85.1033 589.147 93.6784 584.638 100.666C580.314 107.386 573.725 112.622 565.695 115.096C564.542 115.467 563.369 115.755 562.154 116.003C560.836 116.271 559.539 116.456 558.242 116.559C549.965 117.281 541.997 114.993 535.49 110.519C528.655 105.82 523.487 98.6668 521.386 90.0505C521.263 89.5764 521.16 89.0817 521.057 88.6076C519.348 80.0531 520.913 71.581 524.907 64.5313C529.108 57.0693 536.026 51.1945 544.632 48.453C545.868 48.0407 547.144 47.7109 548.441 47.4429C549.636 47.1956 550.85 47.0306 552.024 46.9276H552.045C561.125 46.0412 569.896 48.824 576.711 54.1216C583.114 59.0894 587.809 66.2834 589.518 74.8379L589.538 74.8585Z" stroke="#021C4F" stroke-width="0.75" stroke-linecap="round" stroke-linejoin="round"/>
<path d="M521.942 92.0087C521.942 83.0007 527.357 83.9077 530.714 86.237C532.608 87.5563 533.617 89.8237 534.317 92.05C535.017 94.2556 535.532 96.5849 536.829 98.5019C538.126 100.419 540.494 101.862 542.738 101.264C543.767 100.996 544.632 100.316 545.559 99.7593C550.521 96.7704 557.398 97.4094 561.742 101.243C563.06 102.418 564.151 103.82 565.531 104.933C566.91 106.046 568.702 106.83 570.411 106.438C571.069 106.273 571.687 105.964 572.367 105.861C574.529 105.51 576.546 108.066 575.723 110.107" stroke="#021C4F" stroke-width="0.75" stroke-linecap="round" stroke-linejoin="round"/>
<path d="M537.693 51.5449C537.693 54.3483 538.764 55.2553 541.029 55.6057C543.294 55.9562 545.394 55.75 547.535 55.4408C548.668 55.2759 549.841 55.0079 550.953 55.2347C552.209 55.5027 553.28 56.4303 553.733 57.6258C553.959 58.2442 554.021 58.9863 553.65 59.5429C553.424 59.8933 553.074 60.12 552.744 60.3468C549.862 62.2432 546.506 64.49 546.465 68.4272C546.423 71.7047 549.306 74.2195 552.147 75.8273C554.989 77.4352 558.242 78.775 559.992 81.5166C561.166 83.3512 561.516 85.598 562.628 87.4738C564.192 90.1123 567.198 91.9056 567.94 94.874C568.063 95.3687 568.146 95.9046 568.557 96.2138C569.463 96.8734 570.513 95.5542 570.843 94.4617C571.708 91.5346 572.243 88.5251 572.49 85.4949C572.655 83.5161 572.716 81.3929 573.911 79.8057C574.57 78.9399 575.496 78.3215 576.34 77.6001C579.12 75.2089 580.685 71.4985 580.499 67.85C580.314 64.2015 578.337 60.6766 575.331 58.5947C574.322 57.8938 573.149 57.2754 572.696 56.1417C572.243 55.0079 574.734 53.0085 575.867 53.462" stroke="#021C4F" stroke-width="0.75" stroke-linecap="round" stroke-linejoin="round"/>
<path d="M615.536 95.5504L612 99.0859L615.536 102.621L619.071 99.0859L615.536 95.5504Z" fill="#0EA7AF"/>
<path d="M488.536 24L485 27.5355L488.536 31.0711L492.071 27.5355L488.536 24Z" fill="#1A1757"/>
<path d="M457.31 189.885L454.998 192.197L457.31 194.509L459.623 192.197L457.31 189.885Z" fill="#D82128"/>
<path d="M630.312 37L628 39.3123L630.312 41.6245L632.624 39.3123L630.312 37Z" fill="#D82128"/>
<path d="M516.05 124.69C513.32 124.69 509.81 124.72 507.41 124.69C507.15 127.37 505.63 129.9 503.37 131.36C503.18 131.48 502.98 131.6 502.76 131.61C502.41 131.63 502.12 131.38 501.86 131.15C500.72 130.12 499.11 128.98 497.78 129.77C496.63 130.45 496.62 132.22 497.41 133.29C498.21 134.36 499.52 134.89 500.77 135.35C501.03 135.44 501.29 135.55 501.45 135.76C501.59 135.94 501.62 136.18 501.65 136.41C501.76 137.43 501.69 138.47 501.45 139.46C501.06 141.09 500.24 142.62 499.06 143.82C495.08 144.52 493.53 147.09 492.46 146.51C487.54 143.82 493.53 130.33 494.36 125.8C494.8 123.4 495.8 121.11 497.8 119.65C502.07 116.52 508.74 116.84 512.81 120.26C514.24 121.46 515.29 122.98 516.04 124.68L516.05 124.69Z" fill="#1A1757"/>
<path d="M528.15 287.3C528.15 287.3 518.23 289.85 512.8 290.32C509.81 278.32 507.27 255.95 507.27 255.95C504.29 272.92 499.98 294.16 499.98 294.16C493.1 293.93 488.61 293.21 481.79 292.37C481.79 269.86 488.43 249.45 488.79 236.07C488.21 229.13 486.31 220.72 487.57 207.82C488.4 199.27 490.65 190.67 495.68 183.71C495.68 183.71 497.49 185.46 498.89 186.67C500.09 186.19 500.76 185.41 501.33 185.09C505.78 185.41 518.97 185.09 518.97 185.09C518.97 185.09 523.85 216.59 524.92 237.18C525.98 257.77 528.15 287.31 528.15 287.31V287.3Z" fill="#DCE2E2"/>
<path d="M557.64 154.2L553.73 166.65C551.54 166.65 548.41 167.18 547.15 169.65C546.61 170.72 546.2 171.28 545 172.71L539.06 173.09L545.22 154.75L557.64 154.19V154.2Z" fill="#D82128"/>
<path d="M499.07 143.83C488.94 145.48 486.83 154.3 486.64 158.22C486.35 164.14 489.75 178.93 498.96 186.53C512.67 177.88 521.72 168.16 531.37 165.7C533.76 167.75 539.01 166.14 539.01 166.14C539.25 167.55 539.8 168.5 540.39 169.12" stroke="#1A1757" stroke-linecap="round" stroke-linejoin="round"/>
<path d="M506.37 140.73C508.24 142.35 510.91 143.51 513.45 143.09C518.2 142.3 517.96 136.05 517.75 132.37C517.5 128.03 516.28 123.17 512.81 120.27C508.74 116.86 502.07 116.54 497.8 119.66C495.8 121.12 494.75 124.35 494.11 126.7C492.6 132.24 487.71 144.51 492.47 146.51" stroke="#1A1757" stroke-linecap="round" stroke-linejoin="round"/>
<path d="M509.9 142.9C510.15 146.09 509.39 149.35 507.77 152.11C504.69 149.98 501.43 146.74 499.08 143.83C500.97 141.9 501.94 139.11 501.66 136.42C501.64 136.19 501.6 135.95 501.46 135.76C501.3 135.54 501.03 135.44 500.78 135.35C499.53 134.89 498.22 134.36 497.43 133.29C496.64 132.22 496.65 130.44 497.8 129.77C499.13 128.99 500.73 130.12 501.88 131.15C502.14 131.38 502.43 131.62 502.78 131.61C503 131.61 503.21 131.48 503.39 131.36C505.65 129.9 507.18 127.37 507.43 124.69C510.26 124.72 513.08 124.74 515.91 124.77" stroke="#1A1757" stroke-linecap="round" stroke-linejoin="round"/>
<path d="M499.32 158.21C501.38 165.26 501.11 165.44 503.83 170.48C511.87 166.3 521.61 161.14 530.56 159.76C533.06 159.38 537.89 159.47 541.12 160.62L541.79 164.93" stroke="#1A1757" stroke-linecap="round" stroke-linejoin="round"/>
<path d="M522.53 162.19C522.53 162.19 523.87 166.67 525.21 168.16" stroke="#1A1757" stroke-linecap="round" stroke-linejoin="round"/>
<path d="M496.31 144.52C498.31 149.94 501.24 155.01 504.94 159.44C505.77 158 507.18 155.04 507.76 152.1" stroke="#1A1757" stroke-linecap="round" stroke-linejoin="round"/>
<path d="M507.88 152C509.93 153.49 511.72 155.32 513.16 157.4C513.34 153.75 512.66 149.53 511.6 145.83" stroke="#1A1757" stroke-linecap="round" stroke-linejoin="round"/>
<path d="M521.09 170.68C528.07 171.02 537.87 169.99 537.87 169.99C537.89 171.85 538.18 176.5 538.21 178.35C531.25 179.84 526.05 180.32 519.13 180.58" stroke="#1A1757" stroke-linecap="round" stroke-linejoin="round"/>
<path d="M520.47 162.59C519.47 149.97 513.88 146.07 510.06 145.13" stroke="#1A1757" stroke-linecap="round" stroke-linejoin="round"/>
<path d="M519.19 172C519.28 176.34 519.08 182.52 519.03 184.94C516.62 184.94 505.62 185.49 501.08 185.15" stroke="#1A1757" stroke-linecap="round" stroke-linejoin="round"/>
<path d="M518.32 163.45C517.96 160.54 517.4 158.02 516.57 155.49" stroke="#1A1757" stroke-linecap="round" stroke-linejoin="round"/>
<path d="M495.75 183.56C490.72 190.52 488.46 199.12 487.63 207.66C486.37 220.56 488.27 228.97 488.86 235.91C488.49 249.29 481.85 269.7 481.85 292.21C488.68 293.05 493.17 293.77 500.04 294C500.04 294 509.24 248.66 510.06 237.55C510.88 226.44 513.18 199.92 513.18 199.92L515.81 197.73" stroke="#1A1757" stroke-linecap="round" stroke-linejoin="round"/>
<path d="M519.03 184.94C519.03 184.94 523.92 216.44 524.98 237.03C526.04 257.62 528.21 287.17 528.21 287.17C528.21 287.17 518.29 289.72 512.86 290.19C509.86 278.19 507.33 255.82 507.33 255.82" stroke="#1A1757" stroke-linecap="round" stroke-linejoin="round"/>
<path d="M526.9 287.49C527.17 289.45 527.82 290.91 529.38 292.73C530.94 294.55 533.01 295.77 535.18 296.48C538.07 297.42 543.58 296.93 545.22 300.77H515.51C515.51 300.77 514.91 294.87 515.43 289.86" stroke="#1A1757" stroke-linecap="round" stroke-linejoin="round"/>
<path d="M527.35 289.94C523.68 291.86 519.7 292.82 515.64 292.66" stroke="#1A1757" stroke-linecap="round" stroke-linejoin="round"/>
<path d="M497.06 294.01C496.54 295.89 496.37 300.84 496.37 300.84C496.37 300.84 503.34 302.92 504.43 307.9H491.68L481.85 301.62C481.85 301.62 483 295.35 485.05 292.63" stroke="#1A1757" stroke-linecap="round" stroke-linejoin="round"/>
<path d="M496.12 296.24C491.98 296.42 489.39 295.35 487.39 292.92" stroke="#1A1757" stroke-linecap="round" stroke-linejoin="round"/>
<path d="M545 172.72L539.05 173.1L545.21 154.76L557.63 154.2L553.73 166.66" stroke="#1A1757" stroke-linecap="round" stroke-linejoin="round"/>
<path d="M538.21 176.83C541.61 176.64 544.64 176.4 547.56 175.27C550.48 174.14 552.38 170.5 553.73 166.66C551.54 166.66 548.41 167.18 547.15 169.66C546.61 170.73 546.2 171.3 545 172.72" stroke="#1A1757" stroke-linecap="round" stroke-linejoin="round"/>
<path d="M537.89 170.8L540.1 169.99" stroke="#1A1757" stroke-linecap="round" stroke-linejoin="round"/>
<path d="M513.55 133.17C511.97 133.17 510.3 133.27 508.3 133.14C508.3 132.14 508.21 131.35 508.21 130.35C510 130.35 511.47 130.29 513.52 130.42C513.55 131.22 513.56 132.13 513.55 133.17Z" stroke="#1A1757" stroke-linecap="round" stroke-linejoin="round"/>
<path d="M520.47 133.17C519.27 133.17 518.01 133.27 516.5 133.14C516.5 132.14 516.43 131.35 516.43 130.35C517.78 130.35 518.9 130.29 520.45 130.42C520.47 131.22 520.48 132.13 520.47 133.17Z" stroke="#1A1757" stroke-linecap="round" stroke-linejoin="round"/>
<path d="M513.55 131.78C514.49 131.77 515.76 131.73 516.46 131.78" stroke="#1A1757" stroke-linecap="round" stroke-linejoin="round"/>
<path d="M508.21 131.35L500.85 130.34" stroke="#1A1757" stroke-linecap="round" stroke-linejoin="round"/>
<path d="M627.7 213.871C631.61 219.381 633.4 227.421 634.64 239.681C635.86 251.681 635.72 262.801 635.97 274.881C636.23 287.601 636.49 300.311 636.75 313.031C633.26 313.161 624.9 314.141 621.89 314.141C620.77 307.631 620.71 294.851 620.12 290.701C619.67 287.581 617.61 268.721 616.26 246.341C612.84 253.791 610.78 266.401 609.64 276.941C608.34 288.881 607.48 302.481 605.88 314.371C602.25 315.141 597.56 315.421 590.23 315.111C590.96 280.421 591.48 246.401 602.75 213.951C602.75 213.951 620 218.281 627.7 213.861V213.871Z" fill="#DCE2E2"/>
<path d="M617.05 170.351C619.33 168.141 622.29 165.111 621.89 159.551C621.33 151.841 618.29 145.931 609.52 146.001C605.16 146.041 600.57 149.111 600.48 153.751C601 155.991 603.06 158.331 603.61 160.861C603.88 162.111 604.6 162.961 605.51 161.661C606.43 160.321 605.86 158.731 607.95 158.191C608.3 158.091 608.69 158.081 609.03 158.221C609.67 158.511 609.89 159.291 609.94 160.001C610.02 160.981 609.9 161.991 609.49 162.881C609.1 163.731 608.51 164.291 607.73 164.771C607.37 164.991 606.04 165.191 606.16 165.881C606.79 169.481 609.57 170.961 612.64 170.611" stroke="#1A1757" stroke-linecap="round" stroke-linejoin="round"/>
<path d="M600.48 153.751C599.7 156.881 599.68 161.931 599.63 165.491C599.58 168.831 602.99 171.001 606.75 170.611" stroke="#1A1757" stroke-linecap="round" stroke-linejoin="round"/>
<path d="M618.95 173.061C628.33 173.781 632.76 188.741 636.83 199.621C636.83 199.621 632.59 204.951 627.89 207.151" stroke="#1A1757" stroke-linecap="round" stroke-linejoin="round"/>
<path d="M626.38 186.021C627.66 192.561 628.14 204.201 627.7 213.871C622.71 217.421 606.24 215.701 602.75 213.961C602.07 207.041 599.87 197.871 599.87 197.871" stroke="#1A1757" stroke-linecap="round" stroke-linejoin="round"/>
<path d="M622.44 191.881C624.03 184.521 621.82 176.281 617.06 170.351C616.47 169.621 615.48 169.551 614.54 169.541C614.15 169.541 613.74 169.591 613.4 169.791C612.32 170.421 611.7 172.911 611.25 174.051C610.46 176.051 609.98 178.191 609.78 180.321C609.63 181.871 609.64 183.461 610.05 184.961C611.26 189.431 615.72 192.531 616.64 197.061C616.94 198.551 617.33 199.441 617.66 200.921C617.99 200.861 618.23 200.581 618.44 200.321C620.48 197.801 621.78 194.911 622.44 191.871V191.881Z" stroke="#1A1757" stroke-linecap="round" stroke-linejoin="round"/>
<path d="M617.05 170.351C619.33 168.141 622.29 165.111 621.89 159.551C621.33 151.841 618.29 145.931 609.52 146.001C605.16 146.041 600.57 149.111 600.48 153.751C601 155.991 603.06 158.331 603.61 160.861C603.88 162.111 604.6 162.961 605.51 161.661C606.43 160.321 605.86 158.731 607.95 158.191C608.3 158.091 608.69 158.081 609.03 158.221C609.67 158.511 609.89 159.291 609.94 160.001C610.02 160.981 609.9 161.991 609.49 162.881C609.1 163.731 608.51 164.291 607.73 164.771C607.37 164.991 606.04 165.191 606.16 165.881C606.79 169.481 609.57 170.961 612.64 170.611" fill="#1A1757"/>
<path d="M622.44 191.881C624.03 184.521 621.82 176.281 617.06 170.351C616.47 169.621 615.48 169.551 614.54 169.541C614.15 169.541 613.74 169.591 613.4 169.791C612.32 170.421 611.7 172.911 611.25 174.051C610.46 176.051 609.98 178.191 609.78 180.321C609.63 181.871 609.64 183.461 610.05 184.961C611.26 189.431 615.72 192.531 616.64 197.061C616.94 198.551 617.33 199.441 617.66 200.921C617.99 200.861 618.23 200.581 618.44 200.321C620.48 197.801 621.78 194.911 622.44 191.871V191.881Z" fill="#1A1757"/>
<path d="M599.771 159.711L597.771 163.791L599.471 163.921" stroke="#1A1757" stroke-linecap="round" stroke-linejoin="round"/>
<path d="M605.5 170.651L605.23 172.441" stroke="#1A1757" stroke-linecap="round" stroke-linejoin="round"/>
<path d="M608.091 160.491C608.321 161.311 608.131 162.241 607.591 162.891" stroke="#1A1757" stroke-linecap="round" stroke-linejoin="round"/>
<path d="M611.7 170.671C609.77 170.951 605.8 171.921 604.6 172.781C603.34 173.681 602.29 174.891 601.38 176.761" stroke="#1A1757" stroke-linecap="round" stroke-linejoin="round"/>
<path d="M627.701 213.871C631.711 219.381 633.401 227.421 634.641 239.681C635.861 251.681 635.721 262.801 635.971 274.881C636.231 287.601 636.491 300.311 636.751 313.031C633.261 313.161 624.901 314.141 621.891 314.141C620.771 307.631 620.711 294.851 620.121 290.701C619.671 287.581 617.611 268.721 616.261 246.341" stroke="#1A1757" stroke-linecap="round" stroke-linejoin="round"/>
<path d="M634.75 313.151C635.61 316.991 635.98 322.051 636.3 325.991L613.92 326.031C613.92 326.031 613.96 319.561 623.64 319.111C626.69 318.621 624.91 314.141 624.91 314.141" stroke="#1A1757" stroke-linecap="round" stroke-linejoin="round"/>
<path d="M605.45 314.471C606.05 318.381 606.43 324.271 606.75 328.201H583.25C583.25 328.201 583.29 321.731 592.97 321.281C596.02 320.791 595 315.431 595 315.431" stroke="#1A1757" stroke-linecap="round" stroke-linejoin="round"/>
<path d="M623.24 233.561C621.22 238.601 617.62 242.601 615.6 247.521C612.77 254.391 610.78 266.411 609.64 276.951C608.34 288.891 607.48 302.491 605.88 314.381C602.25 315.151 597.56 315.431 590.23 315.121C590.96 280.431 591.48 246.411 602.75 213.961" stroke="#1A1757" stroke-linecap="round" stroke-linejoin="round"/>
<path d="M595.12 318.151C595.12 318.151 601.79 318.491 605.82 317.291" stroke="#1A1757" stroke-linecap="round" stroke-linejoin="round"/>
<path d="M625.42 316.821C625.42 316.821 630.59 316.701 635.02 314.921" stroke="#1A1757" stroke-linecap="round" stroke-linejoin="round"/>
<path d="M611.81 172.441C607.88 173.711 605.16 173.991 602.71 175.761C598.75 178.611 595.74 181.601 593.06 185.611C592.54 186.391 586.54 196.771 585.92 196.301C579.39 191.251 572.5 186.871 566.79 183.991C565.26 182.821 560.27 183.041 558.48 183.741C556.7 184.451 555.22 185.391 553.78 186.651C551.99 184.871 548.19 183.431 546 184.671C548.21 186.881 555.44 191.211 555.45 191.221M555.45 191.221V191.141C555.45 191.141 555.39 191.231 555.45 191.221ZM555.45 191.221C557.99 190.641 560.6 190.231 563.14 189.651C571.75 195.471 575.21 199.861 586.09 209.851C593.02 206.421 600.06 198.621 603.87 191.981" stroke="#1A1757" stroke-linecap="round" stroke-linejoin="round"/>
<path d="M572.051 196.611C574.521 194.161 575.831 192.141 577.171 190.011" stroke="#1A1757" stroke-linecap="round" stroke-linejoin="round"/>
<path d="M527.207 290.474V290.391" stroke="#021C4F" stroke-miterlimit="10"/>
<path d="M510 296H514.532" stroke="#021C4F" stroke-linecap="round" stroke-linejoin="round"/>
<defs>
<clipPath id="clip0_259_104">
<rect width="98" height="76" fill="white" transform="translate(16 135)"/>
</clipPath>
<clipPath id="clip1_259_104">
<rect width="99.07" height="89.03" fill="white" transform="translate(989 127)"/>
</clipPath>
<clipPath id="clip2_259_104">
<rect width="181" height="184" fill="white" transform="matrix(-1 0 0 1 907 159)"/>
</clipPath>
<clipPath id="clip3_259_104">
<rect width="203" height="110" fill="white" transform="translate(183 60)"/>
</clipPath>
<clipPath id="clip4_259_104">
<rect width="126" height="101" fill="white" transform="translate(226 241)"/>
</clipPath>
<clipPath id="clip5_259_104">
<rect width="156" height="79" fill="white" transform="translate(724 23)"/>
</clipPath>
</defs>
</svg>
