<svg width="356" height="179" viewBox="0 0 356 179" fill="none" xmlns="http://www.w3.org/2000/svg">
<g clip-path="url(#clip0_333_241)">
<path d="M175.96 25.9029C167.249 26.8384 164.36 20.17 163.372 14.9535C169.951 14.467 174.875 15.2978 175.324 18.8378C175.609 21.0681 175.871 23.4481 175.96 25.9029Z" fill="#021C4F"/>
<path d="M246.611 135.846H312.472" stroke="#021C4F" stroke-linecap="round" stroke-linejoin="round"/>
<path d="M316.775 135.846H324.536" stroke="#021C4F" stroke-linecap="round" stroke-linejoin="round"/>
<path d="M177.989 135.846H185.758" stroke="#021C4F" stroke-linecap="round" stroke-linejoin="round"/>
<path d="M39.0898 141.362H77.7756" stroke="#021C4F" stroke-linecap="round" stroke-linejoin="round"/>
<path d="M224.845 103.459L219.701 108.603L224.845 113.747L229.989 108.603L224.845 103.459Z" fill="#0EA7AF"/>
<path d="M185.755 152.479L182.854 155.379L185.755 158.279L188.655 155.379L185.755 152.479Z" fill="#0EA7AF"/>
<path d="M224.836 173.193L221.936 176.093L224.836 178.993L227.736 176.093L224.836 173.193Z" fill="#D82329"/>
<path d="M219.131 79.2868L216.23 82.1869L219.131 85.087L222.031 82.1869L219.131 79.2868Z" fill="#D82329"/>
<path d="M193.683 102.437L190.783 105.337L193.683 108.237L196.583 105.337L193.683 102.437Z" fill="#021C4F"/>
<path d="M159.038 27.2115L157.318 28.9314L159.038 30.6513L160.758 28.9314L159.038 27.2115Z" fill="#021C4F"/>
<path d="M165.856 28.9257L164.136 30.6456L165.856 32.3656L167.576 30.6456L165.856 28.9257Z" fill="#021C4F"/>
<path d="M160.751 33.6673L159.031 35.3873L160.751 37.1072L162.471 35.3873L160.751 33.6673Z" fill="#021C4F"/>
<path d="M135.486 87.3184C132.44 102.721 132.089 144.513 132.089 144.513H96.3066C98.2825 138.106 102.249 134.574 108.401 133.586C111.133 133.144 118.924 131.805 118.729 123.864C118.535 116.058 113.094 87.3184 117.666 72.6942" stroke="#021C4F" stroke-linecap="round" stroke-linejoin="round"/>
<path d="M52.9808 113.708C54.1035 128.467 38.7534 134.297 35.7148 135.015C35.8795 126.588 39.5991 114.217 53.7966 108.603" stroke="#021C4F" stroke-linecap="round" stroke-linejoin="round"/>
<path d="M97.5864 141.295C76.032 142.634 57.9352 141.392 54.1258 127.157C43.0193 85.7392 100.909 73.016 106.567 63.6158C112.225 54.2082 114.837 46.2001 114.837 36.0365C114.837 25.8729 107.443 12.6932 117.442 3.00865C127.456 -6.68341 128.324 22.2057 128.324 22.2057C137.462 20.5292 174.322 8.89873 175.587 18.8976C177.285 32.3992 178.386 51.5513 145.882 56.7678C139.109 57.853 134.259 60.682 132.852 65.0378" stroke="#021C4F" stroke-linecap="round" stroke-linejoin="round"/>
<path d="M151.15 55.8472C151.27 69.3937 153.044 102.242 132.852 123.377" stroke="#021C4F" stroke-linecap="round" stroke-linejoin="round"/>
<path d="M151.091 70.5836C156.39 79.2878 158.163 106.687 158.201 114.793C158.238 122.898 165.109 124.26 167.593 124.709C173.184 125.72 176.792 129.32 178.595 135.861H146.054C146.054 135.861 145.485 117.15 144.235 106.044" stroke="#021C4F" stroke-linecap="round" stroke-linejoin="round"/>
<path d="M145.881 131.161H132.335" stroke="#021C4F" stroke-linecap="round" stroke-linejoin="round"/>
<path d="M137.409 117.944C139.437 119.343 141.757 119.792 143 120.017C143.838 120.167 144.616 120.376 145.372 120.653" stroke="#021C4F" stroke-linecap="round" stroke-linejoin="round"/>
<path d="M85.8887 103.619C96.9877 103.215 111.567 104.742 112.652 128.025C112.652 128.025 115.264 127.883 117.33 129.043" stroke="#021C4F" stroke-linecap="round" stroke-linejoin="round"/>
<path d="M127.763 15.3726C135.067 1.81116 142.507 -3.20326 144.228 3.00115C145.949 9.20557 141.391 19.0698 141.391 19.0698" stroke="#021C4F" stroke-linecap="round" stroke-linejoin="round"/>
<path d="M163.372 15.0582C164.233 19.661 166.71 26.4866 175.586 26.0076" stroke="#021C4F" stroke-linecap="round" stroke-linejoin="round"/>
<path d="M171.627 70.5836C172.331 47.5397 158.777 44.4862 159.039 65.9659C164.076 135.771 160.76 153.389 144.617 156.435H0" stroke="#021C4F" stroke-width="2" stroke-miterlimit="10"/>
<path d="M177.285 84.5043H163.484L165.565 70.5836H175.205L177.285 84.5043Z" stroke="#021C4F" stroke-linecap="round" stroke-linejoin="round"/>
<path d="M205.485 151.301V132.111L224.839 135.008V148.405L205.485 151.301Z" stroke="#021C4F" stroke-linecap="round" stroke-linejoin="round"/>
<path d="M166.837 84.5043V89.0771" stroke="#021C4F" stroke-width="2" stroke-miterlimit="10"/>
<path d="M174.022 84.5043V89.0771" stroke="#021C4F" stroke-width="2" stroke-miterlimit="10"/>
<path d="M228.268 145.134V138.278H224.84V145.134H228.268Z" stroke="#021C4F" stroke-linecap="round" stroke-linejoin="round"/>
<path d="M228.253 141.706C236.71 141.01 235.4 146.668 250.197 147.97H355.993" stroke="#0EA7AF" stroke-width="2" stroke-miterlimit="10"/>
<path d="M138.757 22.9541C136.841 23.8597 135.815 25.9927 134.072 27.2051C133.203 27.8113 132.193 28.1706 131.295 28.7169C127.845 30.8424 126.76 35.2656 125.966 39.2397C125.51 41.5449 125.106 44.1269 126.415 46.0803C130.794 52.6066 145.343 50.0919 148.239 43.1465C150.589 37.5184 148.546 18.2914 138.749 22.9466L138.757 22.9541Z" fill="#DCE2E2"/>
<path d="M138.787 39.8909C139.737 39.8909 140.508 39.1202 140.508 38.1695C140.508 37.2188 139.737 36.4481 138.787 36.4481C137.836 36.4481 137.065 37.2188 137.065 38.1695C137.065 39.1202 137.836 39.8909 138.787 39.8909Z" fill="#021C4F"/>
<path d="M301.216 115.481H263.174V123.542H301.216V115.481Z" fill="#021C4F"/>
<path d="M301.216 102.676H263.174V135.816H301.216V102.676Z" stroke="#021C4F" stroke-linecap="round" stroke-linejoin="round"/>
<path d="M282.198 102.676C283.732 88.4934 294.697 75.8974 303.371 73.2929C308.453 71.7662 317.688 71.4443 324.544 74.8796C307.704 79.0782 299.127 87.1013 297.541 102.676" stroke="#021C4F" stroke-linecap="round" stroke-linejoin="round"/>
<path d="M276.899 98.4923C278.434 84.3097 285.267 74.6925 294.263 67.7696C302.435 61.4828 312.464 55.7798 312.464 55.7798C312.464 55.7798 306.634 67.5675 301.216 74.1237" stroke="#021C4F" stroke-linecap="round" stroke-linejoin="round"/>
<path d="M278.105 102.676C274.834 88.6805 264.199 74.3108 242.922 74.6925C249.059 80.3655 261.535 90.574 266.243 102.676" stroke="#021C4F" stroke-linecap="round" stroke-linejoin="round"/>
<path d="M267.933 83.9429C264.401 75.0667 259.282 62.2088 255.195 57.6733C262.971 59.9411 272.783 63.9152 280.312 85.2227" stroke="#021C4F" stroke-linecap="round" stroke-linejoin="round"/>
<path d="M275.71 74.685C275.71 74.685 279.849 53.5121 295.588 45.9531C290.656 58.9981 288.957 65.4345 287.827 73.6522" stroke="#021C4F" stroke-linecap="round" stroke-linejoin="round"/>
<path d="M162.908 51.454C162.908 51.454 157.856 50.6831 155.185 51.454" stroke="#021C4F" stroke-miterlimit="10"/>
</g>
<defs>
<clipPath id="clip0_333_241">
<rect width="356" height="179" fill="white"/>
</clipPath>
</defs>
</svg>
