<svg width="25" height="25" viewBox="0 0 25 25" fill="none" xmlns="http://www.w3.org/2000/svg">
<path d="M23.3333 12.1667C23.3333 5.99949 18.3338 1 12.1667 1C5.99949 1 1 5.99949 1 12.1667C1 18.3338 5.99949 23.3333 12.1667 23.3333C18.3338 23.3333 23.3333 18.3338 23.3333 12.1667Z" fill="#E6E6E6" stroke="#757575" stroke-width="1.70339"/>
<path d="M15.5174 9.93325C15.5174 11.7834 14.0175 13.2833 12.1674 13.2833C10.3172 13.2833 8.81735 11.7834 8.81735 9.93325C8.81735 8.08309 10.3172 6.58325 12.1674 6.58325C14.0175 6.58325 15.5174 8.08309 15.5174 9.93325Z" fill="#E6E6E6" stroke="#757575" stroke-width="1.70339"/>
<path d="M18.8671 21.1C18.8671 18.6331 15.8674 16.6333 12.1671 16.6333C8.46682 16.6333 5.46713 18.6331 5.46713 21.1" stroke="#757575" stroke-width="1.70339" stroke-linecap="round"/>
</svg>
