<svg width="10" height="10" viewBox="0 0 10 10" fill="none" xmlns="http://www.w3.org/2000/svg">
<path opacity="0.6" d="M5.00001 10C2.24286 10 0 7.75714 0 5C0 2.24286 2.24286 0 5.00001 0C5.23 0 5.41666 0.186661 5.41666 0.416643C5.41666 0.646625 5.23 0.833286 5.00001 0.833286C2.70251 0.833286 0.833395 2.70239 0.833395 4.99989C0.833395 7.29739 2.70251 9.1665 5.00001 9.1665C7.29752 9.1665 9.16663 7.29739 9.16663 4.99989C9.16663 4.76991 9.35288 4.58325 9.58327 4.58325C9.81367 4.58325 9.99992 4.76991 9.99992 4.99989C9.99992 7.75704 7.75706 9.99989 4.99991 9.99989L5.00001 10ZM5.00001 0.833393C4.89168 0.833393 4.78335 0.787564 4.70419 0.712579C4.6292 0.633407 4.58338 0.525079 4.58338 0.416757C4.58338 0.308429 4.6292 0.200096 4.70419 0.120936C4.86253 -0.0332214 5.14169 -0.0332214 5.29585 0.120936C5.37084 0.200107 5.41667 0.308436 5.41667 0.416757C5.41667 0.525086 5.37084 0.633418 5.29585 0.712579C5.21668 0.787564 5.10835 0.833393 5.00003 0.833393H5.00001ZM8.85002 3.40411C8.76255 3.19164 8.86209 2.94575 9.07506 2.85829C9.28752 2.77081 9.53342 2.87077 9.62088 3.08332C9.70835 3.29579 9.6084 3.54168 9.39585 3.62914C9.34165 3.65 9.28752 3.66249 9.2375 3.66249C9.07086 3.66249 8.91629 3.56664 8.85002 3.40418L8.85002 3.40411ZM7.94545 2.05407C7.78292 1.89154 7.78292 1.62487 7.94545 1.46241C8.1084 1.29988 8.37088 1.29988 8.53291 1.46241C8.69586 1.62494 8.69586 1.89161 8.53291 2.05407C8.45416 2.13324 8.34583 2.17489 8.24168 2.17489C8.13335 2.17489 8.02923 2.13324 7.94545 2.05407ZM6.59584 1.14991C6.38294 1.06244 6.28334 0.816554 6.3708 0.604089C6.45827 0.391625 6.69998 0.291589 6.91662 0.379054C7.12909 0.466525 7.22913 0.712411 7.13746 0.924875C7.07496 1.08322 6.91662 1.17905 6.75416 1.17905C6.69996 1.17905 6.64583 1.17075 6.59582 1.1499L6.59584 1.14991ZM9.58335 5.41652C9.47502 5.41652 9.36627 5.37069 9.28752 5.2957C9.21212 5.21653 9.16671 5.1082 9.16671 4.99988C9.16671 4.89156 9.21212 4.78322 9.28752 4.70406C9.44587 4.5499 9.72502 4.5499 9.87919 4.70406C9.95417 4.78323 10 4.89156 10 4.99988C10 5.1082 9.95417 5.21654 9.87919 5.2957C9.80001 5.37069 9.69167 5.41652 9.58335 5.41652ZM6.6662 6.24988C6.6037 6.24988 6.53994 6.23571 6.48037 6.20614L4.81373 5.37278C4.67247 5.30198 4.58333 5.1578 4.58333 4.99987V2.08326C4.58333 1.85328 4.76999 1.66662 4.99998 1.66662C5.22996 1.66662 5.41662 1.85328 5.41662 2.08326V4.74237L6.85287 5.46071C7.05871 5.5636 7.142 5.81401 7.03912 6.01985C6.96623 6.16571 6.81912 6.24984 6.66621 6.24984L6.6662 6.24988Z" fill="#1A1757"/>
</svg>
