<svg width="169" height="148" viewBox="0 0 169 148" fill="none" xmlns="http://www.w3.org/2000/svg">
<path d="M154.386 0H6.91211V148H154.386V0Z" fill="#1A1757"/>
<mask id="mask0_925_34" style="mask-type:luminance" maskUnits="userSpaceOnUse" x="6" y="0" width="149" height="148">
<path d="M154.386 0H6.91211V148H154.386V0Z" fill="white"/>
</mask>
<g mask="url(#mask0_925_34)">
<path d="M69.9412 81.254C74.1484 94.873 83.5276 105.429 95.2477 111.429C89.1583 122.698 78.8459 131.714 65.7023 135.81C38.9882 144.143 10.5974 129.159 2.29374 102.333C-6.00996 75.5238 8.92088 47.0317 35.6509 38.6984C48.8103 34.6032 62.3967 36.1587 73.7688 42C67.5054 53.6032 65.734 67.6349 69.957 81.254H69.9412Z" fill="#DCE2E2"/>
<path d="M99.0594 72.1746C103.267 85.7778 101.495 99.8095 95.2634 111.429C83.5433 105.429 74.1799 94.873 69.9569 81.254C65.7497 67.6349 67.5053 53.6032 73.7687 42C85.4729 48.0317 94.8522 58.5873 99.0594 72.1746Z" fill="#D72128"/>
<path d="M166.707 51.0952C175.011 77.9048 160.08 106.397 133.35 114.73C120.175 118.841 106.636 117.27 95.2476 111.429C101.495 99.8095 103.267 85.7778 99.0436 72.1746C94.8364 58.5714 85.4572 48.0159 73.7529 42C79.8265 30.7143 90.1231 21.7302 103.282 17.619C129.997 9.28571 158.387 24.2698 166.691 51.0952H166.707Z" fill="white"/>
</g>
</svg>
