<svg width="149" height="149" viewBox="0 0 149 149" fill="none" xmlns="http://www.w3.org/2000/svg">
<g clip-path="url(#clip0_926_47)">
<path d="M149 0H0V149H149V0Z" fill="#D82128"/>
<path d="M56.3881 51.7328C59.5945 51.223 62.6266 50.1228 65.3232 48.5263V52.9805C65.3232 56.0662 62.8144 58.575 59.7287 58.575H56.2942C54.5769 58.575 53.0474 57.1663 53.0877 55.4491C53.1279 53.5574 54.5366 52.0279 56.4015 51.7462L56.3881 51.7328Z" fill="#DCE2E2"/>
<path d="M84.602 27.3153V52.0145C84.602 55.6369 81.6639 58.5616 78.0549 58.5616C74.4325 58.5616 71.5078 55.6234 71.5078 52.0145V43.3879C73.3592 41.2547 74.8753 38.7727 75.9351 36.1029C77.0353 33.3794 77.639 30.401 77.7061 27.3153C77.7195 26.5774 78.2964 25.9737 79.0343 25.9737H83.2872C84.0251 25.9737 84.6154 26.564 84.6154 27.3019L84.602 27.3153Z" fill="#DCE2E2"/>
<path d="M92.2358 25.9871H102.674C103.479 25.9871 104.136 26.6445 104.136 27.4495V51.8803C104.136 55.5698 101.144 58.5616 97.4547 58.5616C93.7652 58.5616 90.7734 55.5698 90.7734 51.8803V27.4495C90.7734 26.6445 91.4308 25.9871 92.2358 25.9871Z" fill="#DCE2E2"/>
<path d="M123.214 31.1121V52.7255C123.214 55.9454 120.598 58.5616 117.378 58.5616H116.492C113.085 58.5616 110.308 55.7978 110.308 52.3767V27.8117C110.308 26.7921 111.126 25.9737 112.146 25.9737H118.062C120.893 25.9737 123.201 28.2679 123.201 31.1121H123.214Z" fill="#DCE2E2"/>
<path d="M123.214 72.4607V95.7512C123.214 110.603 111.22 122.664 96.3684 122.758L50.4985 123.04C46.0309 123.04 42.4085 119.417 42.4085 114.936V103.6C42.4085 101.399 41.5499 99.2931 39.9802 97.7368L38.1153 95.7378C30.1864 87.2454 25.7725 76.0697 25.7725 64.4647V45.5076C25.7725 34.7479 34.493 26.0139 45.2527 26.0139C53.2488 26.0139 66.5174 26.0139 70.4617 26.0139C71.0252 26.0139 71.4679 26.4969 71.4143 27.0738C71.1862 30.0388 70.3678 33.5002 69.1067 35.7675C68.8786 36.1834 68.6371 36.5725 68.3822 36.9615C67.6577 38.0348 66.8528 39.0411 65.9405 39.9399C65.7392 40.1412 65.5246 40.329 65.2965 40.5168C64.6123 41.1608 63.9146 41.7511 63.1365 42.2609C62.7608 42.5158 62.1035 42.9049 61.5668 43.2135H61.54C61.0033 43.4952 60.4667 43.8038 59.8898 44.0185C58.1323 44.6758 55.1136 45.4942 52.4975 45.4942C50.9278 45.4942 49.5325 46.1382 48.5531 47.1578C47.936 47.8018 47.4396 48.5531 47.1713 49.4386C47.0103 49.9484 46.9298 50.5119 46.9298 51.0888V61.4595C46.9432 63.1633 48.325 64.5452 50.0423 64.5452C52.7121 64.5452 56.1064 64.5452 59.7288 64.9745C63.3512 65.4307 67.2016 66.2893 70.7301 68.0602C75.9355 70.6496 80.4836 75.144 82.7644 82.9388C83.5693 85.6488 84.0791 88.8016 84.267 92.3838C84.3475 94.1144 85.6623 95.6975 87.3929 95.6975C89.1236 95.6975 90.4518 94.3157 90.4518 92.6387V92.4911C89.7944 77.626 84.0657 69.2543 76.9283 64.5049L76.9552 64.411H115.084C119.551 64.411 123.174 68.0334 123.174 72.501L123.214 72.4607Z" fill="white"/>
</g>
<defs>
<clipPath id="clip0_926_47">
<rect width="149" height="149" fill="white"/>
</clipPath>
</defs>
</svg>
