<svg width="148" height="148" viewBox="0 0 148 148" fill="none" xmlns="http://www.w3.org/2000/svg">
<g clip-path="url(#clip0_927_64)">
<path d="M148 0H0V148H148V0Z" fill="#1A1757"/>
<path d="M147.937 29.3831V78.3966H131.293V74.7586C129.76 74.9585 128.135 75.0917 126.442 75.1317C126.349 75.145 126.269 75.145 126.189 75.145C125.709 75.1583 125.243 75.1583 124.763 75.1583H124.15C123.79 75.1583 123.417 75.1583 123.057 75.145C122.724 75.145 122.418 75.1184 122.085 75.105C121.818 75.105 121.565 75.0917 121.312 75.0784C120.859 75.0517 120.432 75.0251 119.992 74.9718C119.832 74.9718 119.672 74.9585 119.513 74.9451C118.98 74.9051 118.433 74.8252 117.9 74.7719C117.833 74.7586 117.767 74.7586 117.7 74.7452C112.743 74.1189 107.719 72.7063 103.361 70.2143C103.361 70.1877 103.335 70.1877 103.335 70.1877C96.0319 64.8572 91.4611 58.474 89.5821 51.1713C89.1023 49.3323 87.7031 47.8798 85.9441 47.3467L81.8929 46.0941L71.7384 42.9358C68.6467 41.9896 66.8077 38.4182 67.7672 35.3665C68.1137 34.1672 68.82 33.1677 69.7928 32.3948C69.8061 32.3948 69.8194 32.3815 69.8328 32.3681C71.4452 31.4353 73.3908 31.7152 74.9767 32.2482C83.2655 35.0467 105.36 42.496 112.303 44.8414C113.476 45.2412 114.742 44.6015 115.142 43.4288C115.541 42.2561 114.915 40.9768 113.742 40.5904C106.799 38.245 84.7047 30.7957 76.4159 27.9972C72.5913 26.6912 67.7672 26.9311 64.7955 31.0089C56.2801 28.97 50.4832 27.4908 50.4832 27.4908C46.1123 26.2648 43.8601 24.0526 44.0067 20.4812C44.1 18.6822 44.8729 17.0164 46.2055 15.7771C47.5382 14.5778 49.2572 13.9381 51.0563 14.0047L77.8418 15.1641C94.5927 15.897 103.734 16.7766 114.195 24.4391C114.409 24.639 114.582 24.7989 114.822 24.9455C117.234 26.7712 119.739 28.9833 122.418 31.5952H131.306V29.4231H147.951L147.937 29.3831Z" fill="#DCE2E2"/>
<path d="M0 118.014V69H16.6443V72.638C18.1768 72.4381 19.8026 72.3049 21.495 72.2649C21.5883 72.2516 21.6683 72.2516 21.7482 72.2516C22.228 72.2382 22.6944 72.2383 23.1741 72.2383H23.7871C24.1469 72.2383 24.5201 72.2382 24.8799 72.2516C25.213 72.2516 25.5195 72.2782 25.8527 72.2916C26.1192 72.2916 26.3724 72.3049 26.6256 72.3182C27.0787 72.3449 27.5051 72.3715 27.9449 72.4248C28.1048 72.4248 28.2647 72.4381 28.4246 72.4515C28.9577 72.4914 29.5041 72.5714 30.0371 72.6247C30.1037 72.638 30.1704 72.638 30.237 72.6514C35.1943 73.2777 40.2183 74.6903 44.5759 77.1822C44.5759 77.2089 44.6026 77.2089 44.6026 77.2089C51.9053 82.5393 56.4761 88.9226 58.3551 96.2253C58.8349 98.0643 60.2341 99.5168 61.9932 100.05L66.0443 101.303L76.1988 104.461C79.2905 105.407 81.1295 108.978 80.17 112.03C79.8235 113.229 79.1172 114.229 78.1444 115.002C78.1311 115.002 78.1178 115.015 78.1044 115.028C76.492 115.961 74.5464 115.681 72.9606 115.148C64.6717 112.35 42.577 104.901 35.6341 102.555C34.4614 102.155 33.1954 102.795 32.7956 103.968C32.3958 105.14 33.0221 106.42 34.1949 106.806C41.1378 109.152 63.2325 116.601 71.5213 119.399C75.3459 120.705 80.17 120.466 83.1417 116.388C91.6571 118.427 97.454 119.906 97.454 119.906C101.825 121.132 104.077 123.344 103.93 126.915C103.837 128.714 103.064 130.38 101.732 131.619C100.399 132.819 98.68 133.458 96.881 133.392L70.0954 132.232C53.3445 131.5 44.2028 130.62 33.7418 122.958C33.5285 122.758 33.3553 122.598 33.1154 122.451C30.7034 120.625 28.1981 118.413 25.5195 115.801H16.631V117.974H0V118.014Z" fill="#DCE2E2"/>
<path d="M72.0205 85.2043C70.9398 86.2652 69.1754 86.2652 68.0946 85.2043L57.9712 75.2665C56.5265 73.8483 56.6919 71.445 58.4784 70.265C59.8018 69.3882 61.6103 69.648 62.7352 70.763L70.0576 77.9512L85.2648 63.0227C86.4007 61.9077 88.1982 61.6479 89.5216 62.5248C91.3081 63.7048 91.4735 66.108 90.0288 67.5262L72.0205 85.2043Z" fill="#0EA7AF"/>
</g>
<defs>
<clipPath id="clip0_927_64">
<rect width="148" height="148" fill="white"/>
</clipPath>
</defs>
</svg>
