<svg width="340" height="274" viewBox="0 0 340 274" fill="none" xmlns="http://www.w3.org/2000/svg">
<g clip-path="url(#clip0_1112_359)">
<path d="M334.238 11.3467L328.629 16.9584L334.238 22.57L339.846 16.9584L334.238 11.3467Z" fill="#0EA7AF"/>
<path d="M5.06699 263.656L-0.0664062 268.792L5.06698 273.929L10.2004 268.792L5.06699 263.656Z" fill="#0EA7AF"/>
<path d="M136.994 0L131.348 5.64948L136.994 11.299L142.641 5.64948L136.994 0Z" fill="#D72329"/>
<path d="M275.74 93.889L270.094 99.5385L275.74 105.188L281.387 99.5385L275.74 93.889Z" fill="#D72329"/>
<path d="M313.651 169.619L305.988 177.286L313.651 184.953L321.314 177.286L313.651 169.619Z" fill="#1A1757"/>
<path d="M96.5312 121.598L99.3545 133.166L103.791 136.933C107.421 126.037 111.185 113.931 111.185 113.931L102.178 110.165L102.312 112.586C102.312 112.586 100.564 117.967 96.5312 121.598Z" fill="#D72329"/>
<path d="M75.0192 108.954C74.8848 115.545 75.0192 109.223 75.0192 113.259C77.1703 117.832 85.64 125.903 89.8077 125.768C85.9089 128.997 82.8168 132.494 76.6325 139.623C73.9437 132.763 66.0117 114.066 66.0117 114.066L75.0192 108.954Z" fill="#D72329"/>
<path d="M102.177 49.6347C103.656 52.4595 104.866 57.1674 106.076 60.6647C105.135 60.6647 104.328 61.4717 103.387 62.9514C100.429 55.1497 97.0682 49.0967 95.0515 44.9268C85.6407 45.4649 62.9203 53.6701 57.6771 58.2435C60.2315 62.5478 64.2647 80.7069 63.1892 81.5139C61.9792 82.59 59.0215 79.3618 57.0049 80.7069C56.6016 80.9759 56.3327 81.2449 56.1982 81.5139C56.1982 81.5139 56.1982 81.6485 56.0638 81.6485C52.2995 73.9813 48.5351 63.0859 49.2073 54.7462C50.2829 42.9091 55.526 36.4526 66.2813 32.4172C73.6755 29.5925 87.3884 24.3465 94.9171 28.3819C98.0092 29.996 93.4383 33.7624 92.6316 35.3765C95.0516 33.6278 98.2781 32.4172 101.236 33.3588C104.194 34.3004 107.555 37.1251 105.941 39.6809C105.135 40.8915 101.236 41.6985 100.16 42.6401C98.0092 45.0613 101.101 47.4825 102.177 49.6347Z" fill="#1A1757"/>
<path d="M102.04 110.165L111.048 114.066C111.048 114.066 107.284 126.172 103.654 137.067L99.3516 133.166" stroke="#1A1757" stroke-width="0.8384" stroke-linecap="round" stroke-linejoin="round"/>
<path d="M102.043 96.4448C101.909 100.346 102.043 106.802 102.043 110.165C102.043 111.376 102.043 112.452 102.178 113.259C100.833 115.545 98.8167 118.908 96.5312 121.598" stroke="#1A1757" stroke-width="0.8384" stroke-linecap="round" stroke-linejoin="round"/>
<path d="M91.4219 125.634C90.8841 125.768 90.3464 125.903 89.8086 125.903C90.4808 126.575 91.2874 127.382 91.9596 128.055" stroke="#1A1757" stroke-width="0.8384" stroke-linecap="round" stroke-linejoin="round"/>
<path d="M75.4226 99.5386C75.2881 106.13 75.0192 109.223 75.0192 113.259C77.1703 117.832 85.64 125.903 89.8077 125.768C85.9089 128.997 82.8168 132.494 76.6325 139.623C73.9437 132.763 66.0117 114.066 66.0117 114.066L74.8848 108.82" stroke="#1A1757" stroke-width="0.8384" stroke-linecap="round" stroke-linejoin="round"/>
<path d="M107.285 76.2681C104.328 61.8754 98.1434 51.2489 95.1857 45.1959C85.7749 45.734 63.0544 53.9392 57.8112 58.5126C60.3656 62.9514 64.3988 80.976 63.3233 81.7831C62.1133 82.7246 59.1556 79.6309 57.139 80.8415C55.1224 82.0521 55.9291 84.6078 56.6013 86.2219C58.349 90.2573 63.5922 94.2926 66.9532 90.3918C69.5076 95.0997 72.8686 98.1935 77.1707 100.749C80.2628 102.632 83.8927 103.305 87.5226 102.901C94.6479 102.229 101.639 98.7315 104.865 92.6785C107.554 87.9706 107.958 82.1866 107.285 76.2681Z" stroke="#1A1757" stroke-width="0.8384" stroke-linecap="round" stroke-linejoin="round"/>
<path d="M106.209 60.2611C104.864 56.7638 103.923 53.132 102.31 49.7692C101.234 47.4825 98.0079 45.0613 100.562 42.7746C101.503 41.8331 105.537 41.026 106.343 39.8154C107.957 37.2597 104.595 34.4349 101.638 33.4933C98.6801 32.5518 95.588 33.7624 93.0336 35.511C93.8402 33.7624 98.4112 30.1306 95.3191 28.5164C87.7904 24.4811 74.0775 29.727 66.6833 32.5518C55.928 36.5871 50.6848 43.0437 49.6093 54.8807C48.8027 63.7584 52.4326 73.9813 56.4658 81.6485" stroke="#1A1757" stroke-width="0.8384" stroke-linecap="round" stroke-linejoin="round"/>
<path d="M64.9375 85.9529C65.4753 87.567 66.6852 90.2572 68.0296 92.1404" stroke="#1A1757" stroke-width="0.8384" stroke-linecap="round" stroke-linejoin="round"/>
<path d="M103.52 63.0859C105.402 59.7232 107.553 60.2612 109.032 63.2205C110.51 66.1797 110.376 73.0398 107.149 73.3088" stroke="#1A1757" stroke-width="0.8384" stroke-linecap="round" stroke-linejoin="round"/>
<path d="M53.9099 267.14H41.6758L42.7513 218.447" stroke="#1A1757" stroke-width="0.8384" stroke-linecap="round" stroke-linejoin="round"/>
<path d="M134.844 217.64L136.995 257.859" stroke="#1A1757" stroke-width="0.8384" stroke-linecap="round" stroke-linejoin="round"/>
<path d="M131.484 154.823L133.635 197.059" stroke="#1A1757" stroke-width="0.8384" stroke-linecap="round" stroke-linejoin="round"/>
<path d="M109.703 193.024C113.602 193.966 118.576 197.597 119.786 200.019C129.063 200.019 147.75 191.813 151.245 189.796C147.212 178.497 139.683 168.005 131.482 154.823" stroke="#1A1757" stroke-width="0.8384" stroke-linecap="round" stroke-linejoin="round"/>
<path d="M110.375 116.487C120.458 115.949 131.885 120.119 144.388 128.862C158.639 138.816 175.982 168.812 182.166 196.656" stroke="#1A1757" stroke-width="0.8384" stroke-linecap="round" stroke-linejoin="round"/>
<path d="M155.683 213.873C148.692 215.622 141.567 216.967 134.845 217.774C127.989 218.581 121.535 218.716 116.023 218.312" stroke="#1A1757" stroke-width="0.8384" stroke-linecap="round" stroke-linejoin="round"/>
<path d="M116.021 218.178C113.198 218.985 110.375 219.523 107.821 219.792C100.426 220.464 94.3765 219.119 91.2844 217.505C84.5624 213.873 83.8902 201.767 86.0412 195.176C86.9823 192.351 86.9823 192.755 90.0744 193.697C92.7633 194.504 97.0653 196.79 99.7542 197.597C102.846 198.539 106.073 199.346 109.165 199.884C109.568 200.019 110.106 200.019 110.509 200.153" stroke="#1A1757" stroke-width="0.8384" stroke-linecap="round" stroke-linejoin="round"/>
<path d="M107.821 219.792L107.283 227.459L89.9405 226.248L64.5312 224.5L66.6823 192.486L68.1611 170.964L68.5645 165.584L82.6807 166.525L89.9405 167.063L111.317 168.543L109.703 193.024L109.165 199.884" stroke="#1A1757" stroke-width="0.8384" stroke-linecap="round" stroke-linejoin="round"/>
<path d="M111.317 168.543L109.569 193.024L109.031 199.884C105.804 199.346 102.712 198.539 99.6202 197.597C96.9314 196.79 92.6293 194.504 89.9405 193.697C86.8484 192.755 86.7139 192.486 85.9073 195.176C83.7562 201.767 84.4284 213.873 91.1505 217.505C94.2426 219.254 100.292 220.599 107.687 219.792L107.149 227.459L89.8061 226.248L64.5312 224.5L66.6823 192.486L68.1611 170.964L68.5645 165.584L82.6807 166.525L89.9405 167.063L111.317 168.543Z" fill="#1A1757"/>
<path d="M23.6641 187.375L47.9978 171.368L61.5763 162.355L68.1639 158.051C73.6759 152.133 79.5913 146.887 86.3133 139.892L103.118 139.757L111.588 145.81C111.588 145.81 108.496 147.694 102.581 148.501C101.102 148.77 99.3541 148.904 97.3375 148.904C96.9341 148.904 96.3964 148.904 95.9931 148.904C95.9931 148.904 94.3798 155.63 89.9432 159.934C88.4644 161.414 86.5822 162.624 84.4312 163.162C83.8934 164.239 83.3556 165.449 82.6834 166.525" stroke="#1A1757" stroke-width="0.8384" stroke-linecap="round" stroke-linejoin="round"/>
<path d="M66.8181 192.486C48.2653 217.909 27.2926 231.898 13.4452 229.477C4.03439 200.019 15.4618 158.993 32.4013 137.336C42.7533 124.154 56.0629 116.487 67.2214 116.621" stroke="#1A1757" stroke-width="0.8384" stroke-linecap="round" stroke-linejoin="round"/>
<path d="M61.5742 162.355C62.3809 164.104 65.0697 167.601 68.2962 170.964" stroke="#1A1757" stroke-width="0.8384" stroke-linecap="round" stroke-linejoin="round"/>
<path d="M66.0111 192.351C56.4658 186.298 50.9538 177.959 47.9961 171.368" stroke="#1A1757" stroke-width="0.8384" stroke-linecap="round" stroke-linejoin="round"/>
<path d="M62.1124 172.175C64.2634 173.52 62.1124 176.883 59.9613 175.538C57.8103 174.058 59.9613 170.695 62.1124 172.175Z" fill="#1A1757"/>
<path d="M123.82 200.288C124.223 204.457 124.761 214.949 123.551 218.178" stroke="#1A1757" stroke-width="0.8384" stroke-linecap="round" stroke-linejoin="round"/>
<path d="M139.281 195.042C139.281 195.042 141.567 209.165 140.088 216.967" stroke="#1A1757" stroke-width="0.8384" stroke-linecap="round" stroke-linejoin="round"/>
<path d="M130.004 212.394C129.466 209.838 133.365 209.031 133.903 211.587C134.44 214.008 130.542 214.949 130.004 212.394Z" fill="#1A1757"/>
<path d="M90.4795 97.2519C91.0173 97.7899 91.2862 98.328 91.5551 99.135L92.765 104.516C92.765 104.516 89.1351 104.112 86.5808 106.13L85.2364 101.018C84.833 99.2696 85.5052 97.5209 86.9841 96.8483C88.1941 96.1758 89.5385 96.4448 90.4795 97.2519Z" fill="#D72329"/>
<path d="M94.7833 138.95L85.1036 101.018C84.7002 99.2696 85.3724 97.5209 86.8513 96.7139C87.2546 96.4448 87.7924 96.4448 88.1957 96.4448C89.6745 96.4448 91.0189 97.5209 91.4223 99.1351L100.43 139.489" stroke="#1A1757" stroke-width="0.8384" stroke-linecap="round" stroke-linejoin="round"/>
<path d="M102.579 148.501L103.789 154.016L99.0837 155.764L97.3359 149.039" stroke="#1A1757" stroke-width="0.8384" stroke-linecap="round" stroke-linejoin="round"/>
<path d="M103.787 154.016L103.115 160.472C103.115 160.741 102.712 160.876 102.443 160.607L99.082 155.764" stroke="#1A1757" stroke-width="0.8384" stroke-linecap="round" stroke-linejoin="round"/>
<path d="M103.253 158.589L101.371 158.993" stroke="#1A1757" stroke-width="0.8384" stroke-linecap="round" stroke-linejoin="round"/>
<path d="M92.6296 104.515C92.6296 104.515 88.9997 104.112 86.4453 106.13" stroke="#1A1757" stroke-width="0.8384" stroke-linecap="round" stroke-linejoin="round"/>
<path d="M234.196 41.5641V90.2573L177.193 90.5263L157.565 116.083V90.5263L137.668 90.2573V41.5641H234.196Z" stroke="#1A1757" stroke-width="0.8384" stroke-linecap="round" stroke-linejoin="round"/>
<path d="M172.218 59.3196H158.371" stroke="#1A1757" stroke-width="0.8384" stroke-miterlimit="10"/>
<path d="M213.493 71.5602H158.238" stroke="#1A1757" stroke-width="0.8384" stroke-miterlimit="10"/>
<path d="M213.491 59.3196H177.461" stroke="#1A1757" stroke-width="0.8384" stroke-miterlimit="10"/>
<path d="M234.198 71.4256H302.897V27.7094H223.98V41.4295" stroke="#1A1757" stroke-width="0.8384" stroke-miterlimit="10"/>
<path d="M251.135 49.6347C251.135 53.8046 244.547 53.8046 244.682 49.6347C244.547 45.4649 251.135 45.4649 251.135 49.6347Z" fill="#1A1757"/>
<path d="M267.537 49.6347C267.537 53.8046 260.95 53.8046 261.084 49.6347C261.084 45.4649 267.672 45.4649 267.537 49.6347Z" fill="#1A1757"/>
<path d="M283.94 49.6347C283.94 53.8046 277.352 53.8046 277.486 49.6347C277.486 45.4649 284.074 45.4649 283.94 49.6347Z" fill="#1A1757"/>
<path d="M102.176 267.14H243.607L245.624 257.859H102.176V267.14Z" stroke="#1A1757" stroke-width="0.8384" stroke-miterlimit="10"/>
<path d="M152.727 257.859V267.14" stroke="#1A1757" stroke-width="0.8384" stroke-miterlimit="10"/>
<path d="M245.624 257.859H141.836L161.061 196.521H264.849L245.624 257.859Z" stroke="#1A1757" stroke-width="0.8384" stroke-miterlimit="10"/>
<path d="M102.175 267.14H64.5312" stroke="#1A1757" stroke-width="0.8384" stroke-linecap="round" stroke-linejoin="round"/>
<path d="M209.996 231.494C212.685 228.132 212.819 223.693 210.399 221.81C207.979 219.926 203.812 221.137 201.123 224.634C198.434 227.997 198.299 232.436 200.719 234.319C203.139 236.202 207.307 234.857 209.996 231.494Z" fill="#0EA7AF"/>
<path d="M222.635 118.236H198.301V142.582H222.635V118.236Z" stroke="#1A1757" stroke-width="0.8384" stroke-linecap="round" stroke-linejoin="round"/>
<path d="M205.695 128.324H215.241" stroke="#1A1757" stroke-width="0.8384" stroke-linecap="round" stroke-linejoin="round"/>
<path d="M205.695 133.704H215.241" stroke="#1A1757" stroke-width="0.8384" stroke-linecap="round" stroke-linejoin="round"/>
<path d="M279.369 125.365H255.035V149.711H279.369V125.365Z" stroke="#1A1757" stroke-width="0.8384" stroke-linecap="round" stroke-linejoin="round"/>
<path d="M262.43 134.781H271.975" stroke="#1A1757" stroke-width="0.8384" stroke-linecap="round" stroke-linejoin="round"/>
<path d="M262.43 140.161H271.975" stroke="#1A1757" stroke-width="0.8384" stroke-linecap="round" stroke-linejoin="round"/>
<path d="M262.697 149.711V164.508H238.363V140.161H255.034" stroke="#1A1757" stroke-width="0.8384" stroke-linecap="round" stroke-linejoin="round"/>
<path d="M245.758 155.764H255.303" stroke="#1A1757" stroke-width="0.8384" stroke-linecap="round" stroke-linejoin="round"/>
<path d="M243.473 267.14H289.855" stroke="#1A1757" stroke-width="0.8384" stroke-miterlimit="10"/>
</g>
<defs>
<clipPath id="clip0_1112_359">
<rect width="340" height="274" fill="white"/>
</clipPath>
</defs>
</svg>
