<svg width="10" height="20" viewBox="0 0 10 20" fill="none" xmlns="http://www.w3.org/2000/svg">
<path fill-rule="evenodd" clip-rule="evenodd" d="M2.76164 10.0712V18.7722C2.76164 18.8956 2.85698 19 2.97957 19H6.07151C6.18956 19 6.28944 18.9003 6.28944 18.7722V9.9288H8.53235C8.64586 9.9288 8.73666 9.83861 8.75028 9.71994L8.96368 7.05696C8.97276 6.92405 8.87287 6.81013 8.74574 6.81013H6.28944V4.92089C6.28944 4.47943 6.63451 4.11867 7.05675 4.11867H8.78207C8.90011 4.11867 9 4.01899 9 3.89082V1.22785C9 1.10443 8.90465 1 8.78207 1H5.86266C4.15096 1 2.76164 2.45253 2.76164 4.24209V6.81013H1.21793C1.09989 6.81013 1 6.90981 1 7.03798V9.70095C1 9.82437 1.09535 9.9288 1.21793 9.9288H2.76164V10.0712V10.0712Z" stroke="#021C4F" stroke-linejoin="round"/>
</svg>
