<svg width="451" height="277" viewBox="0 0 451 277" fill="none" xmlns="http://www.w3.org/2000/svg">
<g clip-path="url(#clip0_137_3929)">
<path d="M101.59 129.298C100.536 134.68 97.9335 140.118 96.4194 142.77C89.6452 134.624 84.273 125.321 80.6055 115.377L85.6637 114.097C85.6637 114.097 96.9802 127.208 101.792 129.096C105.784 122.995 105.549 115.872 105.549 115.872L108.611 117.771C110.551 124.568 111.785 132.309 111.459 139.006C108.824 135.186 105.538 131.826 101.792 129.085" fill="#D82329"/>
<path d="M63.1657 146.792C64.2648 156.645 68.4482 171.341 76.7365 182.936H29.7882L29.6312 144.196L4.91211 126.534H29.6312L29.7882 75.3003H78.8451C77.9815 77.0867 77.4207 79.0417 77.0506 81.0304C75.5477 89.2885 77.23 96.7826 78.9684 99.6589C72.2279 102.636 65.7453 109.928 64.119 116.872C62.4031 124.186 62.2573 138.399 63.0984 146.208C63.1209 146.41 63.1433 146.601 63.1657 146.792Z" fill="#DCE2E2"/>
<path d="M160.449 94.513L159.81 97.2657C158.924 100.996 158.229 103.805 157.343 107.906V107.928C153.922 110.49 153.058 113.568 153.036 116.242C153.036 116.4 153.036 116.557 153.036 116.726C153.058 118.051 153.283 119.265 153.462 120.254C153.518 120.579 153.586 120.916 153.642 121.242C153.642 121.242 153.642 121.265 153.597 121.31C152.161 123.613 150.591 125.939 148.965 128.197C146.049 132.253 142.964 136.141 140.172 139.489C138.445 141.567 136.83 143.432 135.439 144.994C135.248 145.219 135.057 145.444 134.856 145.657C132.534 148.264 130.941 149.949 130.672 150.23C130.661 150.252 130.639 150.264 130.627 150.275C130.627 150.252 130.605 150.219 130.605 150.196C130.381 149.376 128.407 142.455 124.952 135.163C124.919 135.096 124.885 135.028 124.863 134.972C122.036 129.028 118.245 122.883 113.613 119.602C113.423 119.478 113.243 119.343 113.053 119.231C112.929 119.152 112.806 119.085 112.694 119.006C111.864 118.501 111.011 118.085 110.137 117.782C110.137 117.782 110.103 117.77 110.092 117.77C108.634 117.265 105.605 117.063 105.549 116.793C105.415 115.984 105.471 113.973 105.482 112.4C110.944 113.793 114.185 112.771 116.159 110.827C118.402 108.636 119.019 105.288 119.401 102.973C119.782 100.67 119.973 98.4791 120.029 96.4006C120.04 95.9961 120.04 95.6028 120.04 95.2096C122.171 95.1647 124.369 93.3557 125.109 90.2547C125.165 90.0188 124.829 89.6143 124.582 89.6256C122.956 89.648 121.33 89.693 119.692 89.7491C118.559 80.7495 115.038 75.3003 115.038 75.3003H156.659C156.659 75.3003 154.202 87.4571 154.539 94.1422C157.332 94.4006 158.509 94.2883 160.438 94.513H160.449Z" fill="#DCE2E2"/>
<path d="M121.117 167.027V170.937C121.117 170.937 124.336 171.24 127.196 171.263C123.91 168.971 121.117 167.027 121.117 167.027Z" fill="#DCE2E2"/>
<path d="M173.941 107.546C173.1 110.063 171.575 111.029 171.339 111.625C171.104 112.22 166.505 122.579 161.952 131.837C157.398 141.095 152.867 150.657 150.041 154.791C155.783 154.533 168.816 153.96 168.816 153.96L159.742 182.936H180.951V94.1422H164.251C164.251 94.1422 163.444 100.794 163.444 104.142C164.453 101.378 165.81 99.6588 167.122 99.9622C168.435 100.266 170.251 102.209 172.708 104.378C174.469 105.928 174.424 106.119 173.941 107.557V107.546Z" fill="#DCE2E2"/>
<path d="M267.74 34.0768L267.74 34.0762C267.258 30.5947 267.595 27.2051 268.608 24.0773C278.338 27.0176 286.62 31.522 293.484 37.5429C297.392 40.9708 300.732 44.8169 303.485 49.0611C300.539 51.274 297.005 52.7955 293.095 53.3339C280.786 55.0265 269.429 46.4097 267.74 34.0768Z" fill="#F8F8F8" stroke="#D82128"/>
<path d="M115.049 75.3003H180.951V182.936H159.743" stroke="#1A1757" stroke-linecap="round" stroke-linejoin="round"/>
<path d="M449.049 173.072L422.647 189.61L422.479 238.361H392.22C392.545 234.17 392.769 230.463 392.937 227.114L393.195 227.317C395.876 227.643 397.177 228.002 402.123 227.519C406.452 203.632 400.418 183.667 391.378 172.881C388.025 168.881 383.662 165.87 378.559 164.566C376.843 164.128 375.116 164.645 373.389 165.173C374.207 163.432 375.138 161.578 375.688 160.51C380.589 151.938 388.675 150.792 390.627 142.522C390.93 141.253 391.143 139.961 391.255 138.68H422.479L422.647 173.072H449.049Z" fill="#DCE2E2"/>
<path d="M347.189 160.522C328.863 162.05 330.949 180.847 315.786 196.711C309.528 190.408 289.699 174.083 279.627 167.42V139.803H345.664L343.791 142.904L346.898 143.725C346.898 143.725 345.462 149.522 347.29 151.938C347.29 151.938 349.029 155.859 355.848 158.274C355.668 160.117 354.861 162.263 354.861 162.263C354.861 162.263 350.016 160.274 347.178 160.51L347.189 160.522Z" fill="#DCE2E2"/>
<path d="M340.079 238.361C327.158 238.361 279.627 238.361 279.627 238.361V185.802C289.037 197.475 302.058 212.306 314.148 225.935C325.88 220.171 331.05 214.441 337.981 206.014C337.981 206.014 341.425 226.249 340.079 238.35V238.361Z" fill="#DCE2E2"/>
<path d="M375.643 50.2563V93.6591L408.403 93.7939L408.302 105.827L417.578 93.7939L428.434 93.6591V50.2563H375.643Z" stroke="#1A1757" stroke-linecap="round" stroke-linejoin="round"/>
<path d="M76.7253 182.936H29.7882L29.6312 144.185L4.91211 126.534H29.6312L29.7882 75.3003H78.8451" stroke="#1A1757" stroke-linecap="round" stroke-linejoin="round"/>
<path d="M163.668 104.704C163.522 104.198 163.443 103.692 163.443 103.221C163.443 102.468 164.52 101.221 165.429 100.299C166.101 99.614 167.212 99.5578 167.963 100.198L173.537 105.097C174.255 105.715 174.435 106.737 173.941 107.535C173.302 108.58 171.418 111.321 170.711 111.456C168.322 111.973 166.371 111.209 164.969 109.906" fill="white"/>
<path d="M163.668 104.704C163.522 104.198 163.443 103.692 163.443 103.221C163.443 102.468 164.52 101.221 165.429 100.299C166.101 99.614 167.212 99.5578 167.963 100.198L173.537 105.097C174.255 105.715 174.435 106.737 173.941 107.535C173.302 108.58 171.418 111.321 170.711 111.456C168.322 111.973 166.371 111.209 164.969 109.906" stroke="#1A1757" stroke-linecap="round" stroke-linejoin="round"/>
<path d="M162.894 104.805C163.791 101.535 164.15 95.2546 164.43 91.8727C164.475 91.2773 164.464 90.5582 163.959 90.2436C163.645 90.0526 163.241 90.0863 162.894 90.2099C161.548 90.7155 161.032 92.3109 160.639 93.6929L157.342 107.917" fill="white"/>
<path d="M162.894 104.805C163.791 101.535 164.15 95.2546 164.43 91.8727C164.475 91.2773 164.464 90.5582 163.959 90.2436C163.645 90.0526 163.241 90.0863 162.894 90.2099C161.548 90.7155 161.032 92.3109 160.639 93.6929L157.342 107.917" stroke="#1A1757" stroke-linecap="round" stroke-linejoin="round"/>
<path d="M99.0334 108.423C102.465 111.4 107.355 113.524 111.999 112.748C120.702 111.299 120.264 99.8274 119.883 93.0749C119.423 85.1202 117.191 76.1992 110.832 70.8623C103.374 64.6041 91.1601 64.0087 83.3429 69.7388C79.6866 72.4241 77.8473 76.6149 77.0397 81.0304C75.5256 89.3447 77.2416 96.8725 79.0025 99.7263C80.7633 102.58 84.9579 107.434 90.0722 105.827" stroke="#1A1757" stroke-linecap="round" stroke-linejoin="round"/>
<path d="M105.493 112.4C105.953 118.254 104.562 124.242 101.59 129.298C95.9488 125.388 89.9821 119.445 85.6642 114.097C89.1298 110.557 90.913 105.434 90.3859 100.502C90.341 100.075 90.2738 99.6364 90.0158 99.2994C89.7242 98.9061 89.2307 98.7151 88.7597 98.5466C86.4717 97.7039 84.0716 96.7264 82.6135 94.7715C81.1555 92.8053 81.1892 89.547 83.2865 88.3111C85.7202 86.8729 88.6587 88.9515 90.7672 90.8503C91.2383 91.2772 91.7766 91.7154 92.4047 91.6929C92.8085 91.6705 93.1898 91.457 93.5263 91.2323C97.6536 88.547 100.469 83.9067 100.929 78.9968C106.11 79.0418 111.28 79.098 116.462 79.1429" stroke="#1A1757" stroke-linecap="round" stroke-linejoin="round"/>
<path d="M62.8853 140.5C61.9657 132.837 62.3582 124.377 64.119 116.86C65.8799 109.355 71.7008 102.142 79.0021 99.7151" stroke="#1A1757" stroke-linecap="round" stroke-linejoin="round"/>
<path d="M101.062 90.1312C103.99 90.0975 106.906 90.0975 109.833 90.1312C110.023 90.1312 110.237 90.1425 110.382 90.2661C110.551 90.4121 110.562 90.6705 110.551 90.8953C110.427 93.1761 108.532 95.2434 106.277 95.5467C104.023 95.8501 101.455 94.0974 100.558 90.7717C100.49 90.5357 100.827 90.1312 101.073 90.1312H101.062Z" stroke="#1A1757" stroke-linecap="round" stroke-linejoin="round"/>
<path d="M124.594 89.6256C121.666 89.6818 118.75 89.7604 115.834 89.884C115.644 89.884 115.431 89.9065 115.296 90.0413C115.128 90.1986 115.128 90.4458 115.139 90.6705C115.318 92.9513 117.281 94.9625 119.547 95.1984C121.812 95.4344 124.324 93.603 125.121 90.2548C125.177 90.0189 124.829 89.6256 124.594 89.6256Z" stroke="#1A1757" stroke-linecap="round" stroke-linejoin="round"/>
<path d="M110.506 91.266C111.953 91.2211 113.781 91.311 115.228 91.266" stroke="#1A1757" stroke-linecap="round" stroke-linejoin="round"/>
<path d="M100.524 90.839C97.6305 90.4009 92.0676 89.7604 89.3086 89.6144" stroke="#1A1757" stroke-linecap="round" stroke-linejoin="round"/>
<path d="M86.1133 140.5C89.8929 153.443 91.407 162.364 96.3979 171.611C108.309 170.87 121.925 171.297 134.8 171.297C134.8 171.297 138.647 170.061 140.812 170.409" stroke="#1A1757" stroke-linecap="round" stroke-linejoin="round"/>
<path d="M118.279 181.206C116.854 180.633 115.968 182.847 117.393 183.42C118.817 183.993 119.703 181.779 118.279 181.206Z" fill="#1A1757"/>
<path d="M155.482 137.084C154.057 136.511 153.171 138.725 154.596 139.298C156.02 139.871 156.906 137.657 155.482 137.084Z" fill="#1A1757"/>
<path d="M111.752 171.297C111.752 171.297 111.887 183.195 114.343 187.959" stroke="#1A1757" stroke-linecap="round" stroke-linejoin="round"/>
<path d="M124.313 171.297C124.313 171.297 124.133 181.139 126.119 185.15" stroke="#1A1757" stroke-linecap="round" stroke-linejoin="round"/>
<path d="M80.6055 115.377C84.273 125.321 89.6452 134.624 96.4194 142.769C97.9335 140.118 100.524 134.691 101.59 129.298" stroke="#1A1757" stroke-linecap="round" stroke-linejoin="round"/>
<path d="M101.793 129.096C105.539 131.826 108.825 135.197 111.461 139.017C111.786 132.32 110.552 124.568 108.612 117.782" stroke="#1A1757" stroke-linecap="round" stroke-linejoin="round"/>
<path d="M130.639 150.275C121.038 120.119 112.784 118.231 105.785 116.49" stroke="#1A1757" stroke-linecap="round" stroke-linejoin="round"/>
<path d="M121.117 170.937C121.117 162.679 119.378 142.769 117.707 135.511" stroke="#1A1757" stroke-linecap="round" stroke-linejoin="round"/>
<path d="M140.542 173.735L146.06 154.971L168.817 153.96L158.319 187.487L134.777 188.644L136.505 183.487" stroke="#1A1757" stroke-linecap="round" stroke-linejoin="round"/>
<path d="M138.198 173.263C139.623 174.184 142.427 173.6 144.658 172.892C149.818 171.24 151.691 175.544 153.878 178.229C146.161 182.566 139.163 185.195 133.723 182.678C122.564 187.026 101.793 190.655 85.4628 192.453C68.5946 178.51 62.3587 151.376 62.8971 140.511C63.2448 133.332 67.1029 117.13 85.6647 114.108" stroke="#1A1757" stroke-linecap="round" stroke-linejoin="round"/>
<path d="M171.609 110.906C170.622 113.658 167.369 121.186 165.776 124.231C161.784 131.837 153.877 149.028 150.041 154.803" stroke="#1A1757" stroke-linecap="round" stroke-linejoin="round"/>
<path d="M159.901 116.804C161.291 116.759 162.66 116.096 163.557 115.029C164.454 113.962 164.88 112.512 164.701 111.119C164.656 110.793 164.577 110.456 164.6 110.13C164.701 108.793 166.585 108.299 167.426 107.468C168.2 106.692 168.794 105.67 168.817 104.569C168.828 103.985 168.615 103.322 168.088 103.074C167.538 102.816 166.91 103.086 166.372 103.355C164.712 104.187 163.041 105.007 161.381 105.838C159.059 106.984 156.491 107.996 154.831 110.085C153.631 111.602 153.115 113.568 153.048 115.49C152.981 117.411 153.317 119.343 153.653 121.242C153.653 121.242 136.471 145.736 127.689 153.039" stroke="#1A1757" stroke-linecap="round" stroke-linejoin="round"/>
<path d="M148.764 128.006C151.657 130.512 156.435 134.051 160.45 134.905" stroke="#1A1757" stroke-linecap="round" stroke-linejoin="round"/>
<path d="M140.061 139.399C144.02 142.567 150.042 146.904 153.878 148.05" stroke="#1A1757" stroke-linecap="round" stroke-linejoin="round"/>
<path d="M121.117 167.027C121.117 167.027 123.607 168.768 127.196 171.263" stroke="#1A1757" stroke-linecap="round" stroke-linejoin="round"/>
<path d="M391.412 138.68H422.48L422.648 173.072H449.049L422.648 189.61L422.48 238.361H279.627V139.803H346.001" stroke="#1A1757"/>
<path d="M348.254 192.666C339.663 203.936 327.539 221.373 314.148 225.935C297.437 207.082 278.931 185.948 270.654 174.015L270.015 173.577L255.311 174.69C255.311 174.69 244.78 167.645 241.65 164.128C241.561 164.027 244.454 163.589 244.724 163.6C245.935 163.656 247.157 164.038 248.301 164.387C250.769 165.128 253.012 166.33 255.064 167.937C259.954 164.42 270.082 162.308 275.712 165.072C283.182 168.746 308.562 189.431 315.797 196.711C330.949 180.835 328.818 160.904 347.2 160.51C351.047 160.432 355.701 162.904 359.347 164.139C362.565 165.229 365.952 166.016 369.362 166.027C372.458 166.027 375.519 163.791 378.57 164.566C383.673 165.87 388.025 168.881 391.378 172.881C400.418 183.667 406.452 203.632 402.123 227.519C397.188 228.002 395.876 227.642 393.195 227.328" fill="white"/>
<path d="M348.254 192.666C339.663 203.936 327.539 221.373 314.148 225.935C297.437 207.082 278.931 185.948 270.654 174.015L270.015 173.577L255.311 174.69C255.311 174.69 244.78 167.645 241.65 164.128C241.561 164.027 244.454 163.589 244.724 163.6C245.935 163.656 247.157 164.038 248.301 164.387C250.769 165.128 253.012 166.33 255.064 167.937C259.954 164.42 270.082 162.308 275.712 165.072C283.182 168.746 308.563 189.431 315.797 196.711C330.949 180.835 328.818 160.904 347.2 160.51C351.047 160.432 355.701 162.904 359.347 164.139C362.565 165.229 365.952 166.016 369.362 166.027C372.458 166.027 375.519 163.791 378.57 164.566C383.673 165.87 388.025 168.881 391.378 172.881C400.418 183.667 406.452 203.632 402.123 227.519C397.188 228.002 395.876 227.642 393.195 227.328" stroke="#1A1757" stroke-linecap="round" stroke-linejoin="round"/>
<path d="M375.688 160.51C380.589 151.938 388.664 150.78 390.627 142.522C393.554 130.152 387.947 116.523 371.606 113.703C363.474 112.299 353.919 116.478 352.191 125.107C352.416 129.455 358.371 131.04 358.528 135.938C358.618 138.365 355.141 148.87 358.887 141.534C360.278 138.792 360.525 136.185 364.585 135.893C365.269 135.837 366.009 135.927 366.581 136.32C367.669 137.073 367.826 138.612 367.68 139.938C367.501 141.781 366.929 143.623 365.874 145.151C364.865 146.601 363.575 147.455 361.971 148.084C361.837 152.78 361.085 159.713 375.699 160.51H375.688Z" stroke="#1A1757" stroke-linecap="round" stroke-linejoin="round"/>
<path d="M352.192 125.119C349.702 130.691 347.963 140.095 346.685 146.702C345.474 152.915 351.081 158.083 358.214 158.623" stroke="#1A1757" stroke-linecap="round" stroke-linejoin="round"/>
<path d="M337.98 206.014C338.833 210.654 340.874 227.339 340.078 238.35" stroke="#1A1757" stroke-linecap="round" stroke-linejoin="round"/>
<path d="M390.559 186.431C392.959 205.306 394.215 210.216 391.972 238.35" stroke="#1A1757" stroke-linecap="round" stroke-linejoin="round"/>
<path d="M349.432 133.556L343.791 142.904L346.909 143.725" stroke="#1A1757" stroke-linecap="round" stroke-linejoin="round"/>
<path d="M355.858 158.275C355.858 158.275 356.138 159.679 354.871 162.263" stroke="#1A1757" stroke-linecap="round" stroke-linejoin="round"/>
<path d="M364.08 140.208C364.237 141.814 363.564 143.477 362.342 144.522" stroke="#1A1757" stroke-linecap="round" stroke-linejoin="round"/>
<path d="M290.875 176.15C288.015 180.026 283.013 182.79 279.289 185.374" stroke="#1A1757" stroke-linecap="round" stroke-linejoin="round"/>
<path d="M301.62 184.813C298.592 188.487 292.917 193.071 288.666 195.7" stroke="#1A1757" stroke-linecap="round" stroke-linejoin="round"/>
<path d="M292.11 185.476C292.99 185.476 293.703 184.761 293.703 183.88C293.703 182.999 292.99 182.285 292.11 182.285C291.231 182.285 290.518 182.999 290.518 183.88C290.518 184.761 291.231 185.476 292.11 185.476Z" fill="#1A1757"/>
<path d="M376.148 159.612C376.148 159.612 373.961 163.757 373.961 165.005" stroke="#1A1757" stroke-linecap="round" stroke-linejoin="round"/>
<path d="M360.411 177.352C360.972 180.465 360.086 183.824 358.045 186.24" stroke="#1A1757" stroke-linecap="round" stroke-linejoin="round"/>
<path d="M400.004 73.2667C398.209 74.7835 396.83 76.0643 396.83 77.525V79.2777H393.084V77.525C393.084 74.6374 395.08 72.7162 397.491 70.6825C399.903 68.6377 400.654 67.8849 400.284 65.7839C399.891 63.5817 397.85 62.2222 395.304 62.4694C392.781 62.7278 390.93 64.4468 390.504 66.9523L390.201 68.6601L386.5 68.1433L386.803 66.3906C387.509 62.3233 390.695 59.4133 394.912 58.9976C399.454 58.5594 403.267 61.1661 403.974 65.2221C404.692 69.3006 402.415 71.2331 400.004 73.2667Z" fill="#0EA7AF"/>
<path d="M397.536 83.4348C397.536 84.6145 396.684 85.8055 395.046 85.8055C393.409 85.8055 392.557 84.6145 392.557 83.4348C392.557 82.8281 392.781 82.2438 393.196 81.8056C393.51 81.4686 394.093 81.0753 395.046 81.0753C396.684 81.0753 397.536 82.2663 397.536 83.4348Z" fill="#0EA7AF"/>
<path d="M414.629 58.9526H410.895V79.2777H414.629V58.9526Z" fill="#0EA7AF"/>
<path d="M415.245 83.4348C415.245 84.6145 414.393 85.8055 412.755 85.8055C411.118 85.8055 410.266 84.6145 410.266 83.4348C410.266 82.8281 410.501 82.2438 410.905 81.8056C411.23 81.4686 411.802 81.0753 412.755 81.0753C414.393 81.0753 415.245 82.2663 415.245 83.4348Z" fill="#0EA7AF"/>
<path d="M100.538 236.474C102.21 236.474 103.566 235.115 103.566 233.44C103.566 231.765 102.21 230.406 100.538 230.406C98.8655 230.406 97.5098 231.765 97.5098 233.44C97.5098 235.115 98.8655 236.474 100.538 236.474Z" fill="#D82329"/>
<path d="M85.2059 236.474C86.8784 236.474 88.2341 235.115 88.2341 233.44C88.2341 231.765 86.8784 230.406 85.2059 230.406C83.5335 230.406 82.1777 231.765 82.1777 233.44C82.1777 235.115 83.5335 236.474 85.2059 236.474Z" fill="#D82329"/>
<path d="M70.1766 236.474C71.8491 236.474 73.2048 235.115 73.2048 233.44C73.2048 231.765 71.8491 230.406 70.1766 230.406C68.5042 230.406 67.1484 231.765 67.1484 233.44C67.1484 235.115 68.5042 236.474 70.1766 236.474Z" fill="#D82329"/>
<path d="M60.1836 255.136H109.7" stroke="#1A1757" stroke-linecap="round" stroke-linejoin="round"/>
<path d="M60.1836 246.192H109.7" stroke="#1A1757" stroke-linecap="round" stroke-linejoin="round"/>
<path d="M124.156 270.057V218.261L76.3773 218.104L76.8259 201.071L62.4924 218.104L46.5215 218.261V270.057H124.156Z" stroke="#1A1757" stroke-linecap="round" stroke-linejoin="round"/>
<path d="M316.459 45.5824L339.473 63.0536C341.424 64.5367 342.109 66.9298 340.998 68.3905C339.888 69.8511 337.409 69.8511 335.458 68.368L312.443 50.8968" stroke="#1A1757" stroke-miterlimit="10"/>
<path d="M304.031 58.0089C301.026 59.5707 297.717 60.6493 294.173 61.1436C277.552 63.4469 262.22 51.8069 259.932 35.1559C259.506 32.01 259.562 28.9202 260.067 25.9541C262.197 13.1793 272.381 2.71905 285.874 0.853956C302.495 -1.44932 317.827 10.1907 320.126 26.8417C321.932 39.9423 315.112 52.2451 304.031 58.0089Z" stroke="#1A1757" stroke-linecap="round" stroke-linejoin="round"/>
<path d="M304.155 49.1778C301.07 51.5934 297.325 53.2563 293.164 53.8293C280.58 55.5596 268.972 46.7509 267.244 34.1447C266.728 30.4145 267.132 26.7855 268.287 23.4597C271.024 15.5275 278.011 9.3929 286.883 8.16823C299.467 6.43797 311.075 15.2466 312.813 27.8528C313.968 36.2907 310.413 44.2904 304.155 49.1778Z" stroke="#1A1757" stroke-linecap="round" stroke-linejoin="round"/>
<path d="M316.279 45.4589L339.293 62.9301C341.245 64.4131 341.929 66.8063 340.818 68.2669C339.708 69.7275 337.229 69.7275 335.278 68.2445L312.264 50.7733L316.279 45.4589Z" fill="#1A1757"/>
<path d="M319.958 26.718C317.659 10.067 302.327 -1.57298 285.706 0.730299C272.213 2.59539 262.03 13.0556 259.899 25.8304C259.394 28.7966 259.338 31.8863 259.764 35.0323C262.052 51.6833 277.384 63.3233 294.005 61.02C297.549 60.5256 300.858 59.447 303.864 57.8853C307.206 56.1438 310.167 53.8068 312.612 51.0316C314.092 49.3688 315.382 47.5374 316.459 45.5824C319.52 40.0433 320.889 33.4818 319.958 26.718ZM303.987 49.0542C300.903 51.4698 297.157 53.1327 292.996 53.7057C280.412 55.4359 268.804 46.6273 267.077 34.0211C266.561 30.2909 266.964 26.6618 268.12 23.3361C270.856 15.4039 277.843 9.26928 286.715 8.04461C299.299 6.31434 310.907 15.123 312.645 27.7292C313.801 36.1671 310.245 44.1667 303.987 49.0542Z" fill="#1A1757"/>
<path d="M153.25 259.372C153.25 268.798 145.624 276.449 136.214 276.449C126.804 276.449 119.166 268.798 119.166 259.372C119.166 249.945 126.804 242.305 136.214 242.305C145.624 242.305 153.25 249.945 153.25 259.372Z" fill="#0EA7AF" stroke="#1A1757" stroke-miterlimit="10"/>
<path d="M145.579 255.192L133.085 267.708L126.838 261.439C126.075 260.675 126.075 259.439 126.838 258.675C127.6 257.911 128.834 257.911 129.597 258.675L133.085 262.169L142.797 252.428C143.56 251.664 144.794 251.664 145.556 252.428C146.319 253.192 146.319 254.428 145.556 255.192H145.579Z" fill="white"/>
<path d="M134.784 36.1539L128.535 42.4143L134.784 48.6747L141.034 42.4143L134.784 36.1539Z" fill="#D82329"/>
<path d="M439.77 121.289L435.955 125.11L439.77 128.932L443.584 125.11L439.77 121.289Z" fill="#D82329"/>
<path d="M310.008 259.593L302.506 267.108L310.008 274.624L317.511 267.108L310.008 259.593Z" fill="#1A1757"/>
<path d="M8.27385 163.863L3 169.146L8.27384 174.43L13.5477 169.146L8.27385 163.863Z" fill="#1A1757"/>
<path d="M177.151 209.553H160.484V226.249H177.151V209.553Z" stroke="#1A1757" stroke-linecap="round" stroke-linejoin="round"/>
<path d="M165.555 216.463H172.082" stroke="#1A1757" stroke-linecap="round" stroke-linejoin="round"/>
<path d="M165.555 220.171H172.082" stroke="#1A1757" stroke-linecap="round" stroke-linejoin="round"/>
<path d="M28.6663 194.149H12V210.845H28.6663V194.149Z" stroke="#1A1757" stroke-linecap="round" stroke-linejoin="round"/>
<path d="M17.0703 200.644H23.5978" stroke="#1A1757" stroke-linecap="round" stroke-linejoin="round"/>
<path d="M17.0703 204.351H23.5978" stroke="#1A1757" stroke-linecap="round" stroke-linejoin="round"/>
<path d="M17.2269 210.845V220.98H0.560547V204.284H12.0004" stroke="#1A1757" stroke-linecap="round" stroke-linejoin="round"/>
<path d="M5.63086 215.047H12.1583" stroke="#1A1757" stroke-linecap="round" stroke-linejoin="round"/>
<path d="M117.136 78.817C112.077 78.8058 105.572 78.8732 101.12 78.8282C100.649 83.8056 97.8113 88.502 93.6279 91.2097C93.2802 91.4345 92.8989 91.6592 92.4951 91.6704C91.8558 91.6929 91.3063 91.2547 90.824 90.8165C88.7043 88.9065 85.7321 86.7942 83.2647 88.2436C81.1338 89.502 81.1113 92.794 82.5806 94.7826C84.061 96.7713 86.4836 97.76 88.8052 98.6139C89.2763 98.7825 89.7697 98.9735 90.0726 99.378C90.3193 99.715 90.3978 100.164 90.4539 100.591C90.6446 102.49 90.5212 104.423 90.095 106.265C89.366 109.299 87.8519 112.13 85.6761 114.355C62.6617 118.074 62.6393 140.961 62.6393 141.073C61.7084 133.332 62.0897 124.748 63.8842 117.164C65.6675 109.557 71.5557 102.265 78.9467 99.8049C77.1635 96.9174 75.4363 89.2997 76.9616 80.8843C77.7691 76.4238 79.6309 72.1768 83.332 69.4691C91.2502 63.6603 103.61 64.2558 111.158 70.6038C113.805 72.8285 115.745 75.6598 117.147 78.8058L117.136 78.817Z" fill="#1A1757"/>
<path d="M375.688 160.51C380.589 151.938 388.664 150.78 390.627 142.522C393.554 130.152 387.947 116.523 371.606 113.703C363.474 112.299 353.919 116.478 352.191 125.107C352.416 129.455 358.371 131.04 358.528 135.938C358.618 138.365 355.141 148.87 358.887 141.534C360.278 138.792 360.525 136.185 364.585 135.893C365.269 135.837 366.009 135.927 366.581 136.32C367.669 137.073 367.826 138.612 367.68 139.938C367.501 141.781 366.929 143.623 365.874 145.151C364.865 146.601 363.575 147.455 361.971 148.084C361.837 152.78 361.085 159.713 375.699 160.51H375.688Z" fill="#1A1757"/>
<path d="M136.505 183.487L134.777 188.644L158.319 187.487L168.817 153.96L146.06 154.971L140.542 173.735C142.83 173.735 144.782 172.476 147.058 172.353C147.709 172.319 148.371 172.319 148.987 172.532C149.728 172.791 150.333 173.319 150.894 173.881C151.814 174.813 152.644 175.824 153.373 176.914C153.53 177.15 153.698 177.431 153.664 177.712C153.631 178.027 153.362 178.262 153.104 178.465C148.393 182.139 140.06 184.431 136.505 183.498V183.487Z" fill="#1A1757"/>
<path d="M289.912 23.7631L279.021 40.4703" stroke="#1A1757" stroke-miterlimit="10" stroke-linecap="round"/>
<path d="M296.652 28.6393L289.855 38.9872" stroke="#1A1757" stroke-miterlimit="10" stroke-linecap="round"/>
<path d="M301.969 20.853L298.75 25.7517" stroke="#1A1757" stroke-miterlimit="10" stroke-linecap="round"/>
</g>
<path d="M207.5 256.88V218.5H251.53V256.88H207.5Z" stroke="#D82128"/>
<path d="M267.045 161.778L267.044 161.779C258.151 170.337 253.045 180.375 251.764 191.892L251.763 191.903L251.762 191.915L251.097 202.076H207.551C207.592 186.075 209.562 173.359 213.424 163.89C217.335 154.34 224.492 144.895 234.94 135.57C245.445 126.205 252.47 118.556 255.988 112.61C259.508 106.661 261.285 100.383 261.285 93.7715C261.285 83.8787 259.007 76.3646 254.367 71.3228C249.72 66.2732 242.782 63.7895 233.654 63.7895C224.963 63.7895 217.961 66.4801 212.693 71.884C207.516 77.1945 204.798 84.4667 204.479 93.6422H155.057C155.383 71.7971 162.505 54.7386 176.35 42.3826C190.321 29.9358 209.403 23.6901 233.654 23.6901C243.095 23.6901 251.709 24.5736 259.498 26.3367C259.056 29.2104 259.026 32.1922 259.437 35.223L259.437 35.2239C261.762 52.1478 277.346 63.9802 294.242 61.6388L294.242 61.6388C297.667 61.1611 300.876 60.1465 303.81 58.6828C308.396 67.9426 310.698 78.8918 310.698 91.5244C310.698 101.334 308.518 110.583 304.146 119.288C299.773 127.992 292.112 137.677 281.12 148.352C281.119 148.353 281.118 148.354 281.118 148.354L267.045 161.778Z" fill="#F8F8F8" stroke="#D82128"/>
<defs>
<clipPath id="clip0_137_3929">
<rect width="451" height="277" fill="white"/>
</clipPath>
</defs>
</svg>
