<svg width="26" height="26" viewBox="0 0 26 26" fill="none" xmlns="http://www.w3.org/2000/svg">
<path fill-rule="evenodd" clip-rule="evenodd" d="M7.70919 0.243687C9.07769 0.180687 9.51402 0.166687 13 0.166687C16.486 0.166687 16.9224 0.181854 18.2897 0.243687C19.657 0.30552 20.5904 0.523687 21.407 0.839854C22.2622 1.16302 23.038 1.66819 23.6797 2.32152C24.333 2.96202 24.837 3.73669 25.159 4.59302C25.4764 5.40969 25.6934 6.34302 25.7564 7.70802C25.8194 9.07885 25.8334 9.51519 25.8334 13C25.8334 16.486 25.8182 16.9224 25.7564 18.2909C25.6945 19.6559 25.4764 20.5892 25.159 21.4059C24.837 22.2623 24.3322 23.0383 23.6797 23.6797C23.038 24.333 22.2622 24.837 21.407 25.159C20.5904 25.4764 19.657 25.6934 18.292 25.7564C16.9224 25.8194 16.486 25.8334 13 25.8334C9.51402 25.8334 9.07769 25.8182 7.70919 25.7564C6.34419 25.6945 5.41085 25.4764 4.59419 25.159C3.73776 24.837 2.96181 24.3322 2.32035 23.6797C1.66746 23.0388 1.16222 22.2632 0.839854 21.407C0.523687 20.5904 0.306687 19.657 0.243687 18.292C0.180687 16.9212 0.166687 16.4849 0.166687 13C0.166687 9.51402 0.181854 9.07769 0.243687 7.71035C0.30552 6.34302 0.523687 5.40969 0.839854 4.59302C1.1627 3.73678 1.66833 2.96122 2.32152 2.32035C2.96207 1.66761 3.73724 1.16237 4.59302 0.839854C5.40969 0.523687 6.34302 0.306687 7.70802 0.243687H7.70919ZM18.1859 2.55369C16.8325 2.49185 16.4265 2.47902 13 2.47902C9.57352 2.47902 9.16752 2.49185 7.81419 2.55369C6.56235 2.61085 5.88335 2.81969 5.43069 2.99585C4.83219 3.22919 4.40402 3.50569 3.95485 3.95485C3.52907 4.36908 3.2014 4.87335 2.99585 5.43069C2.81969 5.88335 2.61085 6.56235 2.55369 7.81419C2.49185 9.16752 2.47902 9.57352 2.47902 13C2.47902 16.4265 2.49185 16.8325 2.55369 18.1859C2.61085 19.4377 2.81969 20.1167 2.99585 20.5694C3.20119 21.1259 3.52902 21.631 3.95485 22.0452C4.36902 22.471 4.87419 22.7989 5.43069 23.0042C5.88335 23.1804 6.56235 23.3892 7.81419 23.4464C9.16752 23.5082 9.57235 23.521 13 23.521C16.4277 23.521 16.8325 23.5082 18.1859 23.4464C19.4377 23.3892 20.1167 23.1804 20.5694 23.0042C21.1679 22.7709 21.596 22.4944 22.0452 22.0452C22.471 21.631 22.7989 21.1259 23.0042 20.5694C23.1804 20.1167 23.3892 19.4377 23.4464 18.1859C23.5082 16.8325 23.521 16.4265 23.521 13C23.521 9.57352 23.5082 9.16752 23.4464 7.81419C23.3892 6.56235 23.1804 5.88335 23.0042 5.43069C22.7709 4.83219 22.4944 4.40402 22.0452 3.95485C21.6309 3.5291 21.1267 3.20143 20.5694 2.99585C20.1167 2.81969 19.4377 2.61085 18.1859 2.55369ZM11.3609 16.9562C12.2763 17.3373 13.2956 17.3887 14.2448 17.1017C15.1939 16.8147 16.014 16.2071 16.5649 15.3826C17.1158 14.5582 17.3634 13.568 17.2654 12.5813C17.1674 11.5946 16.7299 10.6725 16.0275 9.97252C15.5798 9.52508 15.0384 9.18247 14.4424 8.96936C13.8464 8.75625 13.2105 8.67794 12.5806 8.74007C11.9507 8.8022 11.3424 9.00323 10.7995 9.32867C10.2566 9.65412 9.79255 10.0959 9.44087 10.6222C9.08919 11.1485 8.85857 11.7462 8.76562 12.3723C8.67267 12.9984 8.7197 13.6374 8.90332 14.2431C9.08694 14.8489 9.40258 15.4064 9.82753 15.8755C10.2525 16.3447 10.7761 16.7137 11.3609 16.9562ZM8.33569 8.33569C8.94822 7.72316 9.67539 7.23727 10.4757 6.90578C11.276 6.57428 12.1338 6.40366 13 6.40366C13.8663 6.40366 14.724 6.57428 15.5243 6.90578C16.3246 7.23727 17.0518 7.72316 17.6644 8.33569C18.2769 8.94822 18.7628 9.67539 19.0943 10.4757C19.4258 11.276 19.5964 12.1338 19.5964 13C19.5964 13.8663 19.4258 14.724 19.0943 15.5243C18.7628 16.3246 18.2769 17.0518 17.6644 17.6644C16.4273 18.9014 14.7495 19.5964 13 19.5964C11.2506 19.5964 9.57274 18.9014 8.33569 17.6644C7.09863 16.4273 6.40366 14.7495 6.40366 13C6.40366 11.2506 7.09863 9.57275 8.33569 8.33569ZM21.0594 7.38602C21.2111 7.24284 21.3327 7.07065 21.4167 6.87966C21.5008 6.68867 21.5456 6.48275 21.5487 6.27411C21.5517 6.06546 21.5129 5.85833 21.4344 5.66497C21.356 5.47161 21.2395 5.29595 21.092 5.1484C20.9444 5.00085 20.7688 4.8844 20.5754 4.80596C20.382 4.72751 20.1749 4.68866 19.9663 4.6917C19.7576 4.69474 19.5517 4.73962 19.3607 4.82367C19.1697 4.90772 18.9975 5.02923 18.8544 5.18102C18.5759 5.47622 18.4234 5.86833 18.4293 6.27411C18.4353 6.67988 18.5991 7.06738 18.886 7.35434C19.173 7.6413 19.5605 7.80512 19.9663 7.81104C20.372 7.81695 20.7642 7.66449 21.0594 7.38602Z" fill="white"/>
</svg>
