<svg width="29" height="29" viewBox="0 0 29 29" fill="none" xmlns="http://www.w3.org/2000/svg">
<path d="M0 9.48306H6.12279V28.9915H0V9.48306ZM9.94847 29H16.0542V19.3475C16.0542 16.8051 16.5409 14.339 19.7176 14.339C22.8943 14.339 22.8943 17.2458 22.8943 19.5169V29H29V18.2966C29 13.0424 27.8557 9 21.6731 9C18.6929 9 16.7032 10.6186 15.8834 12.1525H15.8065V9.48306H9.93993V28.9915L9.94847 29Z" fill="#1A1757"/>
<path d="M7 3.49999C7 1.56867 5.43133 0 3.5 0C1.56867 0 0 1.56867 0 3.49999C0 5.43132 1.56867 7 3.5 7C5.43133 7 7 5.43132 7 3.49999Z" fill="#0EA7AF"/>
</svg>
