<svg width="17" height="16" viewBox="0 0 17 16" fill="none" xmlns="http://www.w3.org/2000/svg">
<path d="M1.24805 5.47827H4.36273V15.4957H1.24805V5.47827ZM6.30886 15.5H9.41486V10.5435C9.41486 9.23806 9.66247 7.97174 11.2785 7.97174C12.8944 7.97174 12.8944 9.46434 12.8944 10.6306V15.5H16.0004V10.0039C16.0004 7.30594 15.4183 5.23022 12.2732 5.23022C10.7572 5.23022 9.745 6.06138 9.32798 6.84902H9.28888V5.47827H6.30452V15.4957L6.30886 15.5Z" stroke="#1A1757" stroke-linejoin="round"/>
<path d="M4.60556 2.30592C4.60556 1.3094 3.79757 0.5 2.80278 0.5C1.80799 0.5 1 1.3094 1 2.30592C1 3.30243 1.80799 4.11184 2.80278 4.11184C3.79757 4.11184 4.60556 3.30243 4.60556 2.30592Z" stroke="#0EA7AF"/>
</svg>
