<svg width="148" height="19" viewBox="0 0 148 19" fill="none" xmlns="http://www.w3.org/2000/svg">
<g clip-path="url(#clip0_2014_326)">
<path d="M56.7461 18.9844H54.7656V4.92027C54.7656 2.27663 56.8549 0.127502 59.425 0.127502H68.2026V2.16466H59.425C57.9465 2.16466 56.7461 3.40251 56.7461 4.92027V18.9844Z" fill="#1E1E1E"/>
<path d="M103.094 18.9845V0H109.328C110.777 0 111.962 0.267474 112.884 0.802423C113.806 1.33737 114.49 2.05893 114.934 2.9671C115.379 3.87527 115.602 4.88918 115.602 6.00884C115.602 7.1285 115.382 8.14241 114.94 9.05991C114.499 9.9743 113.819 10.7021 112.899 11.2432C111.98 11.7844 110.804 12.055 109.368 12.055H104.899V10.0147H109.295C110.287 10.0147 111.082 9.83745 111.684 9.486C112.286 9.13456 112.721 8.65559 112.996 8.05533C113.268 7.45196 113.407 6.77083 113.407 6.01195C113.407 5.25307 113.271 4.57194 112.996 3.97168C112.724 3.37142 112.283 2.90178 111.675 2.55967C111.067 2.21755 110.263 2.04649 109.259 2.04649H105.331V18.9907H103.097L103.094 18.9845Z" fill="#1E1E1E"/>
<path d="M118.699 18.9844V0H129.838V2.04027H120.934V8.45343H129.261V10.4937H120.934V16.9442H129.838V18.9844H118.699Z" fill="#1E1E1E"/>
<path d="M148.001 0V18.9844H145.84L135.783 4.08054H135.602V18.9844H133.367V0H135.529L145.622 14.9412H145.803V0H148.001Z" fill="#1E1E1E"/>
<path d="M0 2.04027V0H13.8421V2.04027H8.0398V18.9844H5.80534V2.04027H0Z" fill="#1E1E1E"/>
<path d="M16.2891 18.9844V0H18.5235V8.45343H28.3654V0H30.5998V18.9844H28.3654V10.4937H18.5235V18.9844H16.2891Z" fill="#1E1E1E"/>
<path d="M34.5586 18.9844V0H45.6976V2.04027H36.793V8.45343H45.1201V10.4937H36.793V16.9442H45.8397V18.9844H34.5586Z" fill="#1E1E1E"/>
<path d="M86.6466 19H80.9531V0.015564H86.9006C88.6906 0.015564 90.2235 0.395004 91.4965 1.15077C92.7694 1.90654 93.746 2.99199 94.4264 4.40401C95.1037 5.81602 95.4453 7.50484 95.4453 9.47047C95.4453 11.4361 95.1037 13.1498 94.4173 14.5742C93.7309 15.9987 92.7362 17.0935 91.4239 17.8555C90.1147 18.6175 88.5212 19 86.6466 19ZM83.1876 16.9597H86.5045C88.0314 16.9597 89.2953 16.6581 90.2991 16.0516C91.303 15.4451 92.0498 14.5836 92.5427 13.4639C93.0355 12.3443 93.2804 11.0131 93.2804 9.47047C93.2804 7.92782 93.0355 6.61844 92.5517 5.50812C92.0649 4.39779 91.3393 3.5456 90.3717 2.94845C89.4041 2.3513 88.2007 2.05272 86.7585 2.05272H83.1906V16.9566L83.1876 16.9597Z" fill="#1E1E1E"/>
<path d="M75.3952 8.70532H63.1133V10.7425H75.3952V8.70532Z" fill="#D72128"/>
<path d="M78.4803 18.8662H66.1107V17.6533C66.1107 14.6924 64.3026 11.9959 61.6116 10.9415L60 10.3102V8.93549L61.8595 8.10818C64.4145 6.96986 66.0654 4.38532 66.0654 1.52085V0.12439H78.4803V2.16155H68.0217C67.81 5.27482 66.0805 8.06153 63.4409 9.57307C66.0351 11.0442 67.7858 13.7811 68.0549 16.8291H78.4803V18.8662Z" fill="#D72128"/>
</g>
<defs>
<clipPath id="clip0_2014_326">
<rect width="148" height="19" fill="white"/>
</clipPath>
</defs>
</svg>
