<svg width="331" height="331" viewBox="0 0 331 331" fill="none" xmlns="http://www.w3.org/2000/svg">
<path d="M164.822 151.893L50.2253 266.708L68.7214 285.239L183.318 170.424L164.822 151.893Z" fill="#65638F"/>
<path d="M285.838 215.421L170.409 331.07L159.399 320.039C132.54 293.129 91.1653 285.541 56.5225 301.139L35.7649 310.484L29.3833 304.09L23.2823 297.977L33.1001 273.035C46.6346 238.817 38.57 199.893 12.5528 173.826L-0.0700684 161.179L115.85 45.0374L134.364 63.5863L36.7467 161.39C63.0443 191.672 72.1609 233.126 61.221 271.559C98.739 260.669 139.904 269.17 170.128 294.324L267.395 196.872L285.908 215.421H285.838Z" fill="#65638F"/>
<path d="M158.803 -0.0432715L137.976 20.8232L310.243 193.419L331.069 172.552L158.803 -0.0432715Z" fill="#65638F"/>
</svg>
