<svg width="283" height="328" viewBox="0 0 283 328" fill="none" xmlns="http://www.w3.org/2000/svg">
<path d="M247.59 180.958C244.483 180.958 241.234 179.806 238.126 178.983C231.833 177.368 225.649 175.222 219.623 172.565C213.07 169.787 205.867 169.931 199.4 172.97C192.933 176.008 187.659 181.726 184.593 189.023L181.485 196.429C167.727 187.512 155.085 176.436 143.913 163.513C132.821 150.494 123.316 135.764 115.663 119.733L121.595 115.125C127.858 111.552 132.765 105.407 135.372 97.8716C137.98 90.3363 138.104 81.9436 135.72 74.3083C133.477 67.2711 131.637 60.0685 130.211 52.7479C129.505 49.1271 128.94 45.3417 128.516 41.5562C126.801 29.9633 121.59 19.4649 113.821 11.9516C106.052 4.43836 96.2364 0.403965 86.1413 0.574985H43.7663C37.6788 0.508386 31.6505 1.97087 26.0918 4.86288C20.533 7.75489 15.5743 12.0085 11.5532 17.3342C7.53212 22.6599 4.54305 28.9326 2.78948 35.7253C1.03591 42.518 0.559016 49.6712 1.39127 56.6979C8.9162 125.648 35.9414 189.712 78.1981 238.77C120.455 287.829 175.534 319.085 234.736 327.602H240.104C250.52 327.62 260.576 323.167 268.354 315.094C272.822 310.437 276.392 304.728 278.827 298.344C281.262 291.961 282.507 285.048 282.479 278.063V228.688C282.306 217.255 278.733 206.247 272.37 197.543C266.007 188.838 257.249 182.977 247.59 180.958ZM254.653 279.708C254.65 282.045 254.22 284.355 253.392 286.483C252.564 288.611 251.357 290.51 249.85 292.052C248.276 293.649 246.431 294.84 244.436 295.549C242.44 296.258 240.338 296.469 238.268 296.167C185.368 288.263 136.232 260.065 98.6096 216.019C60.9874 171.974 37.0203 114.587 30.4888 52.9125C30.264 50.5016 30.461 48.0627 31.0679 45.7431C31.6749 43.4235 32.6791 41.2713 34.02 39.4167C35.3437 37.6611 36.973 36.254 38.7996 35.2892C40.6262 34.3243 42.6082 33.8238 44.6138 33.8208H86.9888C90.2735 33.7357 93.481 34.9874 96.0591 37.3605C98.6372 39.7337 100.425 43.0798 101.114 46.8229C101.679 51.3215 102.385 55.7653 103.233 60.1542C104.864 68.8301 107.036 77.3561 109.73 85.6646L89.955 96.3625C88.2642 97.2664 86.7433 98.5506 85.4796 100.141C84.2159 101.732 83.2344 103.598 82.5912 105.632C81.9481 107.666 81.6562 109.828 81.7321 111.993C81.8081 114.159 82.2504 116.286 83.0338 118.252C103.362 168.989 138.365 209.774 181.909 233.46C185.348 235.107 189.205 235.107 192.644 233.46C194.405 232.726 196.024 231.592 197.406 230.122C198.788 228.653 199.906 226.879 200.695 224.902L209.453 201.86C216.755 204.903 224.207 207.431 231.77 209.431C235.537 210.419 239.35 211.242 243.211 211.9C246.424 212.703 249.295 214.786 251.332 217.79C253.369 220.794 254.443 224.531 254.37 228.358L254.653 279.708Z" fill="white"/>
</svg>
