<svg width="148" height="148" viewBox="0 0 148 148" fill="none" xmlns="http://www.w3.org/2000/svg">
<g clip-path="url(#clip0_925_43)">
<path d="M148 0H0V148H148V0Z" fill="#0EA7AF"/>
<path d="M93.9045 54.2222L129.746 59.1428C131.698 59.4127 132.508 61.8095 131.095 63.1905L105.397 88.6349C104.841 89.1905 104.587 89.9841 104.73 90.746L111.127 126.349C111.476 128.302 109.444 129.794 107.682 128.889L75.5394 112.302C74.841 111.937 74.0156 111.952 73.3172 112.317L41.4283 129.397C39.6823 130.333 37.6346 128.857 37.9521 126.905L43.7934 91.2063C43.9204 90.4286 43.6505 89.6508 43.095 89.0952L16.9997 64.0476C15.5712 62.6825 16.3331 60.2698 18.2854 59.9682L54.0473 54.4921C54.8251 54.3809 55.4918 53.873 55.8251 53.1746L71.587 20.619C72.4442 18.8413 74.968 18.8254 75.8569 20.5873L92.1267 52.9048C92.4759 53.6032 93.1584 54.0952 93.9362 54.1905L93.9045 54.2222Z" fill="#E4E4E4"/>
<path d="M54.317 85.381L39.571 71.2222C38.1424 69.8571 38.9043 67.4444 40.8567 67.1429L61.0631 64.0476C61.8409 63.9365 62.5075 63.4286 62.8409 62.7302L71.7456 44.3333C72.6028 42.5556 75.1266 42.5397 76.0155 44.3016L85.2059 62.5556C85.5551 63.254 86.2377 63.746 87.0155 63.8413L107.269 66.619C109.222 66.8889 110.031 69.2857 108.619 70.6667L94.0948 85.0476C93.5393 85.6032 93.2853 86.3968 93.4282 87.1587L97.0472 107.27C97.3964 109.222 95.3647 110.714 93.6028 109.81L75.444 100.444C74.7456 100.079 73.9202 100.095 73.2218 100.46L55.2059 110.111C53.4599 111.048 51.4123 109.571 51.7297 107.619L55.0313 87.4444C55.1583 86.6667 54.8885 85.8889 54.3329 85.3333L54.317 85.381Z" fill="#1A1757"/>
</g>
<defs>
<clipPath id="clip0_925_43">
<rect width="148" height="148" fill="white"/>
</clipPath>
</defs>
</svg>
