<svg width="397" height="59" viewBox="0 0 397 59" fill="none" xmlns="http://www.w3.org/2000/svg">
<path d="M41.5078 18.6035L60.6554 21.2246C61.6996 21.3677 62.1303 22.6426 61.3798 23.384L47.6423 36.9386C47.3421 37.2313 47.2116 37.6541 47.2834 38.0639L50.6966 57.0234C50.8858 58.0576 49.796 58.8576 48.8562 58.3763L31.6795 49.5437C31.3075 49.355 30.8637 49.355 30.4917 49.5502L13.452 58.6494C12.5188 59.1438 11.4224 58.3633 11.5921 57.3226L14.7116 38.311C14.7768 37.9013 14.6398 37.4785 14.3396 37.1923L0.393299 23.8523C-0.370256 23.1239 0.0408885 21.8425 1.08507 21.6799L20.187 18.7596C20.5981 18.6945 20.9571 18.4344 21.1398 18.0571L29.5585 0.717114C30.0153 -0.23249 31.3662 -0.238993 31.8426 0.697603L40.5289 17.901C40.7181 18.2718 41.0771 18.5319 41.4947 18.5905L41.5078 18.6035Z" fill="#E5E5E5"/>
<path d="M20.3761 35.2039L12.5453 27.6177C11.7862 26.8846 12.1949 25.5952 13.233 25.4315L23.9638 23.769C24.3725 23.7035 24.7294 23.4417 24.911 23.0621L29.6406 13.2046C30.0948 12.249 31.4377 12.2425 31.9114 13.185L36.7902 22.9704C36.9783 23.3435 37.3352 23.6053 37.7504 23.6642L48.5071 25.1566C49.5452 25.3006 49.9734 26.5835 49.2273 27.3297L41.5133 35.0337C41.2149 35.3282 41.0851 35.7537 41.1565 36.166L43.0769 46.9464C43.265 47.9871 42.1815 48.7922 41.2473 48.3078L31.5999 43.2875C31.2301 43.0977 30.789 43.0976 30.4192 43.294L20.8497 48.4649C19.9219 48.9624 18.832 48.1769 19.0006 47.1296L20.7523 36.3231C20.8172 35.9108 20.681 35.4853 20.3825 35.1973L20.3761 35.2039Z" fill="#0EA7AF"/>
<path d="M125.266 18.6035L144.413 21.2246C145.457 21.3677 145.888 22.6426 145.138 23.384L131.4 36.9386C131.1 37.2313 130.969 37.6541 131.041 38.0639L134.454 57.0234C134.644 58.0576 133.554 58.8576 132.614 58.3763L115.437 49.5437C115.065 49.355 114.622 49.355 114.25 49.5502L97.2099 58.6494C96.2766 59.1438 95.1802 58.3633 95.3499 57.3226L98.4694 38.311C98.5347 37.9013 98.3976 37.4785 98.0974 37.1923L84.1511 23.8523C83.3876 23.1239 83.7987 21.8425 84.8429 21.6799L103.945 18.7596C104.356 18.6945 104.715 18.4344 104.898 18.0571L113.316 0.717114C113.773 -0.23249 115.124 -0.238993 115.6 0.697603L124.287 17.901C124.476 18.2718 124.835 18.5319 125.253 18.5905L125.266 18.6035Z" fill="#E5E5E5"/>
<path d="M104.134 35.2039L96.3031 27.6177C95.544 26.8846 95.9528 25.5952 96.9908 25.4315L107.722 23.769C108.13 23.7035 108.487 23.4417 108.669 23.0621L113.398 13.2046C113.853 12.249 115.196 12.2425 115.669 13.185L120.548 22.9704C120.736 23.3435 121.093 23.6053 121.508 23.6642L132.265 25.1566C133.303 25.3006 133.731 26.5835 132.985 27.3297L125.271 35.0337C124.973 35.3282 124.843 35.7537 124.914 36.166L126.835 46.9464C127.023 47.9871 125.939 48.7922 125.005 48.3078L115.358 43.2875C114.988 43.0977 114.547 43.0976 114.177 43.294L104.607 48.4649C103.68 48.9624 102.59 48.1769 102.758 47.1296L104.51 36.3231C104.575 35.9108 104.439 35.4853 104.14 35.1973L104.134 35.2039Z" fill="#0EA7AF"/>
<path d="M209.023 18.6035L228.171 21.2246C229.215 21.3677 229.646 22.6426 228.895 23.384L215.158 36.9386C214.858 37.2313 214.727 37.6541 214.799 38.0639L218.212 57.0234C218.401 58.0576 217.312 58.8576 216.372 58.3763L199.195 49.5437C198.823 49.355 198.379 49.355 198.007 49.5502L180.968 58.6494C180.034 59.1438 178.938 58.3633 179.108 57.3226L182.227 38.311C182.292 37.9013 182.155 37.4785 181.855 37.1923L167.909 23.8523C167.145 23.1239 167.557 21.8425 168.601 21.6799L187.703 18.7596C188.114 18.6945 188.473 18.4344 188.655 18.0571L197.074 0.717114C197.531 -0.23249 198.882 -0.238993 199.358 0.697603L208.045 17.901C208.234 18.2718 208.593 18.5319 209.01 18.5905L209.023 18.6035Z" fill="#E5E5E5"/>
<path d="M187.892 35.2039L180.061 27.6177C179.302 26.8846 179.711 25.5952 180.749 25.4315L191.479 23.769C191.888 23.7035 192.245 23.4417 192.427 23.0621L197.156 13.2046C197.61 12.249 198.953 12.2425 199.427 13.185L204.306 22.9704C204.494 23.3435 204.851 23.6053 205.266 23.6642L216.023 25.1566C217.061 25.3006 217.489 26.5835 216.743 27.3297L209.029 35.0337C208.73 35.3282 208.601 35.7537 208.672 36.166L210.592 46.9464C210.781 47.9871 209.697 48.7922 208.763 48.3078L199.116 43.2875C198.746 43.0977 198.305 43.0976 197.935 43.294L188.365 48.4649C187.438 48.9624 186.348 48.1769 186.516 47.1296L188.268 36.3231C188.333 35.9108 188.197 35.4853 187.898 35.1973L187.892 35.2039Z" fill="#0EA7AF"/>
<path d="M292.781 18.6035L311.929 21.2246C312.973 21.3677 313.404 22.6426 312.653 23.384L298.916 36.9386C298.616 37.2313 298.485 37.6541 298.557 38.0639L301.97 57.0234C302.159 58.0576 301.069 58.8576 300.13 58.3763L282.953 49.5437C282.581 49.355 282.137 49.355 281.765 49.5502L264.725 58.6494C263.792 59.1438 262.696 58.3633 262.866 57.3226L265.985 38.311C266.05 37.9013 265.913 37.4785 265.613 37.1923L251.667 23.8523C250.903 23.1239 251.314 21.8425 252.359 21.6799L271.46 18.7596C271.872 18.6945 272.231 18.4344 272.413 18.0571L280.832 0.717114C281.289 -0.23249 282.64 -0.238993 283.116 0.697603L291.802 17.901C291.992 18.2718 292.351 18.5319 292.768 18.5905L292.781 18.6035Z" fill="#E5E5E5"/>
<path d="M271.649 35.2039L263.819 27.6177C263.06 26.8846 263.468 25.5952 264.506 25.4315L275.237 23.769C275.646 23.7035 276.003 23.4417 276.184 23.0621L280.914 13.2046C281.368 12.249 282.711 12.2425 283.185 13.185L288.064 22.9704C288.252 23.3435 288.609 23.6053 289.024 23.6642L299.781 25.1566C300.819 25.3006 301.247 26.5835 300.501 27.3297L292.787 35.0337C292.488 35.3282 292.359 35.7537 292.43 36.166L294.35 46.9464C294.538 47.9871 293.455 48.7922 292.521 48.3078L282.873 43.2875C282.504 43.0977 282.062 43.0976 281.693 43.294L272.123 48.4649C271.195 48.9624 270.105 48.1769 270.274 47.1296L272.026 36.3231C272.091 35.9108 271.954 35.4853 271.656 35.1973L271.649 35.2039Z" fill="#0EA7AF"/>
<path d="M376.541 18.6035L395.689 21.2246C396.733 21.3677 397.164 22.6426 396.413 23.384L382.676 36.9386C382.375 37.2313 382.245 37.6541 382.317 38.0639L385.73 57.0234C385.919 58.0576 384.829 58.8576 383.889 58.3763L366.713 49.5437C366.341 49.355 365.897 49.355 365.525 49.5502L348.485 58.6494C347.552 59.1438 346.456 58.3633 346.625 57.3226L349.745 38.311C349.81 37.9013 349.673 37.4785 349.373 37.1923L335.427 23.8523C334.663 23.1239 335.074 21.8425 336.118 21.6799L355.22 18.7596C355.631 18.6945 355.99 18.4344 356.173 18.0571L364.592 0.717114C365.049 -0.23249 366.399 -0.238993 366.876 0.697603L375.562 17.901C375.751 18.2718 376.11 18.5319 376.528 18.5905L376.541 18.6035Z" fill="#E5E5E5"/>
<path d="M355.409 35.2039L347.578 27.6177C346.819 26.8846 347.228 25.5952 348.266 25.4315L358.997 23.769C359.406 23.7035 359.763 23.4417 359.944 23.0621L364.674 13.2046C365.128 12.249 366.471 12.2425 366.945 13.185L371.823 22.9704C372.012 23.3435 372.368 23.6053 372.784 23.6642L383.54 25.1566C384.578 25.3006 385.007 26.5835 384.26 27.3297L376.546 35.0337C376.248 35.3282 376.118 35.7537 376.19 36.166L378.11 46.9464C378.298 47.9871 377.215 48.7922 376.28 48.3078L366.633 43.2875C366.263 43.0977 365.822 43.0976 365.452 43.294L355.883 48.4649C354.955 48.9624 353.865 48.1769 354.034 47.1296L355.786 36.3231C355.85 35.9108 355.714 35.4853 355.416 35.1973L355.409 35.2039Z" fill="#0EA7AF"/>
</svg>
