<svg width="163" height="147" viewBox="0 0 163 147" fill="none" xmlns="http://www.w3.org/2000/svg">
<g clip-path="url(#clip0_893_3683)">
<path d="M78.8769 58.9092C75.8293 59.0265 72.7267 58.6823 69.6713 57.8139C68.6894 57.5401 67.7312 57.2115 66.765 56.8282C65.7204 56.4136 64.7071 55.9442 63.7488 55.4122C57.5908 52.1264 53.0115 46.8691 50.498 40.7591C47.9924 34.6882 47.529 27.7724 49.579 21.1226C53.1686 15.834 57.1352 18.713 58.282 21.5451C59.0125 23.3444 58.6747 25.3941 58.1485 27.2639C57.6222 29.1337 56.9153 30.9956 56.9467 32.9358C56.986 34.8838 57.9835 36.9726 59.8372 37.575C60.6855 37.8567 61.6124 37.7862 62.5078 37.8254C67.3777 38.0053 71.9334 41.5962 73.2294 46.2824C73.6222 47.7062 73.74 49.1926 74.1955 50.6008C74.6511 52.0012 75.5544 53.3781 76.9447 53.8788C77.4867 54.0744 78.0679 54.1291 78.5942 54.3638C79.9137 54.9584 80.0316 57.4071 78.8769 58.9092Z" fill="#D82329"/>
<path d="M91.5785 33.4133C91.7042 34.5555 91.9555 35.6507 92.309 36.6912C92.089 36.7303 91.877 36.7851 91.6649 36.8633C90.094 37.4266 89.0728 38.8818 88.0517 40.1961C86.4887 42.2145 84.7135 44.0764 82.7656 45.7271C82.0429 46.3452 80.6998 46.7989 80.362 45.9149C80.2128 45.5237 80.4092 45.0935 80.5427 44.6945C81.3831 42.2692 80.095 39.6406 80.2049 37.0746C80.2756 35.2517 81.0611 33.5071 81.0768 31.6843C81.1082 28.9461 79.4352 26.5287 78.1706 24.0957C76.906 21.6626 76.042 18.5803 77.5736 16.3037C79.4116 13.5577 82.8127 13.5186 85.7111 13.5108C86.0567 13.5108 86.4101 13.5029 86.7165 13.3699C87.227 13.1431 87.5333 12.5954 87.659 12.0556C87.8868 11.0151 87.5569 9.85727 86.8029 9.0984C86.1195 8.41778 85.1769 8.07355 84.2972 7.67456C82.6399 6.90788 80.9983 6.02384 79.6394 4.80341C78.2098 3.52821 77.8721 2.39383 79.1603 0.430176C81.2575 0.539702 83.3625 0.868281 85.4518 1.44721H85.4597C86.5201 1.72885 87.5726 2.08089 88.6016 2.49553C89.5598 2.87887 90.4867 3.30133 91.3743 3.77855H91.39C96.8725 6.64971 101.138 11.0855 103.808 16.2959C96.0478 18.0326 90.6752 25.3552 91.5785 33.4133Z" fill="#D82329"/>
<path d="M142.687 99.5202C142.522 99.3872 142.318 99.2933 142.074 99.2464C140.739 98.9647 139.804 101.187 138.979 100.889C138.257 100.623 136.922 90.3669 137.432 87.5818C133.811 86.1736 120.27 86.2127 115.211 87.7383C115.549 90.187 116.146 102.47 114.064 100.271C113.177 99.3402 111.991 98.777 110.632 100.146C109.988 95.2095 109.807 90.6877 110.679 85.7199C112.116 77.521 125.108 76.2302 131.714 77.2941C135.893 77.9591 139.239 79.9932 141.179 84.163C143.284 88.6927 143.339 94.701 142.687 99.5202Z" fill="#1A1757"/>
<path d="M119.853 122.951C121.243 125.439 124.393 130.196 126.781 129.976C124.707 131.932 122.838 134.264 119.35 137.737C117.293 131.682 114.826 123.374 114.826 123.374L119.861 120.487V122.951H119.853Z" fill="#DCE2E2"/>
<path d="M135.099 122.951C133.905 125.54 129.169 130.007 126.773 129.976C128.996 131.76 130.677 133.755 134.188 137.737C135.72 133.903 140.119 123.451 140.119 123.451L135.099 120.557V122.951Z" fill="#DCE2E2"/>
<path d="M89.5894 77.2162C94.8364 77.9829 97.2399 85.4307 96.5958 89.9369C95.8732 94.9986 95.4412 100.185 94.7578 105.302C94.1609 109.753 93.0533 114.799 87.9321 115.402C83.8006 115.887 79.6297 116.161 75.5767 115.253C70.5183 114.127 69.8193 110.035 69.6072 104.786C69.3951 99.4736 68.4054 94.1694 68.1933 88.8573C67.887 81.1044 72.7648 77.4666 80.0696 76.254C83.2586 75.722 86.6204 75.9489 89.5894 77.2162C89.4716 79.4694 89.3695 82.3014 89.2595 84.5545C84.7274 88.3097 77.9331 87.2144 72.4113 89.2876C71.6415 89.5771 70.8561 89.9526 70.3926 90.6254C69.78 91.5173 69.8821 92.7064 70.0156 93.7782C70.4162 97.15 70.8168 100.53 71.2252 103.902C71.6572 107.524 76.6999 106.64 79.4177 106.428C82.371 106.202 85.3322 106.475 88.2934 106.405C94.4593 106.256 93.0691 104.598 93.8938 99.2623C94.3572 96.266 94.5614 94.8109 94.2708 90.6489C94.153 88.9121 90.8776 88.1454 89.2595 84.5545" fill="#1A1757"/>
<path d="M74.0612 114.768C75.5536 117.256 79.4417 122.881 82.0023 122.662C79.7716 124.618 70.3617 131.612 70.3617 131.612L69.207 114.768L71.8776 113.242" fill="#DCE2E2"/>
<path d="M90.3829 114.643C89.1026 117.232 84.5626 122.701 81.9941 122.67C84.382 124.453 94.4124 131.533 94.4124 131.533L94.8915 114.651L92.0638 113.258" fill="#DCE2E2"/>
<path d="M47.5681 107.696C47.7802 112.593 47.9608 120.182 47.5602 125.103C45.9343 124.352 44.6147 124.125 44.6147 124.125L44.6461 123.303L40.0355 120.033L39.9805 116.786C43.0909 114.698 44.7561 110.63 45.2117 107.61C46.0757 108.071 46.869 108.032 47.5681 107.696Z" fill="#1A1757"/>
<path d="M25.387 116.787C25.387 116.787 25.7876 118.351 25.4812 120.088C23.5176 121.449 20.5171 123.515 20.5171 123.515V124.539C20.5171 124.539 18.2157 124.571 15.4744 125.948C13.927 121.825 13.8799 115.277 13.982 110.262C14.0527 106.906 14.2098 103.628 14.1705 100.264C14.1234 96.8372 14.1548 93.4027 14.6261 90.0074C15.0581 86.8859 15.7572 81.1279 19.3625 79.8997C20.1479 78.9374 20.8941 78.4446 22.0723 78.0456C33.6344 74.1104 50.0821 77.1381 47.7414 100.624V100.639C46.9245 100.944 46.0605 101.781 45.4635 103.08C45.5892 99.8569 45.7698 96.9232 45.2829 93.7469C44.9372 91.5017 43.3192 89.5928 41.4026 88.9825C36.1714 87.324 28.6545 89.3659 22.2608 86.5339C22.2608 89.4128 21.7503 92.151 21.0041 94.8892C20.6506 96.1878 19.7866 100.89 20.2422 102.767C18.2078 99.1998 13.1808 100.608 15.9614 105.521C16.8333 107.054 19.0483 108.181 20.2186 107.978C21.0905 111.326 22.9677 114.69 25.387 116.787Z" fill="#1A1757"/>
<path d="M25.4425 117.178C25.6074 118.907 25.6859 121.214 25.6231 122.951C27.0134 125.439 30.1631 130.196 32.5509 129.977C30.4773 131.932 21.6958 139.709 21.6958 139.709L20.5176 123.514L25.4817 120.088" fill="#DCE2E2"/>
<path d="M39.9813 116.786V122.857C38.7874 125.447 34.9465 130.008 32.5508 129.977C34.7737 131.76 44.1286 138.84 44.1286 138.84L44.6391 123.303L40.0284 120.041" fill="#DCE2E2"/>
<path d="M36.4621 118.39C32.4012 119.462 27.8298 118.938 24.8765 116.372C22.4572 114.275 21.0905 111.318 20.2187 107.97C19.0562 108.173 16.8333 107.047 15.9693 105.513C13.1887 100.6 18.2157 99.1919 20.2501 102.759C19.7867 100.882 20.6585 96.18 21.012 94.8813C21.7582 92.1431 22.2687 89.405 22.2687 86.526C28.6624 89.358 36.1793 87.3162 41.4105 88.9747C43.3271 89.5849 44.9451 91.4938 45.2907 93.7391C45.7777 96.9154 45.5971 99.8491 45.4714 103.072C47.0188 99.7083 50.3334 99.4736 50.0742 103.315C49.9093 105.81 47.8514 109.002 45.2201 107.602C44.7723 110.63 43.5549 112.93 41.7326 115.167C40.413 116.787 38.5436 117.843 36.47 118.39H36.4621Z" stroke="#1A1757" stroke-linecap="round" stroke-linejoin="round"/>
<path d="M22.2607 86.5338C21.0039 84.9222 20.2578 83.0681 19.6294 80.9636C19.323 79.9388 19.5901 78.8826 22.0643 78.0377C33.6264 74.1026 50.0741 77.1302 47.7334 100.616" stroke="#1A1757" stroke-linecap="round" stroke-linejoin="round"/>
<path d="M19.3617 79.8919C15.7643 81.1202 15.0573 86.8781 14.6253 89.9996C14.1541 93.3949 14.1226 96.8294 14.1698 100.256C14.2169 103.683 14.0598 106.898 13.9891 110.254C13.887 115.269 13.722 121.144 15.4815 125.94" stroke="#1A1757" stroke-linecap="round" stroke-linejoin="round"/>
<path d="M30.5156 103.487C28.1435 103.487 25.6457 103.643 22.6531 103.44C22.6531 101.946 22.5117 100.772 22.5117 99.2778C25.1902 99.2778 27.3973 99.1917 30.4685 99.3873C30.5156 100.584 30.5313 101.946 30.5156 103.495V103.487Z" stroke="#1A1757" stroke-linecap="round" stroke-linejoin="round"/>
<path d="M42.6577 103.487C40.2071 103.487 37.6229 103.643 34.5281 103.44C34.5281 101.946 34.3789 100.772 34.3789 99.2778C37.1437 99.2778 39.4373 99.1917 42.6027 99.3873C42.6499 100.584 42.6734 101.946 42.6499 103.495L42.6577 103.487Z" stroke="#1A1757" stroke-linecap="round" stroke-linejoin="round"/>
<path d="M30.5234 101.406C31.9373 101.39 33.414 101.328 34.4665 101.406" stroke="#1A1757" stroke-linecap="round" stroke-linejoin="round"/>
<path d="M25.4405 117.178C25.6054 118.907 25.684 121.215 25.6212 122.951C27.0114 125.439 30.1612 130.196 32.549 129.977C30.4753 131.932 21.6938 139.709 21.6938 139.709L20.5156 123.515L25.4798 120.088" stroke="#1A1757" stroke-linecap="round" stroke-linejoin="round"/>
<path d="M39.9793 116.786V122.857C38.7854 125.447 34.9445 130.008 32.5488 129.977C34.7717 131.76 44.1266 138.84 44.1266 138.84L44.6372 123.303L40.0265 120.041" stroke="#1A1757" stroke-linecap="round" stroke-linejoin="round"/>
<path d="M44.6458 146.609H0.392578C0.392578 132.152 15.0729 125.134 20.0921 124.539" stroke="#1A1757" stroke-linecap="round" stroke-linejoin="round"/>
<path d="M44.6152 124.125C49.2573 125.064 64.5268 132.903 64.5268 146.609H49.2888" stroke="#1A1757" stroke-linecap="round" stroke-linejoin="round"/>
<path d="M32.4629 130.563C32.4629 135.367 32.5493 142.384 32.4629 146.609" stroke="#1A1757" stroke-linecap="round" stroke-linejoin="round"/>
<path d="M47.5684 107.688C47.7805 112.586 48.2046 122.044 47.5605 125.103" stroke="#1A1757" stroke-linecap="round" stroke-linejoin="round"/>
<path d="M19.998 105.388C20.0295 106.327 19.998 107.461 20.4615 108.846" stroke="#1A1757" stroke-linecap="round" stroke-linejoin="round"/>
<path d="M45.447 104.786C45.447 105.896 45.2899 107.25 45.1328 108.056" stroke="#1A1757" stroke-linecap="round" stroke-linejoin="round"/>
<path d="M130.294 116.685C126.398 117.71 122.023 117.17 119.211 114.643C116.91 112.578 115.613 109.675 114.797 106.389C113.681 106.585 111.56 105.466 110.744 103.964C110.17 102.916 109.636 101.148 110.634 100.139C111.992 98.7773 113.179 99.3328 114.066 100.272C116.155 102.47 115.551 90.1873 115.213 87.7386C120.271 86.2131 133.813 86.174 137.442 87.5822C136.931 90.3673 138.266 100.624 138.989 100.89C139.814 101.187 140.741 98.9651 142.084 99.2467C143.348 99.5127 143.482 100.999 143.411 102.008C143.238 104.449 141.251 107.563 138.738 106.178C138.29 109.135 137.112 111.389 135.36 113.563C134.088 115.136 132.289 116.169 130.302 116.693L130.294 116.685Z" stroke="#1A1757" stroke-linecap="round" stroke-linejoin="round"/>
<path d="M119.942 115.222C120.106 116.951 119.918 121.215 119.855 122.952C121.245 125.439 124.395 130.196 126.783 129.977C124.709 131.933 122.84 134.264 119.352 137.738C117.294 131.682 114.828 123.374 114.828 123.374L119.863 120.487" stroke="#1A1757" stroke-linecap="round" stroke-linejoin="round"/>
<path d="M134.819 114.15C134.929 117.858 135.101 120.698 135.101 122.951C133.907 125.541 129.171 130.008 126.775 129.977C128.998 131.76 130.679 133.755 134.19 137.737C135.722 133.904 140.12 123.452 140.12 123.452L135.101 120.557" stroke="#1A1757" stroke-linecap="round" stroke-linejoin="round"/>
<path d="M108.128 146.609H92.1992C92.1992 132.152 110.021 125.228 115.213 124.5" stroke="#1A1757" stroke-linecap="round" stroke-linejoin="round"/>
<path d="M139.704 124.43C144.346 125.369 162.608 132.903 162.608 146.609H115.551" stroke="#1A1757" stroke-linecap="round" stroke-linejoin="round"/>
<path d="M126.689 130.563C126.689 135.367 126.776 142.384 126.689 146.609" stroke="#1A1757" stroke-linecap="round" stroke-linejoin="round"/>
<path d="M110.634 100.139C109.99 95.2099 109.809 90.6802 110.681 85.7202C112.118 77.5136 125.11 76.2306 131.716 77.2867C135.895 77.9517 139.241 79.9936 141.181 84.1556C143.286 88.6853 143.349 94.7014 142.689 99.5127" stroke="#1A1757" stroke-linecap="round" stroke-linejoin="round"/>
<path d="M114.342 103.244C114.373 104.183 114.601 105.81 114.978 107.086" stroke="#1A1757" stroke-linecap="round" stroke-linejoin="round"/>
<path d="M138.973 103.456C138.981 104.394 138.832 106.029 138.518 107.32" stroke="#1A1757" stroke-linecap="round" stroke-linejoin="round"/>
<path d="M74.0632 114.768C75.5556 117.256 79.4436 122.881 82.0042 122.662C79.7735 124.618 70.3636 131.612 70.3636 131.612L69.209 114.768L71.8796 113.243" stroke="#1A1757" stroke-linecap="round" stroke-linejoin="round"/>
<path d="M90.3849 114.643C89.1046 117.232 84.5646 122.701 81.9961 122.67C84.3839 124.453 94.4143 131.533 94.4143 131.533L94.8935 114.651L92.0658 113.258" stroke="#1A1757" stroke-linecap="round" stroke-linejoin="round"/>
<path d="M89.5914 77.2162C94.8383 77.9829 97.2418 85.4307 96.5978 89.9369C95.8751 94.9986 95.4431 100.185 94.7598 105.302C94.1628 109.753 93.0553 114.799 87.9341 115.402C83.8025 115.887 79.6317 116.161 75.5787 115.253C70.5203 114.127 69.8212 110.035 69.6091 104.786C69.3971 99.4736 68.4074 94.1694 68.1953 88.8573C67.889 81.1044 72.7667 77.4666 80.0715 76.254C83.2605 75.722 86.6223 75.9489 89.5914 77.2162ZM89.5914 77.2162C89.4736 79.4694 89.3715 82.3014 89.2615 84.5545M89.2615 84.5545C84.7294 88.3097 77.9351 87.2144 72.4132 89.2876C71.6435 89.5771 70.858 89.9526 70.3946 90.6254C69.7819 91.5173 69.884 92.7064 70.0176 93.7782C70.4182 97.15 70.8187 100.53 71.2272 103.902C71.6592 107.524 76.7019 106.64 79.4196 106.428C82.373 106.202 85.3342 106.475 88.2954 106.405C94.4613 106.256 93.071 104.598 93.8958 99.2623C94.3592 96.266 94.5634 94.8109 94.2728 90.6489C94.155 88.9121 90.8796 88.1454 89.2615 84.5545Z" stroke="#1A1757" stroke-linecap="round" stroke-linejoin="round"/>
<path d="M68.4454 95.2022C67.55 94.0756 65.9869 94.6936 65.6413 95.9375C65.0679 98.0107 66.5524 101.75 69.4115 101.75" stroke="#1A1757" stroke-linecap="round" stroke-linejoin="round"/>
<path d="M95.9847 95.21C96.8801 94.0835 98.6945 94.7015 99.0323 95.9454C99.6057 98.0186 97.752 102.298 95.1992 101.758" stroke="#1A1757" stroke-linecap="round" stroke-linejoin="round"/>
<path d="M81.9961 122.67V144.497" stroke="#1A1757" stroke-linecap="round" stroke-linejoin="round"/>
<path d="M64.4004 144.497H81.9948H92.3316" stroke="#1A1757" stroke-linecap="round" stroke-linejoin="round"/>
<path d="M94.877 115.543C96.6521 115.942 108.128 119.689 112.613 125.103" stroke="#1A1757" stroke-linecap="round" stroke-linejoin="round"/>
<path d="M51.1348 126.91C54.4966 120.268 67.2525 116.294 69.1848 115.856" stroke="#1A1757" stroke-linecap="round" stroke-linejoin="round"/>
<path d="M96.7929 51.8766C94.6329 53.7229 92.2215 55.2406 89.653 56.3828C83.5185 59.1053 76.465 59.7546 69.6707 57.8144C68.6889 57.5485 67.7228 57.2121 66.7567 56.8287C65.712 56.4141 64.7066 55.9447 63.7405 55.4205C57.5824 52.1347 53.011 46.8696 50.4975 40.7675C48.0469 34.8296 47.552 28.0859 49.445 21.5691C49.445 21.5612 49.4528 21.5612 49.4528 21.5534C49.6021 21.0136 49.7749 20.4816 49.9634 19.9418C50.0969 19.5585 50.2462 19.1595 50.4033 18.784C53.1288 12.0011 58.1165 6.78299 64.1725 3.67714C70.5583 0.375702 78.1381 -0.570919 85.4508 1.45532H85.4586C86.5112 1.72913 87.5637 2.08901 88.6005 2.49582C89.5588 2.87916 90.4856 3.30162 91.3653 3.77884H91.3889C96.8793 6.65782 101.129 11.0936 103.807 16.2961" stroke="#1A1757" stroke-linecap="round" stroke-linejoin="round"/>
<path d="M106.572 24.3625V24.354" stroke="#1A1757" stroke-linecap="round" stroke-linejoin="round"/>
<path d="M49.4453 21.5691C53.5926 15.2556 56.9858 18.3772 58.2818 21.5456C59.0123 23.345 58.6745 25.3947 58.1483 27.2644C57.622 29.1342 56.9151 31.004 56.9465 32.9442C56.9779 34.8843 57.9833 36.981 59.837 37.5834C60.6932 37.8572 61.6122 37.7946 62.5076 37.8259C67.3775 38.0058 71.9332 41.6046 73.2292 46.2829C73.622 47.7067 73.7398 49.201 74.1954 50.6014C74.6509 52.0017 75.5542 53.3786 76.9445 53.8872C77.4865 54.0827 78.0677 54.1375 78.594 54.3722C80.2749 55.1232 80.5184 57.8379 79.0024 58.8784" stroke="#1A1757" stroke-linecap="round" stroke-linejoin="round"/>
<path d="M79.1523 0.438049C77.872 2.39388 78.2098 3.52826 79.6315 4.81128C80.9903 6.03172 82.6398 6.90793 84.2971 7.67461C85.1769 8.08142 86.1194 8.41783 86.7949 9.10628C87.5568 9.86514 87.8867 11.0152 87.6511 12.0557C87.5333 12.6033 87.2269 13.1431 86.7164 13.37C86.4022 13.503 86.0487 13.5108 85.711 13.5108C82.8048 13.5264 79.4037 13.5656 77.5657 16.3037C76.0419 18.5803 76.9059 21.6705 78.1705 24.1036C79.4351 26.5366 81.1003 28.954 81.0767 31.6922C81.061 33.515 80.2756 35.2596 80.197 37.0746C80.0949 39.6407 81.3831 42.2771 80.5426 44.7023C80.4012 45.0935 80.2049 45.5238 80.3541 45.9149C80.6919 46.799 82.0429 46.3452 82.7655 45.735C84.7134 44.0765 86.4886 42.2223 88.0517 40.2039C89.0649 38.8896 90.0939 37.4267 91.657 36.8712C91.869 36.793 92.089 36.7382 92.3089 36.6913" stroke="#1A1757" stroke-linecap="round" stroke-linejoin="round"/>
<path d="M15.1479 41.1922L11.0879 45.236L15.1479 49.2799L19.208 45.236L15.1479 41.1922Z" fill="#0EA7AF"/>
<path d="M142.442 54.8245L137.344 59.9028L142.442 64.9811L147.541 59.9028L142.442 54.8245Z" fill="#0EA7AF"/>
<path d="M98.5901 44.8196L94.9062 59.3241L101.261 54.8569L104.426 61.2095L107.921 47.4248" stroke="#1A1757" stroke-miterlimit="10"/>
<path d="M120.89 39.7819V39.7897L128.603 54.255L121.369 51.4152L119.814 58.331L113.365 46.2362" stroke="#1A1757" stroke-miterlimit="10"/>
<path d="M105.574 15.991C96.8865 16.9533 90.6185 24.7531 91.5846 33.4057C92.5507 42.0583 100.382 48.3013 109.069 47.339C117.756 46.3767 124.024 38.5769 123.058 29.9243C122.092 21.2717 114.261 15.0287 105.574 15.991ZM108.755 44.5461C101.615 45.3362 95.182 40.212 94.3887 33.1006C93.5954 25.9892 98.7402 19.5819 105.88 18.7917C113.02 18.0016 119.453 23.1258 120.246 30.2372C121.04 37.3486 115.895 43.7559 108.755 44.5461Z" stroke="#1A1757" stroke-linecap="round" stroke-linejoin="round"/>
<path d="M120.311 32.3251C120.672 25.1791 115.148 19.0946 107.974 18.7351C100.799 18.3756 94.6903 23.8772 94.3293 31.0232C93.9684 38.1693 99.492 44.2537 106.667 44.6132C113.841 44.9727 119.95 39.4711 120.311 32.3251Z" stroke="#1A1757" stroke-linecap="round" stroke-linejoin="round"/>
<path d="M106.5 24.2211L108.935 28.5317C109.045 28.7351 109.281 28.8368 109.501 28.7899L114.37 27.8198C114.873 27.7181 115.211 28.3205 114.865 28.696L111.504 32.3339C111.346 32.506 111.315 32.7485 111.433 32.9519L113.868 37.2626C114.119 37.7085 113.648 38.217 113.184 38.0058L108.668 35.9404C108.456 35.8465 108.212 35.8935 108.055 36.0656L104.694 39.7034C104.348 40.0789 103.72 39.7895 103.775 39.281L104.348 34.3679C104.372 34.1411 104.254 33.922 104.042 33.8281L99.5252 31.7628C99.0539 31.5515 99.1403 30.8631 99.643 30.7614L104.513 29.7913C104.741 29.7444 104.906 29.5644 104.937 29.3375L105.51 24.4245C105.573 23.916 106.249 23.783 106.5 24.2289V24.2211Z" fill="#D82329" stroke="#1A1757" stroke-linecap="round" stroke-linejoin="round"/>
<path d="M42.6618 58.1037L39.9902 60.7646L42.6617 63.4254L45.3333 60.7646L42.6618 58.1037Z" fill="#1A1757"/>
<path d="M135.041 16.3308L132.369 18.9916L135.041 21.6525L137.712 18.9916L135.041 16.3308Z" fill="#1A1757"/>
<path d="M30.9762 26.8083L28.3047 29.4692L30.9762 32.13L33.6477 29.4692L30.9762 26.8083Z" fill="#D82329"/>
</g>
<defs>
<clipPath id="clip0_893_3683">
<rect width="163" height="147" fill="white"/>
</clipPath>
</defs>
</svg>
