<svg width="225" height="143" viewBox="0 0 225 143" fill="none" xmlns="http://www.w3.org/2000/svg">
<g clip-path="url(#clip0_893_3589)">
<path d="M45.0075 54.7676C47.1535 53.2577 49.7599 50.4607 49.7435 46.0631C49.7435 40.3537 45.1308 35.7251 39.4411 35.7251C33.7513 35.7251 29.1387 40.3537 29.1387 46.0631C29.1387 49.6357 32.2713 54.7098 33.6773 54.6356C33.8006 52.5894 33.6362 49.4542 37.6322 48.5053C37.6322 48.5053 35.4944 47.0037 36.81 43.8932C36.81 41.6161 36.81 40.4115 36.81 40.4115H42.0475L41.9817 43.9097C41.9817 43.9097 44.0455 46.7974 41.2499 48.4971C43.0424 49.1159 45.4104 49.9822 45.0075 54.7593V54.7676Z" fill="#D82329"/>
<path d="M85.6176 35.6179H75.8496V45.4197H85.6176V35.6179Z" fill="#0EA7AF"/>
<path d="M85.1242 64.5034H85.6176V54.7016H75.8496V64.5034H82.2382C82.2382 64.5034 81.6956 63.472 81.9422 62.5562C82.1889 61.6404 83.3647 61.5496 83.6936 62.6387C84.0225 63.7278 85.1242 64.5034 85.1242 64.5034Z" fill="#D82329"/>
<path d="M85.6098 84.3954V84.4532H75.8418V74.6432H84.9273C84.9273 74.6432 81.9344 78.2982 83.0691 80.8889C83.8091 82.5803 85.248 84.0654 85.6098 84.3954Z" fill="#DCE2E2"/>
<path d="M171.276 72.0612C174.426 68.4804 178.496 63.5878 177.246 55.3042C175.511 43.8028 170.29 35.3046 157.184 36.4349C150.672 36.996 144.168 42.1361 144.579 49.1162C145.623 52.4164 148.97 55.6837 150.08 59.413C150.631 61.2529 151.806 62.4492 153.007 60.3865C154.224 58.2744 153.188 55.9477 156.246 54.8999C156.764 54.7184 157.348 54.6441 157.858 54.8256C158.845 55.1886 159.272 56.3355 159.428 57.3833C159.659 58.8354 159.593 60.3618 159.083 61.7561C158.606 63.068 157.784 63.9921 156.674 64.7924C156.164 65.1637 154.199 65.6257 154.462 66.6488C155.827 71.9622 160.152 73.8598 164.699 72.977" fill="#1A1757"/>
<path d="M181.825 103.702C183.346 92.4734 179.079 80.3944 171.276 72.053C170.314 71.03 168.817 71.0382 167.42 71.1372C166.828 71.1785 166.227 71.3022 165.742 71.6405C164.205 72.7131 163.572 76.5166 163.029 78.274C162.084 81.3597 161.615 84.6187 161.566 87.8447C161.524 90.1879 161.73 92.5641 162.511 94.7753C164.838 101.326 171.868 105.452 173.759 112.151C174.376 114.346 175.066 115.641 175.732 117.819C176.217 117.687 176.546 117.25 176.834 116.829C179.589 112.811 181.2 108.331 181.825 103.702Z" fill="#1A1757"/>
<path d="M212.701 77.8529C212.355 78.2407 211.887 78.4387 211.41 78.4387C210.933 78.4387 210.415 78.2242 210.061 77.7869L208.4 75.6665C208.4 75.6665 210.217 75.0394 211.04 73.6121L212.709 75.5922C213.268 76.244 213.26 77.2011 212.701 77.8529Z" fill="#D82329"/>
<path d="M194.594 56.154L195.613 59.4047L197.677 57.7794L194.594 56.154Z" fill="#D82329"/>
<path d="M144.174 11.207L140.482 14.9116L144.174 18.6163L147.866 14.9116L144.174 11.207Z" fill="#1A1757"/>
<path d="M171.276 72.0612C174.426 68.4804 178.496 63.5878 177.246 55.3042C175.511 43.8028 170.29 35.3046 157.184 36.4349C150.672 36.996 144.168 42.1361 144.579 49.1162C145.623 52.4164 148.97 55.6837 150.08 59.413C150.631 61.2529 151.806 62.4492 153.007 60.3865C154.224 58.2744 153.188 55.9477 156.246 54.8999C156.764 54.7184 157.348 54.6441 157.858 54.8256C158.845 55.1886 159.272 56.3355 159.428 57.3833C159.659 58.8354 159.593 60.3618 159.083 61.7561C158.606 63.068 157.784 63.9921 156.674 64.7924C156.164 65.1637 154.199 65.6257 154.462 66.6488C155.827 71.9622 160.152 73.8598 164.699 72.977" stroke="#1A1757" stroke-linecap="round" stroke-linejoin="round"/>
<path d="M144.58 49.1161C143.782 53.9015 144.342 61.4756 144.679 66.8138C144.999 71.8302 150.336 74.6766 155.91 73.6535" stroke="#1A1757" stroke-linecap="round" stroke-linejoin="round"/>
<path d="M174.426 75.8897C188.741 75.8732 194.989 93.3563 202.463 109.288" stroke="#1A1757" stroke-linecap="round" stroke-linejoin="round"/>
<path d="M143.256 115.303C144.547 117.943 145.788 120.525 146.224 122.093C147.252 125.698 149.71 133.817 149.924 142.587" stroke="#1A1757" stroke-linecap="round" stroke-linejoin="round"/>
<path d="M187.031 94.4619C191.192 107.292 191.381 114.115 191.627 141.218" stroke="#1A1757" stroke-linecap="round" stroke-linejoin="round"/>
<path d="M181.827 103.702C183.348 92.4732 179.081 80.3943 171.278 72.0529C170.316 71.0298 168.819 71.0381 167.422 71.1371C166.83 71.1783 166.229 71.3021 165.744 71.6404C164.207 72.713 163.574 76.5165 163.031 78.2739C162.085 81.3596 161.617 84.6186 161.567 87.8446C161.526 90.1878 161.732 92.564 162.513 94.7752C164.84 101.326 171.87 105.451 173.761 112.151C174.378 114.346 175.068 115.641 175.734 117.819C176.219 117.687 176.548 117.25 176.836 116.829C179.59 112.811 181.202 108.331 181.827 103.702Z" stroke="#1A1757" stroke-linecap="round" stroke-linejoin="round"/>
<path d="M144.26 55.8074L141.711 64.4789H144.26" stroke="#1A1757" stroke-linecap="round" stroke-linejoin="round"/>
<path d="M154.053 73.86V77.9275" stroke="#1A1757" stroke-linecap="round" stroke-linejoin="round"/>
<path d="M156.732 58.3157C157.176 59.5203 156.987 60.9311 156.264 61.979" stroke="#1A1757" stroke-linecap="round" stroke-linejoin="round"/>
<path d="M86.6288 72.9772C84.9433 74.0168 83.2577 76.987 82.7233 79.1734C82.5917 82.7294 87.5415 86.3762 91.7512 88.7111C98.847 97.7951 114.477 113.711 128.57 127.885C138.971 123.653 147.769 109.263 154.051 99.932" stroke="#1A1757" stroke-linecap="round" stroke-linejoin="round"/>
<path d="M88.0934 75.2627C86.2269 72.3502 81.8445 65.9972 81.935 62.565C81.935 62.2762 82.2639 62.0617 82.5434 62.0039C82.9956 61.9049 83.3985 62.2927 83.6945 62.6475C85.3801 64.6771 88.0441 68.8437 89.8365 70.7826C90.9712 72.0119 93.7749 75.4937 93.7091 74.3716C93.6351 72.936 90.7574 68.9345 90.7985 67.3668C90.8067 66.913 91.1438 66.4428 91.5796 66.3355C92.0318 66.22 92.5251 66.4758 92.8458 66.814C95.3371 69.4707 97.6722 72.3915 98.6178 73.8601C100.805 77.2676 98.6671 81.7477 99.9169 82.845C105.368 88.7112 122.462 99.1895 128.522 104.643C135.535 96.3678 140.543 82.845 148.411 79.8253C153.336 77.9359 158.525 76.5003 163.515 76.4755" stroke="#1A1757" stroke-linecap="round" stroke-linejoin="round"/>
<path d="M107.86 89.4783C105.78 92.6878 101.94 95.1052 99.1113 97.3329" stroke="#1A1757" stroke-linecap="round" stroke-linejoin="round"/>
<path d="M116.764 95.8475C114.535 98.9003 110.252 102.803 107.004 105.072" stroke="#1A1757" stroke-linecap="round" stroke-linejoin="round"/>
<path d="M109.192 96.8128C109.886 96.8128 110.45 96.2477 110.45 95.5505C110.45 94.8533 109.886 94.2881 109.192 94.2881C108.497 94.2881 107.934 94.8533 107.934 95.5505C107.934 96.2477 108.497 96.8128 109.192 96.8128Z" fill="#1A1757"/>
<path d="M201.61 91.2767C202.304 91.2767 202.868 90.7115 202.868 90.0144C202.868 89.3172 202.304 88.752 201.61 88.752C200.915 88.752 200.352 89.3172 200.352 90.0144C200.352 90.7115 200.915 91.2767 201.61 91.2767Z" fill="#1A1757"/>
<path d="M205.696 67.2843C206.091 66.5417 206.502 65.6341 206.971 64.4791C207.209 63.8768 207.554 64.1655 204.455 63.9593C201.963 63.7942 200.977 60.89 200.977 60.89L209.725 60.6508C211.55 61.9131 210.605 64.4791 210.605 64.4791L213.721 70.2957C213.721 70.2957 213.359 72.6802 212.496 75.3286" stroke="#1A1757" stroke-linecap="round" stroke-linejoin="round"/>
<path d="M191.988 122.563C195.59 124.246 200.597 125.938 206.303 125.938C211.697 113.421 208.992 86.7471 209.83 80.6334C210.365 80.0064 210.825 79.2473 211.236 78.4305" stroke="#1A1757" stroke-linecap="round" stroke-linejoin="round"/>
<path d="M196.684 96.8132L200.515 77.9275C200.515 77.9275 198.953 74.8005 197.251 72.2676C196.897 71.7313 196.799 71.063 196.98 70.4442C197.777 67.672 198.122 66.2694 198.024 65.3866C197.917 64.4047 200.458 64.7678 200.515 66.4179C200.573 68.0763 201.148 71.558 202.932 70.3782C203.228 70.1802 203.508 69.9822 203.755 69.7677" stroke="#1A1757" stroke-linecap="round" stroke-linejoin="round"/>
<path d="M210.069 77.7871L195.623 59.4047L197.531 57.606L212.717 75.5924C213.276 76.2442 213.268 77.2013 212.709 77.8531C212.002 78.6616 210.735 78.6286 210.069 77.7871Z" stroke="#1A1757" stroke-linecap="round" stroke-linejoin="round"/>
<path d="M195.615 59.4047L194.669 56.3932C194.62 56.2365 194.784 56.0962 194.932 56.1787L197.53 57.6061" stroke="#1A1757" stroke-linecap="round" stroke-linejoin="round"/>
<path d="M208.4 75.6669C208.4 75.6669 210.217 75.0316 211.04 73.6125" stroke="#1A1757" stroke-linecap="round" stroke-linejoin="round"/>
<path d="M210.596 64.4786L209.609 69.0742" stroke="#1A1757" stroke-linecap="round" stroke-linejoin="round"/>
<path d="M199.422 84.5771C203.78 86.5738 209.601 86.5738 209.601 86.5738" stroke="#1A1757" stroke-linecap="round" stroke-linejoin="round"/>
<path d="M197.152 94.5031C201.707 97.0195 209.601 96.508 209.601 96.508" stroke="#1A1757" stroke-linecap="round" stroke-linejoin="round"/>
<path d="M49.7598 43.4891H66.8701" stroke="#1A1757" stroke-linecap="round" stroke-linejoin="round"/>
<path d="M39.4411 56.4012C45.1309 56.4012 49.7435 51.7727 49.7435 46.0631C49.7435 40.3536 45.1309 35.7251 39.4411 35.7251C33.7512 35.7251 29.1387 40.3536 29.1387 46.0631C29.1387 51.7727 33.7512 56.4012 39.4411 56.4012Z" stroke="#1A1757" stroke-linecap="round" stroke-linejoin="round"/>
<path d="M41.9824 43.9178C42.3935 44.4541 42.6402 45.1307 42.6402 45.865C42.6402 47.6306 41.2095 49.0662 39.45 49.0662C37.6904 49.0662 36.2598 47.6306 36.2598 45.865C36.2598 45.1307 36.5064 44.4541 36.9175 43.9178" stroke="#1A1757" stroke-linecap="round" stroke-linejoin="round"/>
<path d="M45.0163 54.7589C45.0163 52.0857 45.0164 49.4455 41.6699 48.5462" stroke="#1A1757" stroke-linecap="round" stroke-linejoin="round"/>
<path d="M37.6405 48.5052C34.3023 49.553 33.6445 51.8879 33.6445 54.6024" stroke="#1A1757" stroke-linecap="round" stroke-linejoin="round"/>
<path d="M42.0461 40.7167V43.9015C42.0461 43.9015 39.9001 44.6523 36.8086 43.9015V40.725" stroke="#1A1757" stroke-linecap="round" stroke-linejoin="round"/>
<path d="M43.9134 40.4196H34.9512" stroke="#1A1757" stroke-linecap="round" stroke-linejoin="round"/>
<path d="M99.1185 97.333H66.8711V23.6136H127.682V97.333H118.876" stroke="#1A1757" stroke-linecap="round" stroke-linejoin="round"/>
<path d="M93.4609 38.2669H119.714" stroke="#1A1757" stroke-linecap="round" stroke-linejoin="round"/>
<path d="M93.4609 43.0523H111.887" stroke="#1A1757" stroke-linecap="round" stroke-linejoin="round"/>
<path d="M93.4609 57.2764H119.714" stroke="#1A1757" stroke-linecap="round" stroke-linejoin="round"/>
<path d="M93.4609 62.0699H111.887" stroke="#1A1757" stroke-linecap="round" stroke-linejoin="round"/>
<path d="M99.6035 76.8878H119.715" stroke="#1A1757" stroke-linecap="round" stroke-linejoin="round"/>
<path d="M99.5137 81.6813H111.888" stroke="#1A1757" stroke-linecap="round" stroke-linejoin="round"/>
<path d="M85.6176 35.6185H75.8496V45.4202H85.6176V35.6185Z" stroke="#1A1757" stroke-linecap="round" stroke-linejoin="round"/>
<path d="M85.1242 64.5037H85.6093V54.7102H75.8496V64.5037H82.2382" stroke="#1A1757" stroke-linecap="round" stroke-linejoin="round"/>
<path d="M85.6093 84.396V84.4537H75.8496V74.6437H84.9269" stroke="#1A1757" stroke-linecap="round" stroke-linejoin="round"/>
<path d="M185.239 29.6855C190.684 29.6855 195.098 25.2565 195.098 19.793C195.098 14.3295 190.684 9.90051 185.239 9.90051C179.795 9.90051 175.381 14.3295 175.381 19.793C175.381 25.2565 179.795 29.6855 185.239 29.6855Z" stroke="#1A1757" stroke-linecap="round" stroke-linejoin="round"/>
<path d="M188.387 29.166L187.252 35.453L181.677 35.1642L180.863 28.7205" stroke="#1A1757" stroke-linecap="round" stroke-linejoin="round"/>
<path d="M181.842 33.3079L187.408 33.5389" stroke="#1A1757" stroke-linecap="round" stroke-linejoin="round"/>
<path d="M182.566 29.3226L182.714 27.1857L181.538 21.2865C181.415 20.6512 182.097 20.1726 182.648 20.5027L185.567 22.2765L188.601 20.9894C189.218 20.7254 189.834 21.3525 189.571 21.9713L186.562 27.7055L186.397 29.6361" stroke="#1A1757" stroke-linecap="round" stroke-linejoin="round"/>
<path d="M167.389 27.854L172.207 26.6329" stroke="#1A1757" stroke-linecap="round" stroke-linejoin="round"/>
<path d="M167.092 18.0607L171.408 18.9105" stroke="#1A1757" stroke-linecap="round" stroke-linejoin="round"/>
<path d="M171.311 7.42578L175.331 10.1402" stroke="#1A1757" stroke-linecap="round" stroke-linejoin="round"/>
<path d="M180.789 0.412537L181.981 5.25566" stroke="#1A1757" stroke-linecap="round" stroke-linejoin="round"/>
<path d="M191.817 2.45856L190.123 6.53437" stroke="#1A1757" stroke-linecap="round" stroke-linejoin="round"/>
<path d="M200.407 8.77844L196.502 11.6497" stroke="#1A1757" stroke-linecap="round" stroke-linejoin="round"/>
<path d="M204.207 18.3909L199.381 18.7375" stroke="#1A1757" stroke-linecap="round" stroke-linejoin="round"/>
<path d="M202.086 29.4713L197.967 26.9218" stroke="#1A1757" stroke-linecap="round" stroke-linejoin="round"/>
<path d="M39.4414 56.4012L39.4579 86.4995" stroke="#1A1757" stroke-linecap="round" stroke-linejoin="round"/>
<path d="M57.8996 81.178H0.410156V116.062H57.8996V81.178Z" stroke="#1A1757" stroke-linecap="round" stroke-linejoin="round"/>
<path d="M10.3828 93.5212H46.3877" stroke="#1A1757" stroke-linecap="round" stroke-linejoin="round"/>
<path d="M10.3828 99.8162H46.3877" stroke="#1A1757" stroke-linecap="round" stroke-linejoin="round"/>
<path d="M10.3828 106.112H25.0923" stroke="#1A1757" stroke-linecap="round" stroke-linejoin="round"/>
<path d="M25.0937 62.0695H8.94531V71.467H25.0937V62.0695Z" fill="#DCE2E2" stroke="#1A1757" stroke-linecap="round" stroke-linejoin="round"/>
<path d="M197.776 67.4902H184.234V45.7662H206.451V60.6916" stroke="#1A1757" stroke-linecap="round" stroke-linejoin="round"/>
<path d="M43.7413 81.615L39.4411 87.5555L35.1738 81.5985L43.7413 81.615Z" fill="#D82329" stroke="#1A1757" stroke-miterlimit="10"/>
<path d="M64.2068 116.961C64.2068 122.448 59.775 126.895 54.3155 126.895C48.856 126.895 44.416 122.448 44.416 116.961C44.416 111.474 48.8478 107.036 54.3155 107.036C59.7833 107.036 64.2068 111.483 64.2068 116.961Z" fill="#0EA7AF" stroke="#1A1757" stroke-miterlimit="10"/>
<path d="M59.7504 114.535L52.4902 121.821L48.8642 118.174C48.4203 117.728 48.4203 117.011 48.8642 116.565C49.3082 116.119 50.0236 116.119 50.4676 116.565L52.4902 118.595L58.1306 112.926C58.5746 112.481 59.29 112.481 59.734 112.926C60.178 113.372 60.178 114.09 59.734 114.535H59.7504Z" fill="white"/>
<path d="M188.971 52.3503H201.715" stroke="#1A1757" stroke-linecap="round" stroke-linejoin="round"/>
<path d="M189.373 56.1538H194.594" stroke="#1A1757" stroke-linecap="round" stroke-linejoin="round"/>
<path d="M25.0938 67.4161H39.4579" stroke="#1A1757" stroke-linecap="round" stroke-linejoin="round"/>
<path d="M73.4824 139.576V116.053H101.495V126.127H113.886L101.495 132.266V139.576H73.4824Z" stroke="#1A1757" stroke-linecap="round" stroke-linejoin="round"/>
<path d="M82.839 128.793C83.8471 128.793 84.6643 127.973 84.6643 126.961C84.6643 125.949 83.8471 125.129 82.839 125.129C81.8309 125.129 81.0137 125.949 81.0137 126.961C81.0137 127.973 81.8309 128.793 82.839 128.793Z" fill="#D82329"/>
<path d="M91.9152 128.793C92.9233 128.793 93.7405 127.973 93.7405 126.961C93.7405 125.949 92.9233 125.129 91.9152 125.129C90.9071 125.129 90.0898 125.949 90.0898 126.961C90.0898 127.973 90.9071 128.793 91.9152 128.793Z" fill="#D82329"/>
<path d="M221.526 40.7366L218.043 44.2312L221.526 47.7258L225.008 44.2312L221.526 40.7366Z" fill="#D82329"/>
<path d="M14.692 22.915L9.77344 27.8506L14.692 32.7863L19.6107 27.8506L14.692 22.915Z" fill="#D82329"/>
<path d="M32.2778 129.763L29.3301 132.721L32.2778 135.679L35.2254 132.721L32.2778 129.763Z" fill="#1A1757"/>
</g>
<defs>
<clipPath id="clip0_893_3589">
<rect width="225" height="143" fill="white"/>
</clipPath>
</defs>
</svg>
