<svg width="203" height="152" viewBox="0 0 203 152" fill="none" xmlns="http://www.w3.org/2000/svg">
<g clip-path="url(#clip0_893_3479)">
<path d="M202.598 92.0916C202.598 92.7272 202.41 93.3711 202.001 93.9252L199.13 97.9186C199.13 97.9186 197.086 95.0336 194.166 94.3083L196.808 90.372C197.666 89.0599 199.368 88.5872 200.791 89.2473C201.952 89.7934 202.614 90.9343 202.614 92.0997L202.598 92.0916Z" fill="#D82329"/>
<path d="M173.499 130.941L172.166 131.83C171.913 131.993 171.586 131.773 171.651 131.471L172.027 129.809L173.499 130.941Z" fill="#1A1757"/>
<path d="M140.866 127.543C133.612 128.244 93.954 132.107 91.2306 132.376C89.7012 133.313 87.861 133.525 86.0372 132.889C75.9121 133.867 51.0739 136.288 38.209 137.551C38.3726 136.703 38.4462 135.815 38.4543 134.91L85.7918 130.306L88.4744 130.045L90.977 129.792L139.942 125.025C140.163 125.913 140.474 126.752 140.874 127.543H140.866Z" fill="#9C9C9C"/>
<path d="M143.967 93.4282C143.525 93.0859 143.043 92.7354 142.544 92.3524C142.159 92.0672 141.652 91.6108 141.08 91.0892L137.22 51.7506L83.8136 56.9583L81.3109 57.2028L78.6283 57.4636L25.4105 62.6549L29.6142 105.498C28.7146 106.435 27.9295 107.266 27.2179 108.073L22.5234 60.3241C22.5234 60.3241 64.414 56.233 78.3748 54.872C80.2232 55.6217 82.0388 55.2876 83.56 54.3748L83.5682 54.3667C97.5699 53.0057 139.583 48.9064 139.583 48.9064L142.421 77.8541L143.951 93.42L143.967 93.4282Z" fill="#9C9C9C"/>
<path d="M109.968 127.763L111.146 137.412C111.171 137.632 110.893 137.779 110.721 137.632L106.991 133.59C106.787 133.41 106.452 133.451 106.296 133.688L103.246 138.105C103.115 138.292 102.812 138.235 102.788 138.007L101.773 128.838L109.96 127.763H109.968Z" fill="#D82329"/>
<path d="M156.318 27.6304L151.385 32.546L156.318 37.4616L161.251 32.546L156.318 27.6304Z" fill="#0EA7AF"/>
<path d="M130.313 12.6968L127.531 15.4687L130.313 18.2406L133.095 15.4687L130.313 12.6968Z" fill="#1A1757"/>
<path d="M4.41064 70.2599L0.00390625 74.6511L4.41064 79.0423L8.81737 74.6511L4.41064 70.2599Z" fill="#D82329"/>
<path d="M34.7028 143.312C43.7973 136.752 33.4351 118.725 34.1712 117.453C35.4879 115.188 37.8433 110.885 39.7735 106.606C40.9266 104.055 41.3438 98.1467 39.1274 97.1932C36.6902 96.1419 32.7399 102.238 31.096 103.957C27.98 107.234 26.0335 109.141 24.2669 112.083C22.9829 114.21 22.5658 116.704 22.6721 119.034C22.7784 121.365 23.3755 123.574 23.9725 125.766" stroke="#1A1757" stroke-linecap="round" stroke-linejoin="round"/>
<path d="M24.9699 87.9191C24.9699 87.9191 14.5177 99.0516 14.9839 104.675C15.4582 110.298 19.4085 126.288 19.8747 131.748C20.349 137.217 17.4456 151.585 17.4456 151.585" stroke="#1A1757" stroke-linecap="round" stroke-linejoin="round"/>
<path d="M37.1895 140.493V150.574" stroke="#1A1757" stroke-linecap="round" stroke-linejoin="round"/>
<path d="M145.318 131.773C134.056 126.524 142.611 107.299 141.686 106.158C140.026 104.129 137.008 100.258 134.416 96.3459C132.87 94.0069 131.504 88.2451 133.541 86.9493C135.782 85.5231 140.656 90.91 142.553 92.3444C146.152 95.0827 148.385 96.6556 150.601 99.2716C152.212 101.162 153.022 103.558 153.292 105.873C153.562 108.187 153.333 110.469 153.087 112.727" stroke="#1A1757" stroke-linecap="round" stroke-linejoin="round"/>
<path d="M143.248 82.9233C143.248 82.9233 157.863 92.923 158.231 98.0981C158.599 103.273 157.168 114.813 157.511 119.85C157.855 124.886 162.86 138.904 162.86 138.904" stroke="#1A1757" stroke-linecap="round" stroke-linejoin="round"/>
<path d="M142.504 129.972L144.491 142.196" stroke="#1A1757" stroke-linecap="round" stroke-linejoin="round"/>
<path d="M29.6319 105.489L25.4199 62.6465L78.646 57.4551L81.3286 57.1943L83.823 56.958L137.229 51.7503L141.089 91.0889" stroke="#1A1757" stroke-linecap="round" stroke-linejoin="round"/>
<path d="M139.937 125.025L90.9797 129.792L88.4771 130.045L85.7945 130.306L38.457 134.91" stroke="#1A1757" stroke-linecap="round" stroke-linejoin="round"/>
<path d="M27.2355 108.073L22.541 60.324C22.541 60.324 64.4316 56.2329 78.3924 54.8719C80.2407 55.6217 82.0564 55.2875 83.5776 54.3748L83.5858 54.3666C97.5875 53.0056 139.601 48.9063 139.601 48.9063L142.439 77.854L143.968 93.42" stroke="#1A1757" stroke-linecap="round" stroke-linejoin="round"/>
<path d="M38.2188 137.551C51.0836 136.296 75.9219 133.867 86.047 132.889C87.8708 133.525 89.7028 133.313 91.2403 132.375C93.9556 132.107 97.7341 131.74 102.061 131.316" stroke="#1A1757" stroke-linecap="round" stroke-linejoin="round"/>
<path d="M110.305 130.534C121.329 129.45 133.622 128.252 140.876 127.551" stroke="#1A1757" stroke-linecap="round" stroke-linejoin="round"/>
<path d="M81.3281 57.1946L88.4762 130.037" stroke="#1A1757" stroke-linecap="round" stroke-linejoin="round"/>
<path d="M86.0465 132.889L85.793 130.305" stroke="#1A1757" stroke-linecap="round" stroke-linejoin="round"/>
<path d="M78.6461 57.4551L78.3926 54.8798" stroke="#1A1757" stroke-linecap="round" stroke-linejoin="round"/>
<path d="M91.2402 132.375L90.9785 129.792" stroke="#1A1757" stroke-linecap="round" stroke-linejoin="round"/>
<path d="M83.8235 56.9584L83.5781 54.3749V54.3668" stroke="#1A1757" stroke-linecap="round" stroke-linejoin="round"/>
<path d="M101.773 128.83L102.788 137.999C102.812 138.219 103.115 138.284 103.246 138.097L106.296 133.679C106.46 133.443 106.787 133.402 106.991 133.582L110.721 137.624C110.893 137.771 111.171 137.624 111.146 137.404L109.968 127.755" stroke="#1A1757" stroke-miterlimit="10"/>
<path d="M58.6654 27.5706L83.839 27.6521V39.3877L91.4614 27.6521L114.713 27.538V0.407654H49.4727V13.2923" stroke="#1A1757" stroke-linecap="round" stroke-linejoin="round"/>
<path d="M8.36719 13.2922V34.8318L41.2123 34.9296L47.9596 50.1207V34.9296L58.2155 34.8318V13.2922H8.36719Z" stroke="#1A1757" stroke-linecap="round" stroke-linejoin="round"/>
<path d="M45.285 25.7369C46.1748 25.7369 46.8962 25.0181 46.8962 24.1314C46.8962 23.2447 46.1748 22.5259 45.285 22.5259C44.3952 22.5259 43.6738 23.2447 43.6738 24.1314C43.6738 25.0181 44.3952 25.7369 45.285 25.7369Z" stroke="#1A1757" stroke-linecap="round" stroke-linejoin="round"/>
<path d="M37.0819 25.7369C37.9717 25.7369 38.6931 25.0181 38.6931 24.1314C38.6931 23.2447 37.9717 22.5259 37.0819 22.5259C36.1921 22.5259 35.4707 23.2447 35.4707 24.1314C35.4707 25.0181 36.1921 25.7369 37.0819 25.7369Z" stroke="#1A1757" stroke-linecap="round" stroke-linejoin="round"/>
<path d="M28.8963 25.7369C29.7862 25.7369 30.5075 25.0181 30.5075 24.1314C30.5075 23.2447 29.7862 22.5259 28.8963 22.5259C28.0065 22.5259 27.2852 23.2447 27.2852 24.1314C27.2852 25.0181 28.0065 25.7369 28.8963 25.7369Z" stroke="#1A1757" stroke-linecap="round" stroke-linejoin="round"/>
<path d="M20.6913 25.7369C21.5811 25.7369 22.3024 25.0181 22.3024 24.1314C22.3024 23.2447 21.5811 22.5259 20.6913 22.5259C19.8014 22.5259 19.0801 23.2447 19.0801 24.1314C19.0801 25.0181 19.8014 25.7369 20.6913 25.7369Z" stroke="#1A1757" stroke-linecap="round" stroke-linejoin="round"/>
<path d="M172.673 81.383C181.336 81.383 188.359 74.3847 188.359 65.7519C188.359 57.1191 181.336 50.1208 172.673 50.1208C164.009 50.1208 156.986 57.1191 156.986 65.7519C156.986 74.3847 164.009 81.383 172.673 81.383Z" stroke="#1A1757" stroke-linecap="round" stroke-linejoin="round"/>
<path d="M172.673 78.8239C179.918 78.8239 185.792 72.9713 185.792 65.7518C185.792 58.5323 179.918 52.6797 172.673 52.6797C165.428 52.6797 159.555 58.5323 159.555 65.7518C159.555 72.9713 165.428 78.8239 172.673 78.8239Z" stroke="#1A1757" stroke-linecap="round" stroke-linejoin="round"/>
<path d="M172.673 76.1754C178.45 76.1754 183.134 71.5087 183.134 65.752C183.134 59.9952 178.45 55.3285 172.673 55.3285C166.896 55.3285 162.213 59.9952 162.213 65.752C162.213 71.5087 166.896 76.1754 172.673 76.1754Z" fill="#1A1757"/>
<path d="M185.53 74.7001L189.586 78.7505L186.192 82.1408L182.201 78.1638" stroke="#1A1757" stroke-linecap="round" stroke-linejoin="round"/>
<path d="M67.7676 11.3199H97.7175" stroke="#1A1757" stroke-linecap="round" stroke-linejoin="round"/>
<path d="M67.7676 16.7637H97.7175" stroke="#1A1757" stroke-linecap="round" stroke-linejoin="round"/>
<path d="M183.084 110.86L168.412 112.947L165.533 92.8902L185.669 90.0134L187.681 103.998" fill="#DCE2E2"/>
<path d="M183.084 110.86L168.412 112.947L165.533 92.8902L185.669 90.0134L187.681 103.998" stroke="#1A1757" stroke-linecap="round" stroke-linejoin="round"/>
<path d="M171.758 98.1223L181.163 96.7776" stroke="#1A1757" stroke-linecap="round" stroke-linejoin="round"/>
<path d="M172.158 100.934L181.572 99.5892" stroke="#1A1757" stroke-linecap="round" stroke-linejoin="round"/>
<path d="M119.865 62.9973L129.745 61.9786" stroke="#9C9C9C" stroke-linecap="round" stroke-linejoin="round"/>
<path d="M37.1878 75.4663C38.4209 75.4663 39.4206 74.4702 39.4206 73.2415C39.4206 72.0127 38.4209 71.0166 37.1878 71.0166C35.9547 71.0166 34.9551 72.0127 34.9551 73.2415C34.9551 74.4702 35.9547 75.4663 37.1878 75.4663Z" fill="#1A1757" stroke="#1A1757" stroke-miterlimit="10"/>
<path d="M127.045 104.471C128.278 104.471 129.278 103.475 129.278 102.246C129.278 101.018 128.278 100.022 127.045 100.022C125.812 100.022 124.812 101.018 124.812 102.246C124.812 103.475 125.812 104.471 127.045 104.471Z" fill="#1A1757" stroke="#1A1757" stroke-miterlimit="10"/>
<path d="M76.698 102.572L62.6309 104.023" stroke="#9C9C9C" stroke-linecap="round" stroke-linejoin="round"/>
<path d="M61.8125 96.1339L75.8796 94.6833" stroke="#9C9C9C" stroke-linecap="round" stroke-linejoin="round"/>
<path d="M62.1738 100.241L76.241 98.7905" stroke="#9C9C9C" stroke-linecap="round" stroke-linejoin="round"/>
<path d="M77.0574 106.68L62.9902 108.13" stroke="#9C9C9C" stroke-linecap="round" stroke-linejoin="round"/>
<path d="M74.0086 71.7664L59.0664 73.3148" stroke="#9C9C9C" stroke-linecap="round" stroke-linejoin="round"/>
<path d="M120.43 66.8766L130.309 65.8578" stroke="#9C9C9C" stroke-linecap="round" stroke-linejoin="round"/>
<path d="M74.4403 75.9473L59.498 77.4876" stroke="#9C9C9C" stroke-linecap="round" stroke-linejoin="round"/>
<path d="M129.081 111.521L100.211 114.503" stroke="#9C9C9C" stroke-linecap="round" stroke-linejoin="round"/>
<path d="M129.515 115.701L100.645 118.676" stroke="#9C9C9C" stroke-linecap="round" stroke-linejoin="round"/>
<path d="M126.326 91.4316L109.527 93.1675" stroke="#9C9C9C" stroke-linecap="round" stroke-linejoin="round"/>
<path d="M126.76 95.6125L109.961 97.3484" stroke="#9C9C9C" stroke-linecap="round" stroke-linejoin="round"/>
<path d="M42.5117 73.2415C42.9534 73.3067 43.4931 73.437 44.0902 73.6489" stroke="#1A1757" stroke-linecap="round" stroke-linejoin="round"/>
<path d="M47.0098 75.0589C51.557 77.8949 56.5296 84.1539 52.6203 95.0745C49.2016 104.626 51.4834 118.464 61.584 121.936C76.2154 126.964 92.6707 114.838 91.2312 98.204C88.9167 71.3915 95.5904 62.5165 107.719 64.3909C119.84 66.2653 122.4 79.4189 110.295 84.8874C99.6388 89.7039 97.7495 106.818 110.295 107.201C113.894 107.315 117.133 106.549 119.349 105.824" stroke="#1A1757" stroke-linecap="round" stroke-linejoin="round"/>
<path d="M120.895 105.278C121.843 104.903 122.391 104.626 122.391 104.626" stroke="#1A1757" stroke-linecap="round" stroke-linejoin="round"/>
<path d="M125.288 73.6758L108.334 75.4246L108.68 78.7563L125.634 77.0075L125.288 73.6758Z" fill="#0EA7AF" stroke="#1A1757" stroke-miterlimit="10"/>
<path d="M58.7165 107.444L46.1641 108.739L46.4698 111.682L59.0222 110.387L58.7165 107.444Z" fill="#D82329" stroke="#1A1757" stroke-miterlimit="10"/>
<path d="M61.0778 81.2768L48.5254 82.5716L48.8723 85.9114L61.4248 84.6166L61.0778 81.2768Z" fill="#D82329" stroke="#1A1757" stroke-miterlimit="10"/>
<path d="M73.6468 124.161C74.8799 124.161 75.8796 123.165 75.8796 121.936C75.8796 120.707 74.8799 119.711 73.6468 119.711C72.4137 119.711 71.4141 120.707 71.4141 121.936C71.4141 123.165 72.4137 124.161 73.6468 124.161Z" fill="#1A1757" stroke="#1A1757" stroke-miterlimit="10"/>
<path d="M202.002 93.9253L176.984 128.635L172.846 126.182L196.801 90.3639C197.659 89.0518 199.361 88.5709 200.784 89.2392C202.575 90.0786 203.155 92.3198 202.01 93.9171L202.002 93.9253Z" stroke="#1A1757" stroke-linecap="round" stroke-linejoin="round"/>
<path d="M176.983 128.635L172.166 131.821C171.913 131.993 171.586 131.764 171.651 131.463L172.845 126.174" stroke="#1A1757" stroke-linecap="round" stroke-linejoin="round"/>
<path d="M173.499 130.941L172.027 129.8" stroke="#1A1757" stroke-linecap="round" stroke-linejoin="round"/>
<path d="M199.123 97.9186C199.123 97.9186 197.078 95.0336 194.158 94.3083" stroke="#1A1757" stroke-linecap="round" stroke-linejoin="round"/>
</g>
<defs>
<clipPath id="clip0_893_3479">
<rect width="203" height="152" fill="white"/>
</clipPath>
</defs>
</svg>
