<svg width="34" height="44" viewBox="0 0 34 44" fill="none" xmlns="http://www.w3.org/2000/svg">
<path d="M25.837 16.2125C28.7327 16.2125 31.0802 13.8759 31.0802 10.9936C31.0802 8.11125 28.7327 5.77466 25.837 5.77466C22.9412 5.77466 20.5938 8.11125 20.5938 10.9936C20.5938 13.8759 22.9412 16.2125 25.837 16.2125Z" stroke="white" stroke-width="2" stroke-miterlimit="10"/>
<path d="M25.837 39.0111C28.7327 39.0111 31.0802 36.6745 31.0802 33.7922C31.0802 30.9098 28.7327 28.5732 25.837 28.5732C22.9412 28.5732 20.5938 30.9098 20.5938 33.7922C20.5938 36.6745 22.9412 39.0111 25.837 39.0111Z" stroke="white" stroke-width="2" stroke-miterlimit="10"/>
<path d="M8.59086 27.7491C11.4866 27.7491 13.8341 25.4125 13.8341 22.5302C13.8341 19.6479 11.4866 17.3113 8.59086 17.3113C5.69512 17.3113 3.34766 19.6479 3.34766 22.5302C3.34766 25.4125 5.69512 27.7491 8.59086 27.7491Z" stroke="white" stroke-width="2" stroke-miterlimit="10"/>
<path d="M12.4141 18.9457L21.1619 13.356" stroke="white" stroke-width="2" stroke-miterlimit="10"/>
<path d="M12.4141 25.9912L21.1619 31.581" stroke="white" stroke-width="2" stroke-miterlimit="10"/>
</svg>
