<svg width="57" height="62" viewBox="0 0 57 62" fill="none" xmlns="http://www.w3.org/2000/svg">
<g clip-path="url(#clip0_893_1850)">
<path d="M44.71 35.36V1H1V60.77H9.18H44.71V52.92" stroke="#1A1757" stroke-width="2" stroke-miterlimit="10"/>
<path d="M36.8995 8.72998H9.51953V20.38H36.8995V8.72998Z" stroke="#1A1757" stroke-width="2" stroke-miterlimit="10"/>
<path d="M7.83984 27.74H38.3598" stroke="#1A1757" stroke-width="2" stroke-miterlimit="10"/>
<path d="M7.83984 34.39H38.3598" stroke="#1A1757" stroke-width="2" stroke-miterlimit="10"/>
<path d="M7.83984 41.1899H29.9498" stroke="#1A1757" stroke-width="2" stroke-miterlimit="10"/>
<path d="M7.83984 48.47H29.9498" stroke="#1A1757" stroke-width="2" stroke-miterlimit="10"/>
<path d="M40.25 53.89C46.1871 53.89 51 49.0771 51 43.14C51 37.203 46.1871 32.39 40.25 32.39C34.3129 32.39 29.5 37.203 29.5 43.14C29.5 49.0771 34.3129 53.89 40.25 53.89Z" fill="#F1F3F3" stroke="#0EA7AF" stroke-width="2" stroke-miterlimit="10"/>
<path d="M47.7402 50.84L56.3202 58.39" stroke="#0EA7AF" stroke-width="2" stroke-miterlimit="10"/>
</g>
<defs>
<clipPath id="clip0_893_1850">
<rect width="56.99" height="61.77" fill="white"/>
</clipPath>
</defs>
</svg>
