<svg width="81" height="79" viewBox="0 0 81 79" fill="none" xmlns="http://www.w3.org/2000/svg">
<g clip-path="url(#clip0_893_1876)">
<path d="M14.14 42.875C19.625 42.875 24.0692 38.4064 24.0692 32.8912C24.0692 27.3761 19.625 22.9075 14.14 22.9075C8.65506 22.9075 4.21094 27.3761 4.21094 32.8912C4.21094 38.4064 8.65506 42.875 14.14 42.875Z" stroke="#1A1757" stroke-width="2" stroke-miterlimit="10"/>
<path d="M27.1096 62.4779C27.1096 61.2314 26.9341 53.4231 26.5833 52.2707C25.0395 46.8614 20.0574 42.8632 14.1397 42.8632C8.22204 42.8632 3.01774 47.0378 1.56755 52.6705C1.29857 53.6936 1.16992 61.3608 1.16992 62.4779H27.1096Z" stroke="#1A1757" stroke-width="2" stroke-miterlimit="10"/>
<path d="M47.0033 58.2211C52.4883 58.2211 56.9324 53.7525 56.9324 48.2373C56.9324 42.7221 52.4883 38.2535 47.0033 38.2535C41.5183 38.2535 37.0742 42.7221 37.0742 48.2373C37.0742 53.7525 41.5183 58.2211 47.0033 58.2211Z" stroke="#1A1757" stroke-width="2" stroke-miterlimit="10"/>
<path d="M59.9728 77.824C59.9728 76.5775 59.7974 68.7692 59.4466 67.6168C57.9028 62.2074 52.9207 58.2092 47.003 58.2092C41.0853 58.2092 35.881 62.3838 34.4308 68.0166C34.1618 69.0397 34.0332 76.7068 34.0332 77.824H59.9728Z" stroke="#1A1757" stroke-width="2" stroke-miterlimit="10"/>
<path d="M79.8309 1.1759V28.2344H35.8926L44.9796 15.4989V1.1759H79.8309Z" stroke="#1A1757" stroke-width="2" stroke-miterlimit="10"/>
<path d="M51.1543 9.07825H73.1644" stroke="#0EA7AF" stroke-width="2" stroke-miterlimit="10"/>
<path d="M51.1543 17.9919H73.1644" stroke="#0EA7AF" stroke-width="2" stroke-miterlimit="10"/>
</g>
<defs>
<clipPath id="clip0_893_1876">
<rect width="81" height="79" fill="white"/>
</clipPath>
</defs>
</svg>
