<svg width="80" height="71" viewBox="0 0 80 71" fill="none" xmlns="http://www.w3.org/2000/svg">
<path d="M16.7542 46.8725C23.0077 46.8725 28.0771 41.8496 28.0771 35.6534C28.0771 29.4573 23.0077 24.4343 16.7542 24.4343C10.5008 24.4343 5.4314 29.4573 5.4314 35.6534C5.4314 41.8496 10.5008 46.8725 16.7542 46.8725Z" stroke="#1A1757" stroke-width="4" stroke-miterlimit="10"/>
<path d="M31.5509 68.7994C31.5509 67.3971 31.3364 58.6428 30.9504 57.3679C29.1919 51.2908 23.5305 46.8287 16.7969 46.8287C10.0632 46.8287 4.10159 51.4608 2.47178 57.7928C2.17156 58.9402 2 67.567 2 68.7994H31.5509Z" stroke="#1A1757" stroke-width="4" stroke-miterlimit="10"/>
<path d="M63.2463 24.6909C69.4997 24.6909 74.5691 19.6679 74.5691 13.4718C74.5691 7.27565 69.4997 2.25269 63.2463 2.25269C56.9929 2.25269 51.9235 7.27565 51.9235 13.4718C51.9235 19.6679 56.9929 24.6909 63.2463 24.6909Z" stroke="#1A1757" stroke-width="4" stroke-miterlimit="10"/>
<path d="M78 46.6178C78 45.2154 77.7855 36.4611 77.3995 35.1862C75.641 29.1092 69.9796 24.6471 63.246 24.6471C56.5123 24.6471 50.5936 29.3217 48.9209 35.6537C48.6207 36.8011 48.4491 45.4279 48.4491 46.6603H78V46.6178Z" stroke="#1A1757" stroke-width="4" stroke-miterlimit="10"/>
<path d="M46.4333 67.1011H63.246V50.825" stroke="#0EA7AF" stroke-width="4" stroke-miterlimit="10"/>
<path d="M32.6229 3.56795H16.7538V19.2492" stroke="#0EA7AF" stroke-width="4" stroke-miterlimit="10"/>
</svg>
