<svg width="61" height="67" viewBox="0 0 61 67" fill="none" xmlns="http://www.w3.org/2000/svg">
<g clip-path="url(#clip0_893_1859)">
<path d="M11.6593 24.497C16.1495 24.497 19.7814 20.877 19.7814 16.4249C19.7814 11.9728 16.139 8.35291 11.6593 8.35291C7.17953 8.35291 3.53711 11.9728 3.53711 16.4249C3.53711 20.877 7.17953 24.497 11.6593 24.497Z" stroke="#1A1757" stroke-width="2" stroke-miterlimit="10"/>
<path d="M22.2831 40.3602C22.2831 39.3512 22.1366 33.0371 21.854 32.1009C20.5875 27.7216 16.5055 24.4866 11.6699 24.4866C6.83427 24.4866 2.56385 27.8569 1.38111 32.4234C1.16131 33.2451 1.05664 39.4552 1.05664 40.3602H22.2936H22.2831Z" stroke="#1A1757" stroke-width="2" stroke-miterlimit="10"/>
<path d="M59.9528 11.9832C59.9528 18.0268 55.0229 22.9262 48.9418 22.9262H27.2129L31.4205 17.153V11.9832C31.4205 5.93956 36.3503 1.04016 42.4315 1.04016H48.9313C55.0125 1.04016 59.9423 5.93956 59.9423 11.9832H59.9528Z" stroke="#1A1757" stroke-width="2" stroke-miterlimit="10"/>
<path d="M38.6328 9.56995H52.3442" stroke="#0EA7AF" stroke-width="2" stroke-miterlimit="10"/>
<path d="M38.6328 15.0519H52.3442" stroke="#0EA7AF" stroke-width="2" stroke-miterlimit="10"/>
<path d="M47.4563 37.4788H1.04688V62.423H47.4563V37.4788Z" fill="#F1F3F3" stroke="#1A1757" stroke-width="2" stroke-miterlimit="10"/>
<path d="M45.3097 50.0966C49.7999 50.0966 53.4318 46.4767 53.4318 42.0246C53.4318 37.5725 49.7894 33.9525 45.3097 33.9525C40.8299 33.9525 37.1875 37.5725 37.1875 42.0246C37.1875 46.4767 40.8299 50.0966 45.3097 50.0966Z" fill="#F1F3F3" stroke="#1A1757" stroke-width="2" stroke-miterlimit="10"/>
<path d="M55.9335 65.9598C55.9335 64.9508 55.787 58.6367 55.5044 57.7005C54.2379 53.3212 50.1559 50.0862 45.3203 50.0862C40.4847 50.0862 36.2142 53.4565 35.0315 58.023C34.8117 58.8448 34.707 65.0548 34.707 65.9598H55.944H55.9335Z" fill="#F1F3F3" stroke="#1A1757" stroke-width="2" stroke-miterlimit="10"/>
</g>
<defs>
<clipPath id="clip0_893_1859">
<rect width="61" height="67" fill="white"/>
</clipPath>
</defs>
</svg>
