<svg width="53" height="71" viewBox="0 0 53 71" fill="none" xmlns="http://www.w3.org/2000/svg">
<path d="M50.7122 2.25269H2V68.7995H50.7122V2.25269Z" stroke="#1A1757" stroke-width="4" stroke-miterlimit="10"/>
<path d="M18.584 37.7538H11.061V45.2258H18.584V37.7538Z" stroke="#1A1757" stroke-width="4" stroke-miterlimit="10"/>
<path d="M18.584 52.4919H11.061V59.964H18.584V52.4919Z" stroke="#1A1757" stroke-width="4" stroke-miterlimit="10"/>
<path d="M23.9038 38.6199H33.3802" stroke="#1A1757" stroke-width="4" stroke-miterlimit="10"/>
<path d="M23.9038 44.155H43.3139" stroke="#1A1757" stroke-width="4" stroke-miterlimit="10"/>
<path d="M23.9038 53.0291H33.3802" stroke="#1A1757" stroke-width="4" stroke-miterlimit="10"/>
<path d="M23.9038 58.5194H43.3139" stroke="#1A1757" stroke-width="4" stroke-miterlimit="10"/>
<path d="M26.3564 18.3527C29.065 18.3527 31.2608 16.1717 31.2608 13.4814C31.2608 10.7911 29.065 8.61011 26.3564 8.61011C23.6477 8.61011 21.4519 10.7911 21.4519 13.4814C21.4519 16.1717 23.6477 18.3527 26.3564 18.3527Z" stroke="#0EA7AF" stroke-width="4" stroke-miterlimit="10"/>
<path d="M32.7987 27.972C32.7987 27.3528 32.7156 23.5548 32.5493 22.9769C31.8012 20.3348 29.3074 18.3533 26.3564 18.3533C23.4054 18.3533 20.8285 20.4174 20.1219 23.142C19.9972 23.6374 19.9141 27.3941 19.9141 27.9307L34.5 28.0761L32.7987 27.972Z" stroke="#0EA7AF" stroke-width="4" stroke-miterlimit="10"/>
</svg>
