<svg width="73" height="68" viewBox="0 0 73 68" fill="none" xmlns="http://www.w3.org/2000/svg">
<g clip-path="url(#clip0_893_1834)">
<path d="M37.3704 19.99L21.2704 29.99V39.81H13.6504V66.2H60.5204V39.81H53.5304L53.4604 29.99L37.3704 19.99Z" stroke="#1A1757" stroke-width="2" stroke-miterlimit="10"/>
<path d="M37.3691 19.99V10.49V1L51.7591 4.86V15.78L37.3691 11.26" stroke="#1A1757" stroke-width="2" stroke-linecap="round" stroke-linejoin="round"/>
<path d="M45.9294 50.13H28.6094V66.2H45.9294V50.13Z" stroke="#1A1757" stroke-width="2" stroke-miterlimit="10"/>
<path d="M37.1191 43.36C41.1232 43.36 44.3691 40.114 44.3691 36.11C44.3691 32.1059 41.1232 28.86 37.1191 28.86C33.1151 28.86 29.8691 32.1059 29.8691 36.11C29.8691 40.114 33.1151 43.36 37.1191 43.36Z" stroke="#0EA7AF" stroke-width="2" stroke-miterlimit="10"/>
<path d="M72.26 66.2H0" stroke="#1A1757" stroke-width="2" stroke-miterlimit="10"/>
</g>
<defs>
<clipPath id="clip0_893_1834">
<rect width="72.26" height="67.2" fill="white"/>
</clipPath>
</defs>
</svg>
