<svg width="52" height="72" viewBox="0 0 52 72" fill="none" xmlns="http://www.w3.org/2000/svg">
<path d="M26.3961 33.0653C29.9108 33.0653 32.7453 30.2526 32.7453 26.8773C32.7453 23.502 29.9108 20.6892 26.3961 20.6892C22.8813 20.6892 20.0469 23.502 20.0469 26.8773C20.0469 30.3651 22.8813 33.0653 26.3961 33.0653Z" stroke="#0EA7AF" stroke-width="2" stroke-miterlimit="10"/>
<path d="M34.561 45.2165C34.561 44.429 34.4476 39.591 34.2209 38.916C33.2005 35.5407 30.1392 33.0654 26.2844 33.0654C22.5429 33.0654 19.2549 35.6532 18.3479 39.141C18.2345 39.816 18.1211 44.5415 18.1211 45.2165H34.561Z" stroke="#0EA7AF" stroke-width="2" stroke-miterlimit="10"/>
<path d="M36.6009 8.08813H51V70.9814H1V8.08813H16.1927" stroke="#1A1757" stroke-width="2" stroke-miterlimit="10"/>
<path d="M30.5905 4.15029C30.0236 2.35012 28.3229 1 26.3955 1C24.4681 1 22.654 2.35012 22.2005 4.15029H16.1914V12.1385H36.5996V4.15029H30.5905Z" stroke="#1A1757" stroke-width="2" stroke-miterlimit="10"/>
<path d="M7.91602 53.6548H43.2902" stroke="#1A1757" stroke-width="2" stroke-miterlimit="10"/>
<path d="M7.91602 60.6304H43.2902" stroke="#1A1757" stroke-width="2" stroke-miterlimit="10"/>
</svg>
