<svg width="22" height="18" viewBox="0 0 22 18" fill="none" xmlns="http://www.w3.org/2000/svg">
<path d="M20.8811 2.52719C20.2507 2.82155 19.5324 3.00351 18.8451 3.12125C19.1707 3.06238 19.6358 2.45762 19.827 2.21144C20.1164 1.83681 20.3541 1.40866 20.4936 0.9484C20.5091 0.910938 20.5194 0.868123 20.4884 0.841364C20.4471 0.825309 20.4161 0.830661 20.3799 0.852068C19.6203 1.27486 18.8296 1.57992 17.9925 1.79934C17.9253 1.8154 17.8737 1.79934 17.8271 1.75653C17.76 1.67625 17.6928 1.59597 17.6204 1.5371C17.269 1.2267 16.8918 0.980512 16.4629 0.803901C15.9048 0.56842 15.2899 0.466735 14.6853 0.509549C14.0962 0.547012 13.5226 0.718271 13.0007 1.00192C12.4788 1.28557 12.0137 1.67625 11.6416 2.15257C11.2592 2.64493 10.975 3.22293 10.8303 3.8384C10.6908 4.43245 10.7011 5.0158 10.789 5.61521C10.7993 5.71689 10.789 5.7276 10.7063 5.71689C7.42493 5.20847 4.70165 3.9936 2.49512 1.38725C2.39694 1.27486 2.34526 1.27486 2.26775 1.39796C1.30142 2.89647 1.77166 5.31015 2.9757 6.49291C3.13589 6.65347 3.30125 6.80867 3.48211 6.95317C3.41493 6.96922 2.61397 6.87824 1.89569 6.49291C1.7975 6.42869 1.75099 6.46615 1.74066 6.57854C1.73032 6.7391 1.74066 6.88895 1.7665 7.06556C1.95253 8.58548 2.97053 9.99302 4.36059 10.5443C4.52595 10.6138 4.70681 10.6781 4.88768 10.7102C4.57246 10.7851 4.24174 10.8333 3.33226 10.7583C3.21857 10.7369 3.17723 10.7958 3.21857 10.9082C3.90068 12.8402 5.37859 13.4128 6.48444 13.7393C6.63429 13.7661 6.77899 13.7661 6.92884 13.8035C6.91851 13.8196 6.91335 13.8196 6.90301 13.8303C6.53612 14.4083 5.2649 14.8418 4.67581 15.0559C3.60096 15.4465 2.42794 15.6232 1.29109 15.5054C1.11022 15.4787 1.06888 15.4787 1.02237 15.5054C0.970699 15.5375 1.01721 15.5803 1.07405 15.6339C1.30659 15.7944 1.53913 15.9336 1.77684 16.0674C2.50029 16.4634 3.25474 16.7792 4.0402 17.0039C8.10704 18.1653 12.6906 17.3143 15.7446 14.1675C18.1424 11.7003 18.9847 8.29648 18.9847 4.88736C18.9847 4.75356 19.1345 4.67864 19.2275 4.60906C19.8528 4.12204 20.3902 3.54404 20.8553 2.89112C20.9587 2.74662 21 2.61818 21 2.56466V2.5486C21 2.49508 20.9638 2.51114 20.8811 2.5486V2.52719Z" stroke="#1A1757" stroke-linejoin="round"/>
</svg>
