<svg width="34" height="28" viewBox="0 0 34 28" fill="none" xmlns="http://www.w3.org/2000/svg">
<path d="M33.7979 3.33891C32.7262 3.82372 31.5051 4.12343 30.3367 4.31735C30.8902 4.22039 31.6808 3.22432 32.0059 2.81884C32.4978 2.2018 32.9019 1.49661 33.1391 0.738542C33.1654 0.676838 33.183 0.606321 33.1303 0.562247C33.06 0.535802 33.0073 0.544618 32.9458 0.579877C31.6545 1.27625 30.3104 1.77869 28.8873 2.1401C28.773 2.16654 28.6852 2.1401 28.6061 2.06958C28.4919 1.93735 28.3777 1.80513 28.2547 1.70817C27.6574 1.19691 27.0161 0.791432 26.287 0.500544C25.3382 0.112692 24.2928 -0.0547899 23.265 0.0157285C22.2635 0.0774321 21.2884 0.359506 20.4012 0.82669C19.5139 1.29387 18.7233 1.93735 18.0908 2.72187C17.4407 3.53283 16.9575 4.48483 16.7115 5.49854C16.4744 6.47698 16.4919 7.43779 16.6413 8.42505C16.6588 8.59253 16.6413 8.61016 16.5007 8.59253C10.9224 7.75512 6.29281 5.75416 2.5417 1.46136C2.37479 1.27625 2.28694 1.27624 2.15517 1.47899C0.512417 3.94713 1.31183 7.9226 3.35868 9.87068C3.63101 10.1351 3.91212 10.3907 4.21959 10.6287C4.10538 10.6552 2.74375 10.5053 1.52267 9.87068C1.35576 9.7649 1.27669 9.8266 1.25912 10.0117C1.24155 10.2762 1.25912 10.523 1.30305 10.8139C1.6193 13.3173 3.3499 15.6356 5.71301 16.5435C5.99412 16.6581 6.30158 16.7639 6.60905 16.8167C6.07318 16.9401 5.51096 17.0195 3.96483 16.8961C3.77157 16.8608 3.70129 16.9578 3.77157 17.1429C4.93116 20.325 7.4436 21.2682 9.32354 21.8059C9.5783 21.85 9.82428 21.85 10.079 21.9117C10.0615 21.9381 10.0527 21.9381 10.0351 21.9558C9.4114 22.9078 7.25033 23.6218 6.24887 23.9744C4.42163 24.6178 2.4275 24.9087 0.494848 24.7148C0.187381 24.6707 0.117099 24.6707 0.0380362 24.7148C-0.0498117 24.7677 0.0292567 24.8382 0.125889 24.9264C0.521204 25.1908 0.91652 25.42 1.32062 25.6404C2.55049 26.2926 3.83306 26.8127 5.16834 27.1829C12.082 29.0958 19.8741 27.6942 25.0659 22.5111C29.142 18.4475 30.5739 12.8413 30.5739 7.22624C30.5739 7.00587 30.8287 6.88246 30.9868 6.76787C32.0498 5.96572 32.9634 5.01372 33.754 3.93832C33.9297 3.70032 34 3.48876 34 3.40061V3.37417C34 3.28602 33.9385 3.31246 33.7979 3.37417V3.33891Z" fill="#1A1757"/>
</svg>
