<svg width="28" height="28" viewBox="0 0 28 28" fill="none" xmlns="http://www.w3.org/2000/svg">
<path fill-rule="evenodd" clip-rule="evenodd" d="M20.3175 16.779C19.9698 16.6052 18.2653 15.7675 17.948 15.6509C17.6306 15.5354 17.3996 15.4782 17.1675 15.8259C16.9365 16.1712 16.2726 16.9529 16.0708 17.1839C15.8678 17.416 15.666 17.444 15.3195 17.2714C14.973 17.0964 13.8553 16.7312 12.5311 15.5505C11.501 14.6312 10.8045 13.496 10.6026 13.1484C10.4008 12.8019 10.5805 12.614 10.7543 12.4414C10.9106 12.2862 11.1008 12.0365 11.2746 11.8347C11.4485 11.6317 11.5056 11.487 11.6211 11.2549C11.7378 11.0239 11.6795 10.822 11.592 10.6482C11.5056 10.4744 10.8126 8.76753 10.5233 8.07337C10.2422 7.39787 9.95632 7.49004 9.74398 7.47837C9.54099 7.46904 9.30999 7.4667 9.07899 7.4667C8.84799 7.4667 8.47232 7.55303 8.15499 7.9007C7.83649 8.2472 6.94166 9.08603 6.94166 10.7929C6.94166 12.4985 8.18299 14.147 8.35682 14.3792C8.53065 14.6102 10.801 18.1125 14.2788 19.614C15.1071 19.971 15.7523 20.1845 16.2551 20.3432C17.0858 20.608 17.8418 20.5707 18.4391 20.4808C19.1041 20.3817 20.4901 19.642 20.7795 18.8323C21.0676 18.0227 21.0676 17.3285 20.9813 17.1839C20.895 17.0392 20.664 16.9529 20.3163 16.779H20.3175ZM13.9918 25.4158H13.9871C11.9215 25.4162 9.89375 24.8609 8.11649 23.8082L7.69649 23.5585L3.33083 24.7042L4.49633 20.4482L4.22216 20.0118C3.06732 18.1736 2.45617 16.0461 2.45933 13.8752C2.46166 7.51687 7.63465 2.34388 13.9965 2.34388C17.0765 2.34388 19.9721 3.54554 22.1491 5.72487C23.2229 6.79421 24.074 8.06586 24.6531 9.46625C25.2323 10.8666 25.528 12.368 25.5231 13.8834C25.5208 20.2417 20.3478 25.4158 13.9918 25.4158ZM23.8058 4.06937C22.5204 2.77545 20.9909 1.7495 19.3061 1.05098C17.6212 0.352455 15.8145 -0.00475561 13.9906 4.78071e-05C6.34432 4.78071e-05 0.119 6.2242 0.116666 13.874C0.1155 16.3194 0.753666 18.7063 1.96816 20.8098L0 28L7.35465 26.0703C9.38917 27.1788 11.6691 27.7596 13.986 27.7597H13.9918C21.6381 27.7597 27.8635 21.5355 27.8658 13.8845C27.8714 12.0613 27.5155 10.2551 26.8186 8.57041C26.1217 6.88566 25.0977 5.35582 23.8058 4.06937Z" fill="white"/>
</svg>
