<svg width="34" height="34" viewBox="0 0 34 34" fill="none" xmlns="http://www.w3.org/2000/svg">
<path fill-rule="evenodd" clip-rule="evenodd" d="M17.0718 30.8621H17.0662C14.5458 30.8625 12.0717 30.1883 9.90318 28.9099L9.39073 28.6068L4.06405 29.9979L5.48611 24.8299L5.15159 24.3001C3.74254 22.0679 2.99685 19.4845 3.0007 16.8484C3.00355 9.12763 9.31528 2.84614 17.0775 2.84614C20.8355 2.84614 24.3686 4.3053 27.0248 6.95163C28.335 8.25012 29.3734 9.79426 30.08 11.4947C30.7867 13.1952 31.1475 15.0182 31.1416 16.8584C31.1387 24.5792 24.827 30.8621 17.0718 30.8621ZM29.0462 4.94138C27.4778 3.37019 25.6117 2.1244 23.5559 1.27619C21.5002 0.427981 19.2958 -0.00577467 17.0704 5.80514e-05C7.74091 5.80514e-05 0.145195 7.55796 0.142348 16.847C0.140925 19.8164 0.919571 22.7148 2.40142 25.2691L0 34L8.97364 31.6568C11.456 33.0028 14.2378 33.7081 17.0647 33.7082H17.0718C26.4014 33.7082 33.9971 26.1503 33.9999 16.8598C34.0068 14.6459 33.5725 12.4527 32.7222 10.4069C31.8719 8.36116 30.6225 6.5035 29.0462 4.94138Z" fill="#1A1757"/>
<path d="M21.7795 19.136C22.1624 19.2876 24.2189 20.3763 24.6384 20.6022C25.0579 20.8281 25.3352 20.9403 25.4393 21.1283C25.5435 21.3163 25.5435 22.2184 25.1958 23.2707C24.8467 24.3229 23.1745 25.2842 22.3721 25.413C21.6514 25.5298 20.7393 25.5783 19.7371 25.2341C19.1304 25.0279 18.352 24.7505 17.3525 24.2865C13.1564 22.3352 10.4172 17.7836 10.2074 17.4834L10.204 17.4785C9.98195 17.1591 8.5 15.0276 8.5 12.8226C8.5 10.6045 9.57965 9.51433 9.96393 9.06402C10.3468 8.6122 10.8001 8.5 11.0788 8.5C11.3575 8.5 11.6362 8.50303 11.8811 8.51516C12.1373 8.53032 12.4822 8.41055 12.8214 9.28842C13.1705 10.1905 14.0066 12.4087 14.1108 12.6346C14.2164 12.8605 14.2867 13.1228 14.146 13.423C14.0066 13.7248 13.9376 13.9128 13.7279 14.1766C13.5182 14.4389 13.2887 14.7634 13.1001 14.965C12.8904 15.1894 12.6736 15.4335 12.9171 15.8838C13.1606 16.3356 14.001 17.8109 15.2439 19.0056C16.8416 20.54 18.1901 21.0146 18.6081 21.242C19.0262 21.4664 19.2697 21.43 19.5147 21.1283C19.7582 20.8281 20.5591 19.8122 20.8378 19.3635C21.1179 18.9116 21.3966 18.9859 21.7795 19.136Z" fill="#0EA7AF"/>
</svg>
