<svg width="526" height="234" viewBox="0 0 526 234" fill="none" xmlns="http://www.w3.org/2000/svg">
<path d="M140.551 105.79C142.197 103.658 142.306 100.976 140.795 99.7998C139.283 98.6231 136.723 99.3972 135.076 101.529C133.43 103.661 133.32 106.343 134.832 107.519C136.344 108.696 138.904 107.922 140.551 105.79Z" fill="#D82128"/>
<path d="M218.769 213.301L200.598 220.49L193.712 210.426C192.991 212.812 192.402 214.739 191.995 216.095C191.995 216.095 184.317 216.34 168.857 216.095C169.954 205.96 171.976 192.715 174.139 179.714H174.149V179.734H174.159V179.52C174.17 179.581 174.159 179.643 174.139 179.704C170.808 172.434 167.253 166.356 165.79 158.944C159.432 160.534 144.938 161.656 135.156 161.574C129.875 161.523 124.248 160.646 119.992 157.7L128.107 126.488H130.088C132.373 130.149 134.933 133.289 137.553 135.655C139.585 134.696 141.464 133.802 143.191 132.973L176.932 131.831L177.725 118.382C183.87 117.128 190.137 116.506 196.414 116.516C201.726 116.526 209.313 117.974 211.731 123.184C214.646 129.486 209.557 153.101 203.727 175.217L218.769 213.291V213.301Z" fill="#DCE2E2"/>
<path d="M120.926 126.498H113.938C112.597 131.29 111.927 136.287 112.353 141.711C112.607 144.893 113.389 148.431 114.547 151.051L120.926 126.498Z" fill="#DCE2E2"/>
<path d="M162.246 226.609C162.246 226.609 178.68 228.832 187.07 227.088C177.025 224.865 169.062 223.478 162.246 226.609Z" fill="#1A1757"/>
<path d="M146.328 51.8891C144.276 52.0727 144.073 49.7683 143.25 47.0356C142.052 43.0283 140.325 32.7298 144.5 26.1836C146.887 22.4415 152.808 21.0548 157.094 20.7897C160.771 20.5653 169.506 22.156 170.431 28.5594C165.22 29.3548 160.121 29.4873 154.901 28.7634C154.586 32.2506 153.154 35.6868 150.949 38.3991C151.803 41.2541 152.778 44.2315 152.869 47.2089C158.374 47.9635 167.008 48.4631 171.091 45.2716C171.639 53.8469 169.547 59.5773 162.864 59.9648C153.997 60.4746 149.395 57.0282 149.792 54.3669C150.238 51.3691 150.411 48.9525 150.431 46.5054C150.442 45.0065 149.649 41.662 146.927 40.418C144.906 39.5003 142.905 42.5287 145.922 48.4631C146.389 49.391 146.369 50.482 146.338 51.5119" fill="#1A1757"/>
<path d="M203.726 175.227C203.726 175.227 195.428 204.746 193.711 210.425L197.652 216.186C197.652 216.186 203.483 190.001 204.64 177.541L203.726 175.227Z" fill="#1A1757"/>
<path d="M177.461 73.894C181.219 80.0527 182.306 83.0913 184.662 89.097C181.513 91.687 178.954 93.6345 178.243 95.786C178.487 86.9456 178.497 83.2646 177.461 73.8838V73.894Z" fill="#1A1757"/>
<path d="M150.779 129.222L176.842 132.036L143.1 133.178L150.779 129.222Z" fill="#1A1757"/>
<path d="M211.293 86.1694L208.744 108.908L197.906 107.378C198.465 107.46 199.724 105.675 199.968 105.247C200.456 104.411 200.73 103.493 200.994 102.565C201.654 100.322 202.111 97.9566 201.807 95.6114C201.766 95.2647 201.685 94.8976 201.41 94.6937C201.187 94.5305 200.892 94.5101 200.618 94.5305C199.217 94.5917 197.856 95.1729 196.454 95.3565C196.078 95.4074 191.995 95.6624 191.995 95.6216L193.336 83.6406L202.396 84.9152L211.293 86.1694Z" fill="#D82128"/>
<path d="M217.418 80.1456L219.957 78.5039L215.996 113.886L213.345 116.455L217.418 80.1456Z" fill="#D82128"/>
<path d="M171.58 174.716C171.58 174.716 175.968 158.575 178.924 152.467C176.699 164.815 174.048 179.906 174.048 179.906L171.58 174.716Z" fill="#1A1757"/>
<path d="M388.747 139.059C388.453 141.557 387.925 144.035 387.163 146.493C378.357 174.808 331.827 166.1 315.85 163.052C320.187 175.053 324.727 194.325 329.44 206.01C323.021 207.56 307.755 213.3 307.755 213.3C307.755 213.3 305.287 207.988 302.189 199.963C302.189 203.552 302.209 206.887 302.412 210.272C295.82 210.282 280.615 210.323 280.615 210.323C280.615 210.323 272.885 171.443 276.704 145.972C277.233 142.465 280.097 140.324 283.398 139.059C290.833 136.194 310.771 133.563 320.065 134.624L333.635 143.168L339.943 138.57C342.502 138.621 388.747 139.059 388.747 139.059Z" fill="#1A1757"/>
<path d="M388.76 139.059H388.749" stroke="#1A1757" stroke-linecap="round" stroke-linejoin="round"/>
<path d="M285.604 88.3522L284.406 91.1563C283.471 90.7382 281.958 90.1264 280.983 89.8613L282.202 86.9247C282.587 85.9866 283.674 85.538 284.619 85.9255C284.771 85.9968 284.913 86.0682 285.046 86.1702C285.685 86.6698 285.939 87.5569 285.604 88.3522Z" fill="#D82128"/>
<path d="M284.446 91.1766C284.446 91.1766 284.426 91.1766 284.406 91.1562L284.446 91.1766Z" fill="#D82128"/>
<path d="M274.024 116.322L271.393 119.34C271.048 119.728 270.408 119.473 270.439 118.953L270.621 114.895L274.024 116.322Z" fill="#D82128"/>
<path d="M400.227 230.808V232.98H339.619L339.528 180.376L400.227 230.808Z" fill="#0EA7AF"/>
<path d="M388.758 139.071C388.758 139.071 342.512 138.633 339.953 138.582" stroke="#1A1757" stroke-linecap="round" stroke-linejoin="round"/>
<path d="M326.648 138.876C311.788 140.242 300.189 143.923 295.1 146.177C291.87 147.604 289.889 150.928 290.194 154.466C291.515 169.853 297.568 187.932 302.2 199.953C305.298 207.988 307.756 213.311 307.756 213.311C307.756 213.311 323.022 207.57 329.441 206.02C324.728 194.335 320.188 175.053 315.861 163.052C331.828 166.101 378.358 174.819 387.164 146.493C387.926 144.035 388.454 141.558 388.748 139.07C392.466 109.01 364.788 77.2684 350.944 67.8672L335.2 79.2363" stroke="#1A1757" stroke-linecap="round" stroke-linejoin="round"/>
<path d="M302.189 199.953C302.189 203.542 302.199 206.887 302.412 210.272C295.82 210.272 280.615 210.323 280.615 210.323C280.615 210.323 272.885 171.443 276.704 145.972C277.233 142.465 280.097 140.334 283.398 139.059C290.833 136.194 310.771 133.563 320.065 134.624" stroke="#1A1757" stroke-linecap="round" stroke-linejoin="round"/>
<path d="M334.713 66.8467C334.713 66.8467 334.906 90.3905 337.11 108.969" stroke="#1A1757" stroke-linecap="round" stroke-linejoin="round"/>
<path d="M316.337 47.749C316.236 52.7351 317.353 59.679 319.019 63.5639C319.781 65.3483 320.735 67.1123 322.239 68.346C325.174 70.7728 333.391 68.8865 337.799 63.0744" stroke="#1A1757" stroke-linecap="round" stroke-linejoin="round"/>
<path d="M343.904 61.464C340.735 54.4284 347.002 45.6084 343.487 38.7461C342.36 36.5436 340.328 34.9122 338.094 33.8823C335.077 32.5058 331.746 31.8634 328.434 31.843C325.123 31.8226 321.914 31.272 318.613 32.0164C316.195 32.5568 313.859 33.7294 312.254 35.626C311.655 36.3295 311.147 37.2472 311.371 38.1547C311.594 39.0622 312.62 38.7665 313.483 38.8685C311.929 39.2559 310.507 40.1328 309.471 41.3462C308.77 42.1619 308.242 43.4263 308.902 44.2828C309.339 44.8538 310.162 45.0068 310.863 44.8436C311.564 44.6805 312.163 44.242 312.752 43.824C311.858 44.915 310.578 46.7096 311.614 47.77C312.823 49.014 323.051 45.9551 327.673 44.7213L333.158 51.7977C333.158 51.7977 331.197 46.9339 334.722 45.1597C339.089 42.9675 337.809 49.3607 337.809 54.0103C343.101 62.4123 350.953 67.8572 350.953 67.8572" stroke="#1A1757" stroke-linecap="round" stroke-linejoin="round"/>
<path d="M316.755 55.7852L316.339 63.973L319.02 63.5753" stroke="#1A1757" stroke-linecap="round" stroke-linejoin="round"/>
<path d="M299.548 121.389L304.413 110.561" stroke="#1A1757" stroke-linecap="round" stroke-linejoin="round"/>
<path d="M313.849 211.854C315.027 220.47 311.96 222.336 304.535 224.936C300.716 226.272 294.175 228.189 291.97 232.839H331.817C331.817 232.839 332.375 220.144 327.246 207.449" stroke="#1A1757" stroke-linecap="round" stroke-linejoin="round"/>
<path d="M313.282 219.286C318.706 219.785 324.912 218.144 329.96 216.104" stroke="#1A1757" stroke-linecap="round" stroke-linejoin="round"/>
<path d="M298.766 210.324C300.655 216.819 300.97 221.795 300.869 225.435" stroke="#1A1757" stroke-linecap="round" stroke-linejoin="round"/>
<path d="M281.398 210.324C282.566 218.94 279.275 222.336 271.84 224.936C268.031 226.272 261.48 228.189 259.286 232.838H291.443" stroke="#1A1757" stroke-linecap="round" stroke-linejoin="round"/>
<path d="M279.988 220.366C285.411 220.866 295.345 219.775 300.393 217.735" stroke="#1A1757" stroke-linecap="round" stroke-linejoin="round"/>
<path d="M335.608 87.6582L325.532 113.843C321.469 113.751 315.883 113.048 311.82 112.966" stroke="#1A1757" stroke-linecap="round" stroke-linejoin="round"/>
<path d="M282.302 96.9176C284.263 96.6627 287.432 100.752 288.722 103.188" stroke="#1A1757" stroke-linecap="round" stroke-linejoin="round"/>
<path d="M303.886 206.683C299.255 194.661 291.515 169.863 290.194 154.476C289.89 150.928 291.86 147.614 295.1 146.186C300.189 143.923 311.788 140.252 326.648 138.886" stroke="white" stroke-linecap="round" stroke-linejoin="round"/>
<path d="M277.995 97.0912L282.2 86.9354C282.586 85.9871 283.672 85.5487 284.607 85.9259C284.759 85.9973 284.901 86.0687 285.033 86.1707C285.673 86.6703 285.927 87.5574 285.602 88.3527L281.346 98.3249" stroke="#1A1757" stroke-linecap="round" stroke-linejoin="round"/>
<path d="M275.557 113.65L274.033 116.321L270.621 114.894L271.839 111.396" stroke="#1A1757" stroke-linecap="round" stroke-linejoin="round"/>
<path d="M280.983 89.8613C281.968 90.1264 283.512 90.7586 284.436 91.1767" stroke="#1A1757" stroke-linecap="round" stroke-linejoin="round"/>
<path d="M270.621 114.895L270.438 118.953C270.417 119.473 271.057 119.728 271.392 119.34L274.033 116.322" stroke="#1A1757" stroke-linecap="round" stroke-linejoin="round"/>
<path d="M306.343 125.692C294.195 120.899 278.563 118.523 278.563 118.523L273.089 120.481" stroke="#1A1757" stroke-linecap="round" stroke-linejoin="round"/>
<path d="M264.029 120.554C264.029 120.554 264.029 113.375 271.108 112.468" stroke="#1A1757" stroke-linecap="round" stroke-linejoin="round"/>
<path d="M341.06 93.1143C339.557 102.128 335.758 115.853 330.415 123.255C318.623 114.976 304.413 110.571 290.163 104.116C286.506 102.464 281.306 96.2242 275.963 97.3764C271.24 98.3961 268.477 106.91 270.621 110.142C272.439 112.885 280.991 116.536 287.776 114.904C299.975 120.482 319.537 134.9 333.656 143.179C349.623 132.432 356.905 122.103 360.541 100.762" stroke="#1A1757" stroke-linecap="round" stroke-linejoin="round"/>
<path d="M400.227 166.661H339.528V232.979H400.227V166.661Z" stroke="#1A1757" stroke-linecap="round" stroke-linejoin="round"/>
<path d="M167.253 227.076V232.98H105.955H103.304" stroke="#1A1757" stroke-linecap="round" stroke-linejoin="round"/>
<path d="M167.253 164.337V166.366V219.643" stroke="#1A1757" stroke-linecap="round" stroke-linejoin="round"/>
<path d="M97.7671 202.514V157.71H112.82" stroke="#1A1757" stroke-linecap="round" stroke-linejoin="round"/>
<path d="M97.7671 215.556V215.545" stroke="#1A1757" stroke-linecap="round" stroke-linejoin="round"/>
<path d="M339.528 180.376L400.227 230.808" stroke="#1A1757" stroke-linecap="round" stroke-linejoin="round"/>
<path d="M524.984 232.98H1" stroke="#1A1757" stroke-linecap="round" stroke-linejoin="round"/>
<path d="M217.459 124.805H235.915C236.169 124.438 236.382 124.041 236.565 123.633" stroke="#1A1757" stroke-linecap="round" stroke-linejoin="round"/>
<path d="M235.916 115.181C237.064 116.588 237.531 118.576 237.368 120.554" stroke="#1A1757" stroke-linecap="round" stroke-linejoin="round"/>
<path d="M235.916 124.805H259.409C259.582 124.479 259.734 124.081 259.856 123.633" stroke="#1A1757" stroke-linecap="round" stroke-linejoin="round"/>
<path d="M217.459 115.118H259.408C260.058 116.668 260.322 118.687 260.271 120.553" stroke="#1A1757" stroke-linecap="round" stroke-linejoin="round"/>
<path d="M220.314 115.181C221.218 117.587 221.461 122.4 220.314 124.796" stroke="#1A1757" stroke-linecap="round" stroke-linejoin="round"/>
<path d="M238.668 107.235C240.243 109.275 240.151 112.803 238.668 115.127H224.418" stroke="#1A1757" stroke-linecap="round" stroke-linejoin="round"/>
<path d="M224.428 107.186H256.809C257.764 109.612 257.642 113.467 256.809 115.129H238.668" stroke="#1A1757" stroke-linecap="round" stroke-linejoin="round"/>
<path d="M226.632 107.235C227.333 109.213 227.516 113.16 226.632 115.127" stroke="#1A1757" stroke-linecap="round" stroke-linejoin="round"/>
<path d="M273.548 120.554H223.413V123.633H273.548V120.554Z" stroke="#1A1757" stroke-miterlimit="10"/>
<path d="M76.8145 123.306H147.091L150.778 118.514H76.8145V123.306Z" stroke="#1A1757" stroke-miterlimit="10"/>
<path d="M102.886 118.514V123.306" stroke="#1A1757" stroke-miterlimit="10"/>
<path d="M150.777 118.514H97.2896L119.777 86.8027H173.265L150.777 118.514Z" stroke="#1A1757" stroke-miterlimit="10"/>
<path d="M170.178 28.6719C170.178 33.8619 171.184 39.8269 171.092 45.9754" stroke="#1A1757" stroke-linecap="round" stroke-linejoin="round"/>
<path d="M146.329 51.8891C144.277 52.0727 144.074 49.7683 143.251 47.0356C142.053 43.0283 140.326 32.7298 144.501 26.1836C146.888 22.4415 152.809 21.0548 157.096 20.7897C160.772 20.5653 169.508 22.156 170.432 28.5594C165.221 29.3548 160.122 29.4873 154.902 28.7634C154.587 32.2506 153.155 35.6868 150.951 38.3991C151.804 41.2541 152.779 44.2315 152.87 47.2089C158.375 47.9635 167.009 48.4631 171.092 45.2716C171.641 53.8469 169.548 59.5773 162.865 59.9648C153.998 60.4746 149.396 57.0282 149.793 54.3669C150.24 51.3691 150.412 48.9525 150.433 46.5054C150.443 45.0065 149.65 41.662 146.928 40.418C144.907 39.5003 142.906 42.5287 145.923 48.4631C146.39 49.391 146.37 50.482 146.339 51.5119C146.248 54.734 146.156 57.9663 146.075 61.1884C147.152 66.7353 152.322 71.5277 159.818 71.5277C155.988 74.2808 153.256 78.7876 151.296 81.7344C151.245 81.8058 151.225 81.6121 151.286 81.6733C147.853 78.2166 139.798 72.3638 140.895 61.3515C141.951 60.8213 143.587 59.8832 146.146 58.782" stroke="#1A1757" stroke-linecap="round" stroke-linejoin="round"/>
<path d="M162.906 60.1484C162.865 63.4827 162.377 70.4266 159.818 71.5278C163.028 72.3843 166.4 75.6574 169.142 78.5022C169.457 76.2896 170.838 65.8789 168.502 60.1484" stroke="#1A1757" stroke-linecap="round" stroke-linejoin="round"/>
<path d="M165.79 59.4961C168.827 59.4961 181.777 64.2069 193.235 76.7283" stroke="#1A1757" stroke-linecap="round" stroke-linejoin="round"/>
<path d="M169.833 104.658C169.833 104.658 171.977 111.837 175.806 115.701" stroke="#1A1757" stroke-linecap="round" stroke-linejoin="round"/>
<path d="M169.792 114.232C168.482 114.293 168.573 116.332 169.883 116.271C171.194 116.21 171.102 114.171 169.792 114.232Z" fill="#1A1757"/>
<path d="M159.431 108.337C160.305 114.322 162.986 118.432 165.789 121.46" stroke="#1A1757" stroke-linecap="round" stroke-linejoin="round"/>
<path d="M187.436 88.1279C187.436 88.1279 187.405 88.1279 187.385 88.1279C187.09 88.1891 186.786 88.3421 186.522 88.495C183.038 90.5241 179.503 92.3391 177.99 96.3769C177.37 98.0288 177.167 99.803 176.994 101.567C174.648 102.668 172.251 103.688 169.833 104.646C167.67 105.493 165.486 106.298 163.282 107.043C161.393 107.695 159.494 108.307 157.584 108.898" stroke="#1A1757" stroke-linecap="round" stroke-linejoin="round"/>
<path d="M232.421 54.6942C235.112 53.5317 244.325 45.711 245.178 48.719C246.346 52.8486 245.473 57.9571 242.842 61.4851C241.105 63.8201 236.25 66.7567 232.147 68.2352C232.147 68.2352 224.061 79.7675 219.084 86.3137" stroke="#1A1757" stroke-linecap="round" stroke-linejoin="round"/>
<path d="M212.583 71.7434C217.276 67.5628 222.354 63.9328 222.354 63.9328C222.354 62.281 222.334 60.6087 222.679 58.9875C223.766 53.8688 229.088 51.2075 230.277 45.9767C230.358 45.6096 230.429 45.2221 230.622 44.8959C230.815 44.5696 231.13 44.2841 231.516 44.2637C231.739 44.2637 231.963 44.335 232.156 44.4472C233.121 44.9978 233.598 46.1806 233.588 47.3022C233.588 49.6678 231.851 51.8193 232.298 54.2257C232.704 56.4995 234.756 58.2533 234.543 60.6903" stroke="#1A1757" stroke-linecap="round" stroke-linejoin="round"/>
<path d="M217.021 68.8066C217.021 68.8066 220.566 74.4861 225.716 77.2086" stroke="#1A1757" stroke-linecap="round" stroke-linejoin="round"/>
<path d="M140.795 63.1777C129.612 68.6941 123.873 77.3 121.791 86.7929" stroke="#1A1757" stroke-linecap="round" stroke-linejoin="round"/>
<path d="M128.279 123.407C128.279 123.407 128.239 123.337 128.219 123.307" stroke="#1A1757" stroke-linecap="round" stroke-linejoin="round"/>
<path d="M183.006 95.1532C184.174 95.4285 185.342 95.6222 186.53 95.7548C188.765 95.9893 191.02 95.9995 193.274 95.867C195.001 95.765 197.825 95.041 199.552 94.9391C201.542 94.8269 201.603 94.6638 201.735 96.4278C202.03 100.649 199.846 107.705 195.387 108.868C192.543 109.602 188.48 110.224 184.895 110.356C184.783 110.356 184.682 110.356 184.58 110.356C182.244 111.774 180.08 113.099 177.988 114.353C177.247 114.802 176.515 115.24 175.784 115.669C172.483 117.647 169.283 119.513 165.789 121.44C164.631 122.082 161.909 123.54 160.67 124.213" stroke="#1A1757" stroke-linecap="round" stroke-linejoin="round"/>
<path d="M157.582 125.673C154.515 127.243 149.842 129.762 145.973 131.638C143.393 132.892 140.6 134.228 137.552 135.665C134.932 133.3 132.372 130.159 130.087 126.499" stroke="#1A1757" stroke-linecap="round" stroke-linejoin="round"/>
<path d="M178.181 77.0459C178.181 77.0459 178.982 91.2089 177.989 96.3989" stroke="#1A1757" stroke-linecap="round" stroke-linejoin="round"/>
<path d="M177.989 114.365L176.933 131.842" stroke="#1A1757" stroke-linecap="round" stroke-linejoin="round"/>
<path d="M177.725 118.391C183.87 117.137 190.147 116.515 196.414 116.526C201.726 116.536 209.323 117.984 211.731 123.194C217.033 134.635 195.987 202.9 191.995 216.105C191.995 216.105 184.317 216.35 168.858 216.105C172.047 186.861 182.854 131.647 182.854 131.647L143.201 132.993" stroke="#1A1757" stroke-linecap="round" stroke-linejoin="round"/>
<path d="M114.932 123.307C114.932 123.307 114.912 123.367 114.902 123.407" stroke="#1A1757" stroke-linecap="round" stroke-linejoin="round"/>
<path d="M174.159 179.744H174.149C170.808 172.464 167.253 166.377 165.79 158.964C159.432 160.554 144.938 161.676 135.156 161.594C129.875 161.543 124.248 160.667 119.992 157.72" stroke="#1A1757" stroke-linecap="round" stroke-linejoin="round"/>
<path d="M114.547 151.051C113.237 148.145 112.607 144.893 112.353 141.711C111.927 136.287 112.597 131.29 113.938 126.498" stroke="#1A1757" stroke-linecap="round" stroke-linejoin="round"/>
<path d="M193.711 210.425L200.598 220.489L218.769 213.311L203.726 175.227" stroke="#1A1757" stroke-linecap="round" stroke-linejoin="round"/>
<path d="M185.932 222.845C182.52 218.685 176.029 218.144 172.159 218.807C168.29 219.47 162.246 222.824 162.246 226.597C171.347 227.505 179.564 228.239 188.665 227.25C190.117 222.672 186.623 220.214 186.4 216.187" stroke="#1A1757" stroke-linecap="round" stroke-linejoin="round"/>
<path d="M216.504 214.199C218.048 217.166 219.135 218.359 221.237 220.817C223.35 223.274 226.133 224.936 229.058 225.895C232.959 227.169 240.394 227.526 242.618 232.737H202.508C202.508 232.737 201.837 226.201 202.233 219.93" stroke="#1A1757" stroke-linecap="round" stroke-linejoin="round"/>
<path d="M220.344 219.775C215.387 222.385 207.536 220.489 203.483 219.347" stroke="#1A1757" stroke-linecap="round" stroke-linejoin="round"/>
<path d="M162.143 226.495C165.739 224.72 169.497 224.659 173.387 224.659C178.313 224.659 183.229 225.842 187.881 227.331" stroke="#1A1757" stroke-linecap="round" stroke-linejoin="round"/>
<path d="M165.639 221.621C168.229 218.144 169.082 218.297 170.067 216.594" stroke="#1A1757" stroke-linecap="round" stroke-linejoin="round"/>
<path d="M184.895 110.357L184.661 112.407L213.345 116.455L217.418 80.1345L203.198 78.136L188.734 76.0967L186.53 95.7556" stroke="#1A1757" stroke-linecap="round" stroke-linejoin="round"/>
<path d="M201.583 77.9113L203.096 64.3193L219.957 78.5027L215.996 113.885" stroke="#1A1757" stroke-linecap="round" stroke-linejoin="round"/>
<path d="M217.418 80.1456L219.958 78.5039" stroke="#1A1757" stroke-linecap="round" stroke-linejoin="round"/>
<path d="M213.345 116.455L215.996 113.886" stroke="#1A1757" stroke-linecap="round" stroke-linejoin="round"/>
<path d="M285.238 123.419H76.8145V126.498H285.238V123.419Z" fill="#1A1757"/>
<path d="M128.107 126.498L100.418 232.981" stroke="#1A1757" stroke-linecap="round" stroke-linejoin="round"/>
<path d="M120.927 126.498L93.2383 232.981" stroke="#1A1757" stroke-linecap="round" stroke-linejoin="round"/>
<path d="M260.973 230.452L233.945 126.498" stroke="#1A1757" stroke-linecap="round" stroke-linejoin="round"/>
<path d="M261.631 232.981L261.591 232.828" stroke="#1A1757" stroke-linecap="round" stroke-linejoin="round"/>
<path d="M267.158 226.628L241.126 126.498" stroke="#1A1757" stroke-linecap="round" stroke-linejoin="round"/>
<path d="M268.813 232.98L268.773 232.827" stroke="#1A1757" stroke-linecap="round" stroke-linejoin="round"/>
<path d="M389.001 37.2474C395.671 37.2474 401.078 31.8194 401.078 25.1237C401.078 18.428 395.671 13 389.001 13C382.332 13 376.925 18.428 376.925 25.1237C376.925 31.8194 382.332 37.2474 389.001 37.2474Z" stroke="#1A1757" stroke-linecap="round" stroke-linejoin="round"/>
<path d="M390.495 37.1452L387.591 44.4052L380.978 42.6921L381.578 34.749" stroke="#1A1757" stroke-linecap="round" stroke-linejoin="round"/>
<path d="M381.629 40.499L388.252 42.1509" stroke="#1A1757" stroke-linecap="round" stroke-linejoin="round"/>
<path d="M383.477 35.8921L384.177 33.3634L384.208 26.0015C384.208 25.2062 385.152 24.7983 385.731 25.3387L388.799 28.1836L392.75 27.378C393.552 27.2149 394.142 28.1224 393.674 28.7953L388.657 34.9439L387.996 37.2177" stroke="#1A1757" stroke-linecap="round" stroke-linejoin="round"/>
<path d="M382.228 43.0488C382.563 43.8238 382.939 44.7517 383.751 44.976C385.143 45.3634 386.067 44.4661 386.514 44.1297" stroke="#1A1757" stroke-linecap="round" stroke-linejoin="round"/>
<path d="M365.63 30.3954L371.704 30.1201" stroke="#1A1757" stroke-linecap="round" stroke-linejoin="round"/>
<path d="M412.1 28.1109L406.229 27.3359" stroke="#1A1757" stroke-linecap="round" stroke-linejoin="round"/>
<path d="M371.43 17.8734L365.894 15.7627" stroke="#1A1757" stroke-linecap="round" stroke-linejoin="round"/>
<path d="M406.849 40.8892L402.532 36.8105" stroke="#1A1757" stroke-linecap="round" stroke-linejoin="round"/>
<path d="M343.904 61.464C341.182 50.5129 347.002 45.6084 343.487 38.7461C342.36 36.5436 340.328 34.9122 338.094 33.8823C335.077 32.5058 331.746 31.8634 328.434 31.843C325.123 31.8226 321.914 31.272 318.613 32.0164C316.195 32.5568 313.859 33.7294 312.254 35.626C311.655 36.3295 311.147 37.2472 311.371 38.1547C311.594 39.0622 312.62 38.7665 313.483 38.8685C311.929 39.2559 310.507 40.1328 309.471 41.3462C308.77 42.1619 308.242 43.4263 308.902 44.2828C309.339 44.8538 310.162 45.0068 310.863 44.8436C311.564 44.6805 312.163 44.242 312.752 43.824C311.858 44.915 310.578 46.7096 311.614 47.77C312.823 49.014 323.051 45.9551 327.673 44.7213L333.158 51.7977C333.158 51.7977 331.197 46.9339 334.722 45.1597C339.089 42.9675 337.809 49.3607 337.809 54.0103C337.809 54.0103 339.942 57.4772 343.914 61.4538L343.904 61.464Z" fill="#1A1757"/>
<path d="M474.418 8.06964L467.661 14.8262L474.418 21.5827L481.174 14.8262L474.418 8.06964Z" fill="#1A1757"/>
<path d="M44.863 56.0003L37 63.8633L44.863 71.7263L52.7261 63.8633L44.863 56.0003Z" fill="#DCE2E2"/>
<path d="M419.863 88.0003L412 95.8633L419.863 103.726L427.726 95.8633L419.863 88.0003Z" fill="#D82128"/>
<path d="M501.863 117L494 124.863L501.863 132.726L509.726 124.863L501.863 117Z" fill="#DCE2E2"/>
<path d="M92.863 0.000254059L85 7.86328L92.863 15.7263L100.726 7.86328L92.863 0.000254059Z" fill="#D82128"/>
</svg>
